<?xml version="1.0" standalone="no"?>
<!DOCTYPE svg PUBLIC "-//W3C//DTD SVG 20010904//EN"
 "http://www.w3.org/TR/2001/REC-SVG-20010904/DTD/svg10.dtd">
<svg version="1.0" xmlns="http://www.w3.org/2000/svg"
 width="205.000000pt" height="246.000000pt" viewBox="0 0 205.000000 246.000000"
 preserveAspectRatio="xMidYMid meet">

<g transform="translate(0.000000,246.000000) scale(0.100000,-0.100000)"
fill="#000000" stroke="none">
<path d="M980 2347 c-69 -16 -107 -36 -146 -79 -72 -75 -86 -138 -85 -355 1
-95 -4 -194 -9 -220 -16 -70 -58 -147 -132 -243 -85 -110 -161 -244 -193 -339
-26 -79 -42 -188 -32 -216 6 -14 9 -14 36 0 69 35 151 -26 221 -166 50 -99 99
-168 120 -169 31 0 60 30 60 63 0 57 -56 127 -157 195 -131 89 -166 162 -139
292 14 64 83 221 108 245 7 7 9 7 6 0 -2 -5 -21 -44 -40 -85 -59 -123 -68
-212 -30 -300 l15 -35 18 85 c21 102 31 132 98 277 60 133 97 238 109 314 8
51 6 59 -15 85 -30 38 -29 60 5 93 27 27 27 27 10 61 -20 39 -23 95 -8 134 12
33 53 59 80 51 29 -9 60 -63 60 -102 0 -32 2 -33 40 -33 36 0 40 2 40 25 0 60
56 135 102 135 84 0 140 -113 100 -202 l-19 -44 25 -18 c22 -17 24 -24 18 -66
-8 -58 35 -190 126 -385 34 -71 75 -170 92 -220 17 -49 35 -93 41 -97 22 -16
35 -6 45 34 22 80 -22 221 -93 295 -17 18 -28 35 -25 39 12 11 98 -111 125
-176 20 -50 27 -83 27 -142 1 -76 2 -78 30 -90 56 -23 96 -67 96 -104 0 -29 3
-34 24 -34 22 0 25 6 36 72 29 169 -37 337 -228 578 -41 52 -89 124 -106 160
-29 62 -31 72 -37 245 -8 187 -15 228 -55 306 -59 118 -206 172 -364 136z
m186 -40 c41 -21 86 -71 79 -88 -8 -20 -365 -28 -365 -8 0 10 -3 10 -12 1 -19
-19 -48 -15 -48 7 0 23 51 68 99 88 77 33 185 32 247 0z m359 -815 c22 -31 39
-60 37 -64 -1 -5 3 -8 8 -8 5 0 10 -5 10 -11 0 -6 -9 -4 -22 5 -21 15 -92 136
-79 136 3 0 24 -26 46 -58z m-901 -88 c-27 -42 -57 -78 -66 -80 -16 -2 -16 0
-3 24 21 41 106 144 112 138 3 -3 -16 -40 -43 -82z"/>
<path d="M1104 1972 c-17 -11 -34 -48 -34 -74 0 -18 10 -29 36 -41 43 -21 51
-17 60 27 7 42 -19 96 -46 96 -3 0 -10 -4 -16 -8z m26 -20 c0 -5 -7 -9 -15 -9
-8 0 -15 4 -15 9 0 4 7 8 15 8 8 0 15 -4 15 -8z"/>
<path d="M842 1948 c-16 -16 -15 -70 1 -91 11 -16 14 -16 35 -2 26 19 28 51 6
83 -17 25 -25 27 -42 10z m32 -6 c3 -5 -1 -9 -9 -9 -8 0 -15 4 -15 9 0 4 4 8
9 8 6 0 12 -4 15 -8z"/>
<path d="M1463 975 c-43 -30 -37 -142 12 -191 41 -41 120 -28 184 30 61 55 44
101 -52 147 -69 32 -112 36 -144 14z m83 -20 c49 -20 34 -35 -31 -33 -57 2
-72 17 -37 37 23 14 27 13 68 -4z"/>
<path d="M1220 467 c-131 -65 -248 -70 -362 -14 l-47 23 16 -29 c9 -19 14 -49
11 -84 l-3 -55 50 7 c131 18 169 21 232 14 37 -5 88 -8 113 -8 l45 -1 2 63 c1
34 6 75 13 91 6 16 9 29 8 30 -2 1 -37 -16 -78 -37z"/>
</g>
</svg>
