<svg width="1114" height="374" viewBox="0 0 1114 374" fill="none" xmlns="http://www.w3.org/2000/svg">
<path opacity="0.2" d="M160.716 48.3639L160.333 48.2676L39.0605 302.159L466.573 335.16L467.054 335.197L482.719 129.095L482.75 128.69L160.716 48.3639ZM283.526 211.639L40.7431 300.872L160.692 49.7526L283.526 211.639ZM284.239 212.404L464.827 334.056L42.0402 301.422L284.239 212.404ZM284.462 211.278L161.81 49.6283L480.712 129.172L284.462 211.278ZM466.192 333.816L285.314 211.966L481.697 129.805L466.192 333.816Z" fill="#4285F4"/>
<path d="M537.357 133.387C536.971 143.161 534.224 152.697 529.351 161.178C524.478 169.66 517.624 176.835 509.374 182.092C501.125 187.348 491.725 190.53 481.979 191.363C472.233 192.197 462.429 190.659 453.407 186.88C449.175 185.107 445.162 182.852 441.446 180.161C434.343 175.033 428.432 168.432 424.116 160.81V160.803C419.514 152.65 416.865 143.541 416.378 134.191C415.891 124.841 417.578 115.506 421.307 106.919C425.037 98.3315 430.707 90.7258 437.871 84.6994C445.036 78.6731 453.501 74.3901 462.6 72.1871C471.7 69.9841 481.186 69.921 490.314 72.0029C499.442 74.0847 507.963 78.2548 515.207 84.1854C522.452 90.116 528.222 97.6456 532.065 106.183C535.909 114.72 537.72 124.032 537.357 133.387L537.357 133.387Z" fill="white"/>
<path opacity="0.09" d="M537.357 133.387C536.971 143.161 534.224 152.697 529.351 161.178C524.478 169.66 517.624 176.835 509.374 182.092C501.125 187.348 491.725 190.53 481.979 191.363C472.233 192.197 462.429 190.659 453.407 186.88C449.175 185.107 445.162 182.852 441.446 180.161C434.343 175.033 428.432 168.432 424.116 160.81V160.803C419.514 152.65 416.865 143.541 416.378 134.191C415.891 124.841 417.578 115.506 421.307 106.919C425.037 98.3315 430.707 90.7258 437.871 84.6994C445.036 78.6731 453.501 74.3901 462.6 72.1871C471.7 69.9841 481.186 69.921 490.314 72.0029C499.442 74.0847 507.963 78.2548 515.207 84.1854C522.452 90.116 528.222 97.6456 532.065 106.183C535.909 114.72 537.72 124.032 537.357 133.387L537.357 133.387Z" fill="#4285F4"/>
<path d="M491.164 84.9253C491.164 84.9253 505.641 85.1026 500.649 105.053L499.29 105.119L496.53 105.254" fill="#0C0C0C"/>
<path d="M475 125.984C475.067 125.978 475.334 138.421 489.799 137.899C499.812 137.538 503.783 127.083 504.013 127.092C502.945 126.821 501.145 126.417 500.677 126.144C499.138 125.239 497.226 124.285 496.838 121.211C496.614 119.44 497.459 110.457 497.376 108.671L481.916 111.497C481.985 115.266 483.145 124.041 477.832 125.38C476.948 125.601 475.997 125.799 475 125.984Z" fill="#E98862"/>
<path opacity="0.52" d="M481.296 121.946C481.566 121.182 481.752 120.39 481.85 119.585C482.089 117.75 482.128 115.893 481.964 114.049C485.095 113.749 488.08 112.577 490.578 110.666C490.822 111.726 492.21 116.382 491.735 117.364C490.844 119.221 486.876 122.163 481.296 121.946Z" fill="#0C0C0C"/>
<path d="M484.805 119.748C490.865 119.314 498.176 115.625 498.43 107.413L498.659 100.005C498.913 91.7945 494.804 85.005 487.076 84.766C479.346 84.5251 473.361 91.0038 473.107 99.2142L473.006 102.494C472.991 103.621 473.052 104.748 473.19 105.867C473.533 108.825 474.066 113.324 476.014 116.395C477.853 119.295 480.934 120.024 484.805 119.748Z" fill="#E98862"/>
<path d="M497.871 109.901C500.221 109.973 502.203 107.519 502.276 105.17C502.349 102.821 500.484 101.466 498.135 101.394L496.875 102.93L495.852 109.839L497.871 109.901Z" fill="#E98862"/>
<path d="M473.505 108.346C473.929 108.849 474.473 109.238 475.086 109.478C475.699 109.717 476.362 109.8 477.015 109.717C478.413 109.542 479.339 110.115 480.506 110C481.485 109.903 481.654 109.451 483.325 109.352C489.776 108.97 494.616 108.563 494.93 100.469L499.035 96.8232C499.035 96.8232 500.87 119.253 488.737 122.235C481.282 124.066 474.291 123.397 473.391 116.395C472.661 110.706 473.505 108.346 473.505 108.346Z" fill="#0C0C0C"/>
<path d="M476.561 103.662C477.087 103.662 477.514 103.235 477.514 102.709C477.514 102.183 477.087 101.757 476.561 101.757C476.035 101.757 475.608 102.183 475.608 102.709C475.608 103.235 476.035 103.662 476.561 103.662Z" fill="#0C0C0C"/>
<path d="M485.071 103.484C485.597 103.484 486.023 103.058 486.023 102.532C486.023 102.006 485.597 101.579 485.071 101.579C484.545 101.579 484.118 102.006 484.118 102.532C484.118 103.058 484.545 103.484 485.071 103.484Z" fill="#0C0C0C"/>
<path d="M495.603 106.082C495.603 106.082 495.022 94.4477 491.511 93.6657C489.173 93.1448 483.422 96.3702 478.168 95.2687C475.87 94.7869 473.671 95.3169 473.428 96.403C473.331 96.8328 471.513 93.021 475.211 88.3829C478.154 84.6902 487.726 83.6514 491.984 84.9571C503.776 88.5737 498.611 101.914 498.611 101.914L498.01 105.91L495.603 106.082Z" fill="#0C0C0C"/>
<path d="M500.962 96.7009C504.432 96.7009 507.246 93.8874 507.246 90.4168C507.246 86.9463 504.432 84.1328 500.962 84.1328C497.491 84.1328 494.678 86.9463 494.678 90.4168C494.678 93.8874 497.491 96.7009 500.962 96.7009Z" fill="#0C0C0C"/>
<g opacity="0.52">
<path d="M480.621 109.626H480.606C479.849 109.604 478.582 109.484 478.597 108.917C478.61 108.448 480.038 103.419 480.201 102.846C480.215 102.797 480.248 102.756 480.293 102.731C480.338 102.706 480.39 102.7 480.44 102.714C480.489 102.728 480.53 102.761 480.555 102.805C480.58 102.85 480.586 102.903 480.572 102.952C479.938 105.179 478.992 108.609 478.982 108.927C479.053 109.062 479.833 109.216 480.617 109.238C480.668 109.238 480.717 109.258 480.754 109.293C480.79 109.329 480.811 109.378 480.812 109.429C480.812 109.48 480.792 109.529 480.757 109.566C480.721 109.602 480.672 109.623 480.621 109.624V109.626Z" fill="#0C0C0C"/>
</g>
<path d="M478.316 99.4728C477.534 99.2412 476.704 99.2245 475.913 99.4246C475.524 99.5202 475.151 99.6739 474.808 99.8804C474.468 100.083 474.154 100.327 473.875 100.608C473.827 100.652 473.798 100.713 473.794 100.777C473.791 100.842 473.813 100.906 473.856 100.954C473.9 101.003 473.96 101.032 474.025 101.035C474.09 101.039 474.154 101.017 474.202 100.973L474.217 100.961C474.477 100.726 474.765 100.525 475.076 100.363C475.381 100.201 475.709 100.086 476.049 100.023C476.719 99.8915 477.412 99.9399 478.057 100.163L478.082 100.172C478.127 100.19 478.176 100.198 478.225 100.197C478.274 100.195 478.322 100.184 478.366 100.164C478.411 100.144 478.451 100.115 478.484 100.079C478.518 100.044 478.543 100.001 478.56 99.9556C478.577 99.9097 478.585 99.861 478.583 99.8121C478.58 99.7633 478.568 99.7154 478.548 99.6712C478.527 99.627 478.497 99.5875 478.461 99.5548C478.424 99.5221 478.382 99.497 478.336 99.481L478.316 99.4728Z" fill="#0C0C0C"/>
<path d="M483.928 100.164C484.549 99.8786 485.234 99.763 485.914 99.8287C486.258 99.8589 486.596 99.9413 486.916 100.073C487.24 100.205 487.546 100.376 487.828 100.584L487.843 100.595C487.896 100.629 487.959 100.642 488.021 100.631C488.082 100.619 488.137 100.585 488.174 100.535C488.211 100.484 488.227 100.421 488.22 100.359C488.212 100.297 488.181 100.24 488.132 100.201C487.827 99.9482 487.492 99.7352 487.133 99.5666C486.771 99.3946 486.386 99.2778 485.989 99.2202C485.182 99.0986 484.358 99.1963 483.602 99.503C483.513 99.5414 483.443 99.6132 483.407 99.7028C483.37 99.7925 483.371 99.8928 483.408 99.9821C483.445 100.071 483.516 100.143 483.605 100.18C483.694 100.218 483.795 100.219 483.884 100.183L483.902 100.175L483.928 100.164Z" fill="#0C0C0C"/>
<path d="M522.52 157.056C521.981 161.124 521.455 166.712 520.986 172.489C519.151 174.442 517.188 176.272 515.112 177.966C513.792 179.038 512.43 180.057 511.025 181.023C503.43 186.208 494.755 189.598 485.657 190.938C476.559 192.277 467.275 191.531 458.507 188.755C458.388 183.388 458.225 176.149 458.063 169.517C457.878 161.867 457.69 155.018 457.59 152.767C457.174 143.835 454.806 137.875 456.596 133.002C457.132 131.559 457.992 130.26 459.111 129.204C463.281 125.122 473.64 125.215 477.795 125.376C477.868 125.379 476.584 134.968 490.254 134.853C500.302 134.77 501.055 126.279 501.055 126.279C501.055 126.279 506.007 126.794 509.295 127.365C514.673 128.307 518.17 130.279 520.891 133.225C523.43 135.972 524.927 138.888 522.52 157.056Z" fill="#4285F4"/>
<path d="M442.153 126.322L442.566 116.09C442.576 115.865 442.538 115.641 442.456 115.431C442.374 115.221 442.249 115.031 442.089 114.872C441.929 114.714 441.738 114.59 441.528 114.509C441.318 114.429 441.093 114.393 440.868 114.404C440.454 114.437 440.066 114.623 439.782 114.926C439.497 115.229 439.334 115.626 439.326 116.042L439.237 118.236L436.348 111.21C436.04 110.423 435.16 109.654 434.3 110.057C433.958 110.191 433.673 110.436 433.489 110.753C433.305 111.069 433.234 111.439 433.288 111.801C433.279 111.802 433.271 111.804 433.264 111.807C433.258 111.81 433.253 111.813 433.248 111.817L432.774 110.604C432.686 110.379 432.549 110.177 432.373 110.012C432.197 109.847 431.987 109.723 431.757 109.65C431.527 109.576 431.283 109.555 431.044 109.588C430.805 109.621 430.576 109.706 430.374 109.838C430.061 110.053 429.83 110.369 429.722 110.733C429.613 111.097 429.633 111.488 429.777 111.839L429.979 112.356C429.967 112.368 429.957 112.383 429.95 112.399C429.733 112.082 429.41 111.853 429.039 111.752C428.669 111.651 428.274 111.686 427.926 111.849C427.551 112.039 427.261 112.363 427.114 112.758C426.968 113.152 426.975 113.588 427.135 113.977L427.636 115.259C427.616 115.246 427.594 115.238 427.57 115.235C427.546 115.233 427.523 115.236 427.5 115.244C427.474 115.256 427.452 115.274 427.437 115.298C427.165 115.069 426.825 114.936 426.47 114.919C426.115 114.902 425.764 115.002 425.472 115.204C425.169 115.422 424.949 115.737 424.846 116.096C424.744 116.455 424.766 116.838 424.909 117.183L429.138 128.004C429.73 129.518 430.76 130.821 432.097 131.746C433.433 132.67 435.016 133.174 436.641 133.194C438.043 133.21 439.395 132.68 440.412 131.715C441.429 130.75 442.029 129.427 442.086 128.027L442.153 126.322Z" fill="#E98862"/>
<g opacity="0.2">
<path d="M436.111 118.771C436.075 118.785 436.034 118.784 435.998 118.769C435.962 118.753 435.933 118.724 435.919 118.688L433.18 112.002C433.172 111.983 433.167 111.963 433.166 111.943C433.165 111.923 433.169 111.902 433.176 111.884C433.184 111.865 433.195 111.847 433.209 111.833C433.223 111.818 433.24 111.807 433.259 111.799C433.278 111.792 433.298 111.788 433.318 111.788C433.339 111.788 433.359 111.793 433.377 111.801C433.396 111.81 433.413 111.822 433.426 111.837C433.44 111.852 433.451 111.869 433.457 111.888L436.196 118.575C436.203 118.593 436.207 118.613 436.207 118.632C436.207 118.652 436.203 118.671 436.195 118.689C436.188 118.708 436.176 118.724 436.162 118.738C436.148 118.752 436.132 118.763 436.114 118.77L436.111 118.771Z" fill="#0C0C0C"/>
</g>
<g opacity="0.2">
<path d="M433.196 120.06C433.16 120.075 433.119 120.074 433.083 120.058C433.047 120.043 433.018 120.014 433.004 119.977L429.948 112.515C429.934 112.479 429.934 112.438 429.949 112.402C429.965 112.366 429.994 112.337 430.03 112.322C430.066 112.309 430.106 112.31 430.142 112.325C430.178 112.341 430.206 112.368 430.223 112.404L433.278 119.866C433.293 119.903 433.293 119.944 433.278 119.98C433.262 120.017 433.233 120.046 433.196 120.061V120.06Z" fill="#0C0C0C"/>
</g>
<g opacity="0.2">
<path d="M430.047 121.474C430.01 121.489 429.969 121.488 429.933 121.472C429.897 121.457 429.869 121.427 429.854 121.391L427.416 115.439C427.401 115.402 427.402 115.361 427.417 115.325C427.432 115.288 427.461 115.259 427.498 115.244C427.535 115.229 427.576 115.229 427.612 115.245C427.649 115.26 427.678 115.289 427.693 115.326L430.132 121.276C430.147 121.313 430.147 121.354 430.131 121.391C430.116 121.427 430.087 121.456 430.05 121.471L430.047 121.474Z" fill="#0C0C0C"/>
</g>
<path d="M476.023 142.363L451.121 180.647C450.215 182.039 449.002 183.204 447.576 184.054C445.453 182.883 443.405 181.583 441.443 180.161C437.261 177.143 433.482 173.603 430.197 169.627L424.967 129.074L445.899 125.72L448.286 145.24L457.849 130.538L476.023 142.363Z" fill="#4285F4"/>
<path d="M478.943 111.715C481.227 111.866 483.496 111.252 485.393 109.97C485.458 109.926 485.535 109.901 485.615 109.899C485.694 109.897 485.772 109.918 485.84 109.959C485.908 109.999 485.963 110.059 485.998 110.13C486.034 110.2 486.048 110.28 486.04 110.359C485.887 111.708 485.221 114.189 482.39 114.505C480.563 114.709 479.238 113.306 478.571 112.372C478.525 112.308 478.498 112.231 478.494 112.152C478.49 112.073 478.508 111.994 478.547 111.925C478.586 111.856 478.644 111.799 478.714 111.762C478.784 111.725 478.864 111.708 478.943 111.715Z" fill="white"/>
<path d="M529.273 161.358C525.593 167.703 520.795 173.329 515.113 177.966C513.793 179.038 512.43 180.057 511.026 181.023L501.3 144.023L523.203 138.262L529.273 161.358Z" fill="#4285F4"/>
<path d="M511.238 180.879C511.169 180.924 511.093 180.975 511.025 181.023C510.957 181.071 510.886 181.12 510.817 181.164L503.404 152.977L503.872 152.855L511.238 180.879Z" fill="#0C0C0C"/>
<path d="M458.123 171.26C458.063 171.258 458.006 171.233 457.963 171.19C457.92 171.148 457.895 171.091 457.892 171.03L457.414 160.526C457.411 160.463 457.434 160.4 457.477 160.353C457.52 160.306 457.581 160.278 457.644 160.275C457.708 160.272 457.771 160.294 457.818 160.338C457.865 160.381 457.893 160.441 457.896 160.505L458.374 171.009C458.377 171.072 458.354 171.135 458.311 171.182C458.268 171.229 458.208 171.257 458.144 171.26H458.123Z" fill="#0C0C0C"/>
<path d="M277.981 268.459C312.074 268.459 339.712 240.821 339.712 206.729C339.712 172.637 312.074 145 277.981 145C243.889 145 216.251 172.637 216.251 206.729C216.251 240.821 243.889 268.459 277.981 268.459Z" fill="white"/>
<path opacity="0.09" d="M339.713 206.728C339.713 218.936 336.093 230.871 329.31 241.022C322.527 251.173 312.886 259.085 301.606 263.757C290.327 268.429 277.915 269.652 265.941 267.27C253.966 264.888 242.967 259.009 234.334 250.376C225.701 241.743 219.822 230.744 217.44 218.77C215.058 206.796 216.281 194.384 220.953 183.105C225.625 171.826 233.537 162.185 243.688 155.402C253.84 148.619 265.774 144.999 277.983 144.999C286.098 144.969 294.139 146.545 301.642 149.637C309.145 152.728 315.962 157.274 321.7 163.012C327.438 168.75 331.984 175.567 335.075 183.07C338.167 190.572 339.743 198.613 339.713 206.728Z" fill="#4285F4"/>
<path d="M250.657 170.319C250.657 170.319 250.036 179.638 247.939 183.019C241.904 192.752 240.155 203.701 246.199 209.423C252.244 215.145 290.796 215.223 293.716 202.066C296.173 190.988 290.898 189.797 289.615 180.659C289.034 176.525 287.435 167.855 287.435 167.855" fill="#0A0A0A"/>
<path d="M283.738 200.135C283.671 200.126 282.933 212.38 268.698 211.313C258.843 210.575 255.329 200.119 255.104 200.119C256.166 199.894 257.955 199.565 258.428 199.314C259.98 198.48 261.9 197.612 262.4 194.599C262.689 192.864 262.199 183.976 262.352 182.219L277.479 185.595C277.268 189.305 275.788 197.911 280.973 199.433C281.833 199.683 282.762 199.915 283.738 200.135Z" fill="#E98862"/>
<path opacity="0.5" d="M277.686 195.915C277.45 195.152 277.297 194.364 277.232 193.568C277.065 191.749 277.098 189.918 277.33 188.107C274.256 187.692 271.359 186.424 268.97 184.445C268.689 185.482 267.144 190.015 267.573 191.001C268.383 192.864 272.179 195.915 277.686 195.915Z" fill="#0C0C0C"/>
<path d="M275.731 192.098C269.767 192.676 262.05 190.289 260.452 182.347L259.01 175.181C257.411 167.239 260.287 159.961 267.764 158.456C275.243 156.951 282.128 162.263 283.726 170.207L284.365 173.379C284.979 176.426 286.372 191.068 275.731 192.098Z" fill="#E98862"/>
<path opacity="0.1" d="M271.94 181.693C272.921 181.576 273.647 180.897 273.561 180.177C273.475 179.457 272.61 178.968 271.628 179.085C270.647 179.202 269.921 179.881 270.007 180.601C270.093 181.321 270.958 181.81 271.94 181.693Z" fill="#0C0C0C"/>
<path opacity="0.1" d="M282.311 178.813C282.4 179.531 283.264 180.017 284.246 179.903C284.416 179.883 284.583 179.845 284.745 179.791C284.79 178.934 284.793 178.109 284.768 177.345C284.495 177.277 284.212 177.261 283.934 177.297C282.952 177.412 282.227 178.091 282.311 178.813Z" fill="#0C0C0C"/>
<path opacity="0.5" d="M277.974 181.034H277.988C278.291 180.97 278.59 180.89 278.884 180.793C279.323 180.649 279.896 180.405 279.818 180.008C279.727 179.556 277.505 174.923 277.251 174.396C277.228 174.352 277.188 174.32 277.141 174.305C277.094 174.29 277.043 174.293 276.999 174.315C276.954 174.336 276.92 174.374 276.902 174.42C276.885 174.466 276.885 174.517 276.904 174.562C277.852 176.538 279.379 179.78 279.44 180.084C279.392 180.226 278.664 180.504 277.912 180.656C277.864 180.666 277.822 180.695 277.795 180.736C277.768 180.776 277.757 180.826 277.765 180.874C277.773 180.923 277.799 180.966 277.837 180.996C277.876 181.026 277.925 181.04 277.974 181.035V181.034Z" fill="#0C0C0C"/>
<path d="M253.044 177.753L259.749 176.444C264.813 174.324 266.25 165.5 266.25 165.5C266.25 165.5 272.499 171.452 287.436 167.853C287.436 167.853 284.192 147.002 262.136 153.331C255.024 155.371 249.987 162.621 250.736 172.221C251.261 178.951 253.044 177.753 253.044 177.753Z" fill="#0A0A0A"/>
<path d="M261.403 184.673C259.131 185.131 256.799 183.07 256.344 180.798C255.888 178.525 257.476 176.901 259.749 176.444L261.226 177.731L263.359 184.28L261.403 184.673Z" fill="#E98862"/>
<path d="M278.864 170.701C279.432 170.298 280.097 170.054 280.791 169.993C281.139 169.959 281.491 169.979 281.833 170.05C282.179 170.12 282.514 170.234 282.831 170.387L282.842 170.392C282.877 170.406 282.916 170.406 282.951 170.392C282.986 170.378 283.014 170.352 283.03 170.318C283.046 170.283 283.049 170.244 283.037 170.209C283.025 170.173 283 170.143 282.967 170.125C282.631 169.948 282.273 169.813 281.903 169.725C281.531 169.634 281.147 169.6 280.765 169.624C279.991 169.667 279.242 169.916 278.597 170.347C278.572 170.363 278.55 170.383 278.533 170.408C278.516 170.432 278.505 170.46 278.499 170.489C278.493 170.518 278.493 170.548 278.498 170.577C278.504 170.606 278.516 170.633 278.533 170.658C278.549 170.682 278.571 170.703 278.596 170.719C278.621 170.735 278.648 170.746 278.678 170.751C278.707 170.756 278.737 170.755 278.766 170.749C278.795 170.742 278.822 170.729 278.846 170.712L278.851 170.709L278.864 170.701Z" fill="#0C0C0C"/>
<path d="M272.74 171.547C271.978 171.396 271.19 171.451 270.458 171.708C270.096 171.833 269.755 172.012 269.446 172.238C269.138 172.461 268.86 172.722 268.617 173.015C268.592 173.044 268.58 173.082 268.582 173.12C268.585 173.158 268.602 173.194 268.63 173.219C268.658 173.245 268.695 173.259 268.734 173.258C268.772 173.257 268.808 173.241 268.835 173.214L268.842 173.205C269.076 172.941 269.343 172.708 269.635 172.511C269.924 172.314 270.241 172.161 270.576 172.059C271.241 171.85 271.949 171.821 272.628 171.975L272.645 171.979C272.673 171.987 272.703 171.988 272.732 171.984C272.761 171.98 272.789 171.97 272.814 171.955C272.84 171.94 272.862 171.92 272.879 171.897C272.897 171.873 272.909 171.846 272.916 171.817C272.923 171.789 272.924 171.759 272.92 171.73C272.915 171.701 272.905 171.673 272.889 171.648C272.873 171.623 272.853 171.601 272.829 171.585C272.805 171.568 272.777 171.556 272.749 171.549L272.74 171.547Z" fill="#0C0C0C"/>
<path d="M259.752 176.334C264.258 174.657 265.754 171.544 266.215 169.228C266.513 167.684 266.485 166.094 266.133 164.561L265.993 164.599C266.34 166.113 266.367 167.682 266.072 169.206C265.617 171.483 264.144 174.546 259.701 176.198L259.752 176.334Z" fill="#0C0C0C"/>
<path d="M316.729 197.695L319.427 188.54C319.486 188.339 319.587 188.152 319.722 187.992C319.858 187.832 320.025 187.702 320.213 187.61C320.402 187.518 320.607 187.466 320.817 187.458C321.026 187.449 321.235 187.485 321.43 187.562C321.786 187.715 322.072 187.995 322.233 188.347C322.394 188.699 322.418 189.099 322.302 189.468L321.724 191.431L326.375 186.093C326.882 185.49 327.889 185.075 328.527 185.688C328.788 185.908 328.967 186.21 329.035 186.544C329.102 186.879 329.054 187.227 328.899 187.53C328.905 187.534 328.912 187.538 328.918 187.542C328.922 187.547 328.925 187.551 328.928 187.556L329.71 186.627C329.855 186.455 330.036 186.317 330.241 186.224C330.446 186.131 330.669 186.085 330.893 186.089C331.118 186.093 331.339 186.148 331.54 186.248C331.742 186.348 331.918 186.492 332.057 186.669C332.269 186.953 332.378 187.3 332.365 187.654C332.352 188.008 332.218 188.347 331.985 188.613L331.652 189.009C331.66 189.024 331.664 189.041 331.665 189.057C331.951 188.842 332.305 188.736 332.663 188.758C333.02 188.78 333.359 188.929 333.617 189.177C333.891 189.457 334.05 189.83 334.062 190.222C334.073 190.614 333.937 190.996 333.679 191.292L332.853 192.274C332.874 192.268 332.896 192.268 332.918 192.272C332.94 192.277 332.96 192.287 332.977 192.301C332.997 192.319 333.011 192.342 333.017 192.368C333.326 192.248 333.666 192.232 333.984 192.324C334.303 192.416 334.582 192.61 334.779 192.876C334.981 193.16 335.081 193.503 335.064 193.85C335.047 194.198 334.912 194.529 334.683 194.791L327.714 203.078C326.739 204.237 325.44 205.079 323.983 205.495C322.527 205.911 320.98 205.882 319.539 205.413C318.298 205.009 317.263 204.136 316.654 202.98C316.046 201.825 315.912 200.478 316.281 199.225L316.729 197.695Z" fill="#E98862"/>
<g opacity="0.2">
<path d="M324.32 192.838C324.348 192.861 324.383 192.872 324.419 192.869C324.455 192.866 324.488 192.849 324.512 192.823L328.929 187.741C328.953 187.713 328.965 187.676 328.963 187.639C328.96 187.603 328.943 187.568 328.915 187.544C328.887 187.52 328.85 187.508 328.814 187.51C328.777 187.513 328.742 187.53 328.718 187.558L324.302 192.639C324.29 192.653 324.281 192.669 324.275 192.687C324.269 192.704 324.267 192.722 324.268 192.741C324.269 192.759 324.274 192.777 324.282 192.793C324.291 192.809 324.302 192.824 324.316 192.836L324.32 192.838Z" fill="#0C0C0C"/>
</g>
<g opacity="0.2">
<path d="M326.507 194.848C326.535 194.871 326.57 194.882 326.606 194.879C326.642 194.876 326.676 194.859 326.699 194.832L331.628 189.161C331.64 189.147 331.649 189.131 331.655 189.114C331.661 189.096 331.663 189.078 331.662 189.06C331.661 189.041 331.656 189.024 331.647 189.007C331.639 188.991 331.628 188.976 331.614 188.964C331.586 188.941 331.549 188.93 331.513 188.932C331.477 188.935 331.442 188.951 331.417 188.978L326.492 194.649C326.48 194.663 326.471 194.679 326.465 194.697C326.459 194.714 326.457 194.732 326.458 194.75C326.46 194.769 326.465 194.787 326.473 194.803C326.481 194.819 326.492 194.834 326.506 194.846L326.507 194.848Z" fill="#0C0C0C"/>
</g>
<g opacity="0.2">
<path d="M328.863 197.038C328.89 197.061 328.926 197.072 328.962 197.069C328.998 197.066 329.031 197.05 329.055 197.023L332.987 192.499C333.009 192.471 333.019 192.435 333.016 192.4C333.012 192.364 332.995 192.331 332.968 192.308C332.941 192.285 332.906 192.272 332.871 192.274C332.835 192.275 332.801 192.29 332.776 192.316L328.845 196.84C328.833 196.854 328.824 196.87 328.818 196.887C328.812 196.905 328.81 196.923 328.811 196.941C328.812 196.959 328.817 196.977 328.825 196.994C328.833 197.01 328.845 197.025 328.859 197.037L328.863 197.038Z" fill="#0C0C0C"/>
</g>
<path d="M333.151 201.691L322.719 249.016C322.695 249.122 322.671 249.233 322.642 249.339C320.299 251.79 317.761 254.048 315.053 256.089C314.508 256.494 313.964 256.894 313.405 257.279C313.059 257.318 312.712 257.337 312.364 257.337C310.505 257.336 308.679 256.847 307.068 255.917C305.458 254.988 304.121 253.651 303.19 252.042L283.31 217.642L301.668 207.037L307.888 217.802L312.446 197.126L333.151 201.691Z" fill="#34A853"/>
<path d="M301.046 223.267C300.983 224.018 300.858 225.358 300.684 227.122C299.817 236.137 297.789 256.229 296.849 265.514C284.979 269.308 272.241 269.438 260.297 265.885H260.292C251.471 263.244 243.354 258.661 236.538 252.471C236.576 244.169 236.456 234.831 235.897 228.827C234.225 210.888 235.805 208.08 238.402 205.483C238.614 205.271 238.836 205.063 239.058 204.861C241.741 202.423 245.109 200.833 250.019 200.168C253.267 199.73 258.153 199.412 258.153 199.412C258.153 199.412 258.567 207.785 268.43 208.248C281.859 208.88 280.963 199.412 281.03 199.412C284.408 199.412 291.925 199.624 296.666 202.038C296.671 202.038 296.671 202.038 296.676 202.042C297.63 202.507 298.499 203.131 299.244 203.888C304.674 209.641 301.995 212.101 301.046 223.267Z" fill="#34A853"/>
<path d="M279.973 182.6C278.035 183.585 275.824 183.897 273.689 183.486C273.616 183.472 273.539 183.479 273.469 183.507C273.399 183.534 273.339 183.582 273.295 183.643C273.251 183.704 273.225 183.776 273.22 183.851C273.216 183.926 273.233 184.001 273.269 184.067C273.907 185.188 275.415 187.105 278.005 186.324C279.677 185.819 280.309 184.099 280.543 183.035C280.559 182.961 280.554 182.885 280.528 182.814C280.502 182.743 280.457 182.681 280.397 182.635C280.337 182.59 280.265 182.562 280.19 182.556C280.115 182.55 280.039 182.565 279.973 182.6Z" fill="white"/>
<path d="M280.093 173.982C280.611 173.982 281.03 173.563 281.03 173.046C281.03 172.529 280.611 172.109 280.093 172.109C279.576 172.109 279.157 172.529 279.157 173.046C279.157 173.563 279.576 173.982 280.093 173.982Z" fill="#0C0C0C"/>
<path d="M271.097 175.557C271.614 175.557 272.034 175.138 272.034 174.621C272.034 174.103 271.614 173.684 271.097 173.684C270.58 173.684 270.161 174.103 270.161 174.621C270.161 175.138 270.58 175.557 271.097 175.557Z" fill="#0C0C0C"/>
<path d="M298.976 243.478C298.97 243.478 298.964 243.478 298.958 243.478C298.92 243.472 298.885 243.452 298.862 243.422C298.839 243.391 298.829 243.353 298.834 243.315L300.489 226.639C300.492 226.62 300.498 226.602 300.507 226.585C300.517 226.569 300.53 226.554 300.545 226.543C300.56 226.531 300.578 226.523 300.596 226.518C300.615 226.513 300.634 226.513 300.653 226.516C300.691 226.521 300.725 226.541 300.748 226.572C300.771 226.602 300.781 226.641 300.776 226.679L299.121 243.354C299.116 243.389 299.098 243.42 299.072 243.443C299.045 243.466 299.011 243.478 298.976 243.478Z" fill="#0C0C0C"/>
<path d="M288.958 242.674L298.004 238.634C298.203 238.546 298.418 238.5 298.635 238.499C298.852 238.498 299.068 238.542 299.267 238.629C299.466 238.716 299.646 238.843 299.793 239.003C299.941 239.162 300.053 239.351 300.124 239.557C300.243 239.941 300.215 240.355 300.046 240.719C299.877 241.084 299.579 241.373 299.209 241.53L297.269 242.397L304.62 242.473C305.439 242.467 306.444 242.983 306.39 243.9C306.392 244.254 306.274 244.599 306.056 244.878C305.837 245.157 305.53 245.353 305.185 245.435C305.187 245.443 305.189 245.45 305.189 245.458C305.188 245.464 305.187 245.47 305.185 245.476L306.446 245.467C306.679 245.466 306.91 245.516 307.121 245.615C307.332 245.714 307.519 245.859 307.667 246.039C307.815 246.219 307.922 246.429 307.978 246.656C308.035 246.882 308.04 247.118 307.994 247.346C307.913 247.705 307.712 248.025 307.424 248.253C307.135 248.481 306.777 248.603 306.41 248.599L305.873 248.603C305.866 248.619 305.857 248.633 305.845 248.645C306.208 248.727 306.53 248.934 306.753 249.232C306.977 249.529 307.088 249.896 307.066 250.267C307.03 250.673 306.842 251.05 306.54 251.323C306.238 251.596 305.845 251.746 305.437 251.742L304.105 251.751C304.124 251.764 304.14 251.781 304.15 251.802C304.161 251.822 304.167 251.845 304.167 251.868C304.166 251.895 304.157 251.922 304.142 251.944C304.445 252.107 304.687 252.365 304.829 252.678C304.972 252.991 305.007 253.343 304.93 253.679C304.843 254.029 304.64 254.34 304.354 254.56C304.068 254.781 303.716 254.899 303.354 254.894L292.114 254.974C290.541 254.985 289.001 254.527 287.691 253.657C286.381 252.787 285.36 251.546 284.76 250.092C284.242 248.839 284.234 247.433 284.736 246.173C285.238 244.914 286.212 243.9 287.45 243.347L288.958 242.674Z" fill="#E98862"/>
<g opacity="0.2">
<path d="M297.91 245.396C297.91 245.434 297.925 245.471 297.952 245.498C297.98 245.525 298.016 245.54 298.055 245.54L305.045 245.603C305.084 245.604 305.12 245.589 305.148 245.562C305.175 245.535 305.191 245.498 305.191 245.46C305.191 245.422 305.176 245.385 305.149 245.357C305.123 245.33 305.086 245.314 305.048 245.314L298.056 245.251C298.018 245.251 297.981 245.266 297.954 245.293C297.927 245.32 297.912 245.357 297.912 245.396H297.91Z" fill="#0C0C0C"/>
</g>
<g opacity="0.2">
<path d="M297.796 248.479C297.796 248.517 297.812 248.554 297.839 248.581C297.866 248.608 297.903 248.624 297.941 248.624L305.742 248.694C305.78 248.694 305.817 248.679 305.844 248.652C305.871 248.624 305.886 248.588 305.886 248.549C305.885 248.511 305.87 248.475 305.843 248.448C305.816 248.421 305.78 248.406 305.742 248.405L297.94 248.334C297.902 248.334 297.865 248.35 297.838 248.377C297.811 248.404 297.796 248.441 297.796 248.479H297.796Z" fill="#0C0C0C"/>
</g>
<g opacity="0.2">
<path d="M297.654 251.815C297.654 251.853 297.67 251.89 297.697 251.917C297.724 251.944 297.761 251.96 297.799 251.96L304.022 252.016C304.06 252.016 304.097 252.001 304.124 251.974C304.151 251.946 304.166 251.91 304.166 251.871C304.166 251.833 304.151 251.796 304.124 251.769C304.097 251.742 304.06 251.727 304.022 251.727L297.799 251.671C297.761 251.671 297.724 251.686 297.697 251.713C297.67 251.74 297.654 251.777 297.654 251.815V251.815Z" fill="#0C0C0C"/>
</g>
<path d="M291.549 258.783L260.297 265.885H260.292C251.471 263.245 243.354 258.661 236.538 252.471C235.805 251.806 235.089 251.125 234.389 250.427C233.168 249.209 232 247.942 230.886 246.626L235.261 211.433C235.738 208.596 237.323 206.065 239.666 204.397C242.01 202.728 244.92 202.059 247.757 202.536C250.594 203.014 253.125 204.598 254.794 206.942C256.462 209.285 257.132 212.196 256.654 215.033L253.889 248.076L288.735 240.188L291.549 258.783Z" fill="#34A853"/>
<path d="M246.838 249.375C246.819 249.376 246.8 249.374 246.782 249.368C246.764 249.362 246.747 249.352 246.733 249.34C246.719 249.327 246.707 249.312 246.698 249.295C246.69 249.278 246.684 249.26 246.683 249.241C246.682 249.222 246.684 249.203 246.69 249.185C246.696 249.167 246.705 249.15 246.718 249.135C246.73 249.121 246.745 249.109 246.762 249.101C246.779 249.092 246.798 249.087 246.817 249.085L253.803 247.592C253.822 247.589 253.841 247.59 253.86 247.594C253.878 247.599 253.896 247.607 253.911 247.618C253.926 247.63 253.939 247.644 253.949 247.66C253.959 247.676 253.965 247.694 253.968 247.713C253.971 247.732 253.97 247.751 253.965 247.77C253.961 247.788 253.953 247.805 253.941 247.821C253.93 247.836 253.916 247.849 253.899 247.859C253.883 247.868 253.865 247.875 253.846 247.877L246.857 249.371C246.851 249.373 246.845 249.374 246.838 249.375Z" fill="#0C0C0C"/>
<path d="M291.551 258.783C291.559 258.82 291.552 258.859 291.533 258.891C291.513 258.923 291.482 258.946 291.445 258.956L261.085 266.112C260.892 266.058 260.704 266.006 260.516 265.947L291.233 258.715L288.496 240.406L253.857 247.879C253.835 247.882 253.812 247.881 253.79 247.874C253.768 247.868 253.748 247.856 253.732 247.841C253.717 247.823 253.707 247.803 253.7 247.782C253.693 247.76 253.691 247.738 253.693 247.715L255.635 228.832C255.638 228.814 255.645 228.796 255.656 228.78C255.666 228.764 255.68 228.75 255.695 228.739C255.711 228.729 255.729 228.721 255.747 228.717C255.766 228.713 255.785 228.713 255.804 228.716C255.841 228.722 255.875 228.743 255.898 228.774C255.92 228.804 255.93 228.843 255.924 228.881L254.011 247.571L288.559 240.083C288.578 240.078 288.597 240.077 288.616 240.08C288.636 240.084 288.654 240.091 288.67 240.102C288.686 240.111 288.701 240.124 288.712 240.138C288.724 240.153 288.732 240.17 288.737 240.189L291.551 258.783Z" fill="#0C0C0C"/>
<path d="M56.6032 339.582C87.8643 339.582 113.206 314.241 113.206 282.98C113.206 251.719 87.8643 226.377 56.6032 226.377C25.3421 226.377 0 251.719 0 282.98C0 314.241 25.3421 339.582 56.6032 339.582Z" fill="white"/>
<path opacity="0.09" d="M56.6032 339.582C87.8643 339.582 113.206 314.241 113.206 282.98C113.206 251.719 87.8643 226.377 56.6032 226.377C25.3421 226.377 0 251.719 0 282.98C0 314.241 25.3421 339.582 56.6032 339.582Z" fill="#4285F4"/>
<path d="M41.0166 250.875C41.0166 250.875 41.63 267.923 53.0085 268.706L54.9359 246.226L41.0166 250.875Z" fill="#0A0A0A"/>
<path d="M43.2087 272.188C46.9315 272.188 49.9496 269.17 49.9496 265.448C49.9496 261.725 46.9315 258.707 43.2087 258.707C39.4858 258.707 36.4678 261.725 36.4678 265.448C36.4678 269.17 39.4858 272.188 43.2087 272.188Z" fill="#0A0A0A"/>
<path d="M69.5832 276.618C69.523 276.61 68.8571 287.664 56.0152 286.701C47.1248 286.036 43.9553 276.604 43.752 276.604C44.7679 276.435 45.7701 276.192 46.7504 275.877C48.1502 275.125 49.8824 274.342 50.3334 271.624C50.5935 270.057 50.1527 262.041 50.2881 260.455L63.9346 263.501C63.7419 266.849 62.4091 274.611 67.0868 275.985C67.8645 276.212 68.7029 276.421 69.5832 276.618Z" fill="#E98862"/>
<path opacity="0.5" d="M64.1252 272.812C63.9113 272.122 63.7737 271.411 63.7147 270.692C63.5649 269.052 63.5947 267.4 63.8039 265.766C61.0302 265.392 58.4172 264.247 56.2617 262.462C56.0082 263.397 54.6148 267.487 55.0007 268.376C55.7302 270.06 59.1575 272.812 64.1252 272.812Z" fill="#0C0C0C"/>
<path d="M61.9889 269.834C56.5842 269.903 49.8274 267.175 48.99 259.915L48.2344 253.362C47.3965 246.102 50.5309 239.775 57.3672 238.988C64.203 238.2 69.9913 243.495 70.8292 250.756L71.1636 253.656C71.485 256.444 71.6324 269.711 61.9889 269.834Z" fill="#E98862"/>
<path d="M69.203 253.461C69.6711 253.461 70.0506 253.082 70.0506 252.614C70.0506 252.146 69.6711 251.766 69.203 251.766C68.7349 251.766 68.3555 252.146 68.3555 252.614C68.3555 253.082 68.7349 253.461 69.203 253.461Z" fill="#0C0C0C"/>
<path d="M60.5409 254.452C61.009 254.452 61.3885 254.073 61.3885 253.605C61.3885 253.137 61.009 252.757 60.5409 252.757C60.0728 252.757 59.6934 253.137 59.6934 253.605C59.6934 254.073 60.0728 254.452 60.5409 254.452Z" fill="#0C0C0C"/>
<path opacity="0.5" d="M64.8391 260.057H64.8526C65.1295 260.023 65.4044 259.974 65.676 259.91C66.0817 259.811 66.6166 259.638 66.5747 259.274C66.5265 258.861 64.8791 254.528 64.6912 254.035C64.683 254.014 64.6708 253.995 64.6551 253.978C64.6395 253.962 64.6207 253.948 64.5999 253.939C64.5791 253.93 64.5567 253.925 64.5339 253.924C64.5111 253.923 64.4884 253.927 64.4671 253.935C64.4458 253.943 64.4263 253.956 64.4098 253.971C64.3932 253.987 64.3799 254.006 64.3706 254.027C64.3613 254.047 64.3562 254.07 64.3555 254.093C64.3549 254.115 64.3588 254.138 64.3669 254.159C65.0699 256.004 66.1979 259.036 66.2297 259.315C65.796 259.559 65.31 259.696 64.8126 259.713C64.7667 259.716 64.7241 259.738 64.6942 259.773C64.6642 259.808 64.6493 259.853 64.6529 259.899C64.6564 259.945 64.678 259.988 64.7129 260.018C64.7478 260.047 64.7932 260.062 64.8391 260.059V260.057Z" fill="#0C0C0C"/>
<path opacity="0.5" d="M63.6176 263.079C64.7279 263.016 65.8078 262.692 66.7703 262.135C66.8082 262.112 66.8356 262.074 66.8469 262.031C66.8581 261.988 66.8523 261.942 66.8307 261.903C66.8092 261.864 66.7734 261.835 66.7308 261.822C66.6883 261.808 66.6422 261.812 66.6021 261.831C64.5235 262.981 62.5354 263.048 60.8538 262.024C60.8199 262.002 60.7848 261.982 60.7488 261.964C60.7071 261.948 60.6608 261.948 60.6194 261.965C60.5781 261.982 60.5449 262.015 60.5267 262.056C60.5086 262.096 60.5068 262.143 60.5219 262.185C60.5369 262.227 60.5676 262.262 60.6076 262.282C60.6206 262.288 60.6428 262.302 60.6731 262.321C61.5572 262.861 62.5825 263.125 63.6176 263.079Z" fill="#0C0C0C"/>
<path d="M42.6752 255.225L48.8007 254.554C53.5126 253.032 55.4703 245.206 55.4703 245.206C55.4703 245.206 59.6926 250.008 72.205 247.815C72.205 247.815 71.7202 231.685 52.6906 233.956C46.0649 234.747 41.0687 241.392 41.0172 250.08C40.9815 256.168 42.6752 255.225 42.6752 255.225Z" fill="#0A0A0A"/>
<path d="M49.6696 262.078C47.5919 262.319 45.6516 260.29 45.4121 258.212C45.1726 256.134 46.7241 254.795 48.8018 254.555L50.0329 255.824L51.4558 261.872L49.6696 262.078Z" fill="#E98862"/>
<path d="M66.2058 250.499C66.8185 250.16 67.5111 249.992 68.2112 250.012C68.5568 250.019 68.8994 250.079 69.2274 250.188C69.5532 250.296 69.8641 250.443 70.153 250.628C70.1819 250.647 70.2026 250.676 70.2108 250.709C70.2189 250.742 70.214 250.777 70.1969 250.807C70.1798 250.837 70.1519 250.859 70.1191 250.868C70.0862 250.878 70.0509 250.874 70.0205 250.859L70.0118 250.854C69.7382 250.691 69.4451 250.564 69.1397 250.475C68.8371 250.384 68.5226 250.34 68.2068 250.344C67.5785 250.347 66.9623 250.517 66.4207 250.835L66.4077 250.843C66.3853 250.858 66.3602 250.868 66.3338 250.873C66.3075 250.878 66.2804 250.877 66.2543 250.871C66.2282 250.865 66.2035 250.854 66.1817 250.839C66.16 250.823 66.1416 250.803 66.1277 250.78C66.1138 250.757 66.1046 250.732 66.1007 250.705C66.0969 250.679 66.0984 250.652 66.1052 250.626C66.1119 250.6 66.1239 250.576 66.1403 250.555C66.1566 250.533 66.1771 250.516 66.2005 250.503L66.2058 250.499Z" fill="#0C0C0C"/>
<path d="M60.7165 251.509C60.1175 251.319 59.4788 251.292 58.8658 251.43C58.557 251.497 58.2602 251.611 57.9855 251.767C57.7078 251.922 57.4508 252.112 57.2203 252.331L57.2131 252.338C57.1869 252.357 57.1545 252.366 57.122 252.363C57.0895 252.36 57.0592 252.346 57.0369 252.322C57.0146 252.298 57.0019 252.267 57.001 252.234C57.0002 252.202 57.0113 252.17 57.0324 252.145C57.2726 251.9 57.5426 251.687 57.8361 251.51C58.1314 251.33 58.452 251.195 58.7872 251.11C59.4652 250.935 60.1779 250.944 60.8509 251.138C60.877 251.144 60.9014 251.156 60.9227 251.172C60.944 251.189 60.9618 251.209 60.9751 251.233C60.9883 251.256 60.9967 251.282 60.9997 251.308C61.0028 251.335 61.0004 251.362 60.9927 251.388C60.9851 251.414 60.9723 251.437 60.9552 251.458C60.938 251.479 60.9169 251.496 60.8931 251.508C60.8692 251.52 60.8431 251.528 60.8163 251.53C60.7895 251.532 60.7626 251.528 60.7372 251.52H60.7319L60.7165 251.509Z" fill="#0C0C0C"/>
<path opacity="0.52" d="M63.7352 264.721C63.9361 264.712 64.136 264.687 64.3326 264.645C64.3764 264.634 64.4142 264.607 64.4381 264.568C64.4621 264.53 64.4703 264.484 64.4609 264.44C64.4516 264.396 64.4256 264.357 64.3883 264.332C64.3509 264.307 64.3053 264.297 64.2609 264.305C63.9538 264.395 63.6311 264.418 63.3143 264.373C62.9976 264.328 62.6941 264.216 62.4241 264.044C62.3884 264.015 62.3427 264.001 62.2969 264.006C62.251 264.01 62.2089 264.033 62.1798 264.069C62.1507 264.104 62.1369 264.15 62.1415 264.196C62.1461 264.242 62.1687 264.284 62.2044 264.313C62.6522 264.622 63.1931 264.766 63.7352 264.721Z" fill="#0C0C0C"/>
<path opacity="0.1" d="M59.3664 260.192C60.2576 260.16 60.9615 259.605 60.9386 258.951C60.9158 258.298 60.1748 257.793 59.2836 257.824C58.3924 257.856 57.6885 258.411 57.7114 259.064C57.7342 259.718 58.4753 260.223 59.3664 260.192Z" fill="#0C0C0C"/>
<path opacity="0.1" d="M68.9047 258.387C68.9298 259.04 69.6704 259.544 70.5618 259.514C70.7158 259.509 70.8689 259.487 71.0185 259.45C71.1241 258.683 71.1886 257.942 71.2238 257.254C70.9838 257.172 70.7307 257.136 70.4774 257.147C69.588 257.177 68.8845 257.73 68.9047 258.387Z" fill="#0C0C0C"/>
<path d="M88.7623 288.261C88.7238 292.121 87.3987 296.722 86.9265 302.282C86.8012 303.766 83.6158 308.06 83.1533 312.834C82.5702 318.915 83.8668 328.398 84.0403 332.498C75.0869 337.452 64.9588 339.889 54.7317 339.55C44.5046 339.21 34.5603 336.107 25.955 330.571C25.7237 320.038 25.449 307.033 25.0973 303.916C23.9553 293.624 24.2637 287.114 25.9116 284.069C28.6051 279.097 33.3993 277.579 38.4152 276.895C41.4797 276.48 46.0813 276.187 46.0813 276.187C46.0813 276.187 46.4715 284.074 55.771 284.513C68.4288 285.11 67.5856 276.187 67.6482 276.187C72.2401 276.187 80.9421 277.285 84.2764 279.559C87.8131 281.964 88.8057 284.816 88.7623 288.261Z" fill="#FBBC04"/>
<path d="M45.0301 294.265L27.8574 331.74C21.2639 327.847 15.5272 322.659 10.9932 316.49L25.3182 285.229L45.0301 294.265Z" fill="#FBBC04"/>
<path d="M102.633 315.923C99.2685 320.616 95.2082 324.769 90.5916 328.238C89.0722 329.386 87.4944 330.453 85.8648 331.438L68.2393 292.689L87.9753 283.708L102.633 315.923Z" fill="#FBBC04"/>
<path d="M174.404 117.864C206.951 117.864 233.337 91.4793 233.337 58.9321C233.337 26.3848 206.951 0 174.404 0C141.856 0 115.471 26.3848 115.471 58.9321C115.471 91.4793 141.856 117.864 174.404 117.864Z" fill="white"/>
<path opacity="0.09" d="M174.404 117.864C206.951 117.864 233.337 91.4793 233.337 58.9321C233.337 26.3848 206.951 0 174.404 0C141.856 0 115.471 26.3848 115.471 58.9321C115.471 91.4793 141.856 117.864 174.404 117.864Z" fill="#4285F4"/>
<path d="M185.8 23.642C185.8 23.642 189.532 19.5976 189.243 11.8941C189.02 5.92951 184.338 10.6673 184.338 10.6673C184.338 10.6673 184.136 6.37424 181.158 7.34271C178.181 8.31119 177.266 13.0254 177.266 13.0254" fill="#0C0C0C"/>
<path d="M165.458 10.6914C165.458 10.6914 150.595 15.0592 159.792 34.6051L161.149 34.4519L163.904 34.1416" fill="#0C0C0C"/>
<path d="M186.52 54.8801C186.452 54.8714 185.701 67.3402 171.215 66.2513C161.187 65.5001 157.612 54.8608 157.382 54.8608C158.463 54.631 159.799 54.2826 160.33 54.1627C161.488 53.8941 162.536 53.2794 163.335 52.4006C164.135 51.5217 164.648 50.4202 164.806 49.2427C165.099 47.4753 164.602 38.4333 164.755 36.6453L180.148 40.0807C179.933 43.8578 178.427 52.6131 183.704 54.1627C184.582 54.4195 185.528 54.6556 186.52 54.8801Z" fill="#E98862"/>
<path opacity="0.52" d="M180.363 50.5849C180.122 49.8078 179.967 49.0068 179.9 48.196C179.731 46.3457 179.765 44.4825 180.001 42.6395C176.872 42.2172 173.925 40.9258 171.494 38.9121C171.207 39.9678 169.636 44.5803 170.071 45.5835C170.894 47.48 174.759 50.5849 180.363 50.5849Z" fill="#0C0C0C"/>
<path d="M177.851 46.6152C171.78 47.1611 163.943 44.6802 162.372 36.5874L160.954 29.2852C159.382 21.1905 162.359 13.8065 169.979 12.3273C177.599 10.8476 184.568 16.3024 186.14 24.3952L186.766 27.6278C186.962 28.7414 187.083 29.8672 187.125 30.9972C187.261 33.9845 187.456 38.5248 186.021 41.8812C184.666 45.0507 181.731 46.2668 177.851 46.6152Z" fill="#E98862"/>
<path opacity="0.5" d="M178.77 38.6145C179.882 38.5935 180.973 38.3116 181.956 37.7915C181.977 37.7818 181.997 37.7679 182.012 37.7506C182.028 37.7334 182.041 37.713 182.048 37.6909C182.056 37.6688 182.059 37.6453 182.058 37.6219C182.056 37.5985 182.05 37.5756 182.04 37.5547C182.029 37.5338 182.014 37.5152 181.996 37.5C181.978 37.4849 181.958 37.4736 181.935 37.4667C181.913 37.4599 181.889 37.4576 181.866 37.4601C181.843 37.4626 181.82 37.4698 181.799 37.4812C179.679 38.5514 177.69 38.5412 176.048 37.4552C176.015 37.4322 175.981 37.411 175.946 37.3916C175.925 37.3815 175.903 37.3756 175.88 37.3741C175.857 37.3727 175.835 37.3757 175.813 37.3831C175.791 37.3904 175.771 37.402 175.754 37.417C175.737 37.4321 175.723 37.4504 175.713 37.4708C175.703 37.4913 175.697 37.5136 175.696 37.5363C175.694 37.5591 175.697 37.5819 175.705 37.6035C175.712 37.6251 175.724 37.645 175.739 37.6621C175.754 37.6793 175.772 37.6933 175.792 37.7033C175.805 37.7106 175.827 37.725 175.856 37.7448C176.719 38.3182 177.734 38.621 178.77 38.6145Z" fill="#0C0C0C"/>
<path opacity="0.52" d="M178.823 40.2608C179.025 40.2602 179.225 40.2424 179.423 40.2078C179.446 40.2039 179.467 40.1957 179.487 40.1836C179.506 40.1714 179.523 40.1556 179.536 40.137C179.549 40.1185 179.558 40.0974 179.563 40.0752C179.568 40.053 179.569 40.03 179.565 40.0076C179.561 39.9851 179.553 39.9636 179.541 39.9443C179.529 39.925 179.513 39.9083 179.495 39.8951C179.476 39.882 179.455 39.8726 179.433 39.8675C179.41 39.8625 179.387 39.8618 179.365 39.8657C179.055 39.9434 178.731 39.9541 178.417 39.8971C178.102 39.8401 177.803 39.7167 177.539 39.5351C177.505 39.5058 177.46 39.4913 177.415 39.4946C177.369 39.4979 177.327 39.5189 177.297 39.5529C177.267 39.5869 177.252 39.6314 177.254 39.6767C177.257 39.722 177.277 39.7646 177.31 39.7953C177.745 40.1209 178.28 40.2854 178.823 40.2608Z" fill="#0C0C0C"/>
<path d="M184.316 29.6668C184.844 29.6668 185.272 29.2388 185.272 28.7108C185.272 28.1829 184.844 27.7549 184.316 27.7549C183.788 27.7549 183.36 28.1829 183.36 28.7108C183.36 29.2388 183.788 29.6668 184.316 29.6668Z" fill="#0C0C0C"/>
<path d="M175.02 30.7535C175.548 30.7535 175.976 30.3255 175.976 29.7975C175.976 29.2695 175.548 28.8416 175.02 28.8416C174.492 28.8416 174.064 29.2695 174.064 29.7975C174.064 30.3255 174.492 30.7535 175.02 30.7535Z" fill="#0C0C0C"/>
<path d="M163.325 38.9607C161.009 39.4103 158.651 37.2974 158.201 34.9818C157.751 32.6661 159.381 31.025 161.696 30.5754L163.19 31.8952L165.315 38.5743L163.325 38.9607Z" fill="#E98862"/>
<path d="M164.958 34.8131C164.958 34.8131 163.664 23.1938 167.016 21.8552C169.248 20.9634 175.465 23.2338 180.492 21.2987C182.691 20.4517 184.955 20.6242 185.37 21.6606C185.534 22.0706 185.845 15.6917 181.437 11.6911C177.927 8.50616 168.445 9.14362 164.436 11.122C153.336 16.5999 161.308 31.1661 161.308 31.1661L162.547 35.0285L164.958 34.8131Z" fill="#0C0C0C"/>
<g opacity="0.52">
<path d="M180.193 35.7368H180.208C180.955 35.5923 182.191 35.2709 182.087 34.7124C181.998 34.2494 179.774 29.4966 179.522 28.9565C179.511 28.9335 179.496 28.9129 179.477 28.8957C179.458 28.8786 179.436 28.8654 179.413 28.8567C179.389 28.8481 179.363 28.8443 179.338 28.8454C179.313 28.8466 179.288 28.8527 179.265 28.8635C179.242 28.8743 179.221 28.8895 179.204 28.9083C179.187 28.9271 179.173 28.949 179.165 28.9729C179.156 28.9968 179.152 29.0222 179.154 29.0475C179.155 29.0729 179.161 29.0978 179.172 29.1208C180.157 31.2255 181.646 34.4691 181.707 34.7847C181.659 34.9293 180.911 35.2083 180.138 35.3562C180.087 35.3638 180.041 35.3914 180.01 35.4329C179.98 35.4744 179.967 35.5265 179.974 35.5776C179.982 35.6287 180.009 35.6747 180.051 35.7055C180.092 35.7362 180.144 35.7492 180.196 35.7416L180.193 35.7368Z" fill="#0C0C0C"/>
</g>
<path d="M180.723 24.0911C181.47 23.7329 182.3 23.5831 183.125 23.6575C183.53 23.6916 183.928 23.7861 184.304 23.9379C184.677 24.0859 185.028 24.2801 185.352 24.5161C185.412 24.5576 185.454 24.6208 185.468 24.6924C185.482 24.764 185.468 24.8383 185.429 24.8998C185.39 24.9613 185.328 25.0052 185.257 25.0221C185.186 25.0391 185.111 25.0278 185.048 24.9907L185.027 24.983C184.733 24.7957 184.418 24.646 184.087 24.5373C183.762 24.4288 183.422 24.3701 183.08 24.3634C182.404 24.3446 181.736 24.5046 181.142 24.8274L181.117 24.8414C181.069 24.8689 181.016 24.8867 180.96 24.8937C180.905 24.9007 180.849 24.8968 180.795 24.8822C180.742 24.8675 180.692 24.8424 180.648 24.8083C180.604 24.7743 180.567 24.7319 180.539 24.6836C180.512 24.6352 180.494 24.582 180.487 24.5268C180.48 24.4716 180.484 24.4156 180.498 24.3619C180.513 24.3082 180.538 24.258 180.572 24.214C180.606 24.17 180.649 24.1332 180.697 24.1056L180.723 24.0911Z" fill="#0C0C0C"/>
<path d="M175.242 25.5723C174.592 25.3902 173.904 25.383 173.25 25.5515C172.917 25.6343 172.599 25.767 172.307 25.9452C172.008 26.1246 171.733 26.3407 171.488 26.5884L171.472 26.6039C171.419 26.655 171.349 26.6835 171.275 26.6832C171.202 26.683 171.131 26.654 171.079 26.6026C171.026 26.5511 170.996 26.4812 170.994 26.4077C170.993 26.3342 171.02 26.263 171.07 26.2092C171.332 25.9065 171.632 25.6383 171.962 25.4109C172.295 25.1789 172.662 24.9981 173.049 24.8746C173.436 24.747 173.839 24.6731 174.246 24.6549C174.663 24.6319 175.081 24.6683 175.488 24.7628C175.597 24.7884 175.692 24.8563 175.751 24.9517C175.81 25.0472 175.829 25.1622 175.804 25.2716C175.778 25.381 175.71 25.4757 175.615 25.535C175.519 25.5943 175.404 25.6132 175.295 25.5877L175.27 25.5809L175.242 25.5723Z" fill="#0C0C0C"/>
<path d="M178.174 16.3933C179.827 15.7234 180.367 13.2081 179.381 10.7751C178.395 8.3422 176.256 6.91293 174.603 7.58278C172.95 8.25263 172.41 10.7679 173.396 13.2009C174.382 15.6338 176.521 17.0631 178.174 16.3933Z" fill="#0C0C0C"/>
<path d="M206.539 67.7646C206.597 71.759 205.036 76.2497 204.515 82.3303C204.409 83.5638 204.159 86.2813 203.826 89.8228C203.282 95.6866 202.511 103.796 201.836 111.105C192.189 116.168 181.329 118.462 170.459 117.733C159.588 117.003 149.132 113.278 140.248 106.971C140.036 106.812 139.824 106.658 139.612 106.509C139.048 98.2452 138.383 89.5722 137.776 84.0938C136.634 73.8646 135.078 68.7717 135.95 65.3314C136.02 65.0384 136.113 64.7516 136.229 64.4737C138.74 58.3834 146.733 55.6659 152.149 54.9335C155.455 54.4854 160.427 54.1626 160.427 54.1626C160.427 54.1626 160.846 62.6813 170.883 63.1535C184.548 63.7992 183.637 54.1626 183.705 54.1626C185.916 54.1626 197.967 55.7719 200.979 57.7378C201.484 58.0655 201.966 58.4261 202.424 58.8171C203.733 59.9083 204.781 61.2779 205.493 62.8258C206.205 64.3737 206.562 66.061 206.539 67.7646Z" fill="#383838"/>
<path d="M156.226 73.9418L140.248 106.971C140.036 106.812 139.824 106.658 139.612 106.509C133.419 101.967 128.166 96.2659 124.146 89.7217L135.95 65.3315L136.418 64.363L156.226 73.9418Z" fill="#383838"/>
<path d="M154.685 77.7435L140.152 106.899C140.056 106.827 139.965 106.759 139.868 106.697L154.381 77.5941C154.402 77.5536 154.438 77.5229 154.481 77.5085C154.524 77.4941 154.571 77.4971 154.612 77.517C154.652 77.5375 154.682 77.5728 154.695 77.6153C154.709 77.6578 154.705 77.7039 154.685 77.7435Z" fill="white"/>
<path d="M228.367 82.6581C225.471 89.2224 221.403 95.2046 216.364 100.312L203.827 89.8229L187.902 76.4955L202.425 58.8172L202.468 58.7642L228.367 82.6581Z" fill="#383838"/>
<path d="M204.019 89.9515C204.06 89.9494 204.099 89.9326 204.128 89.9042C204.158 89.8758 204.176 89.8376 204.18 89.7968L205.007 80.0976C205.011 80.0528 204.997 80.0083 204.968 79.9739C204.939 79.9395 204.898 79.9179 204.853 79.914C204.808 79.9108 204.764 79.9251 204.73 79.9539C204.696 79.9827 204.674 80.0237 204.67 80.0682L203.842 89.7679C203.839 89.8126 203.853 89.857 203.882 89.8913C203.911 89.9256 203.952 89.9471 203.997 89.951L204.019 89.9515Z" fill="white"/>
<path d="M451.903 373.056C482.947 373.056 508.113 347.891 508.113 316.848C508.113 285.804 482.947 260.639 451.903 260.639C420.859 260.639 395.693 285.804 395.693 316.848C395.693 347.891 420.859 373.056 451.903 373.056Z" fill="white"/>
<path opacity="0.09" d="M395.693 316.846C395.693 327.963 398.989 338.83 405.165 348.074C411.342 357.317 420.12 364.521 430.391 368.776C440.662 373.03 451.963 374.143 462.867 371.974C473.77 369.806 483.786 364.452 491.647 356.592C499.508 348.731 504.861 338.716 507.03 327.812C509.199 316.909 508.086 305.608 503.831 295.337C499.577 285.066 492.373 276.288 483.129 270.112C473.886 263.935 463.018 260.639 451.901 260.639C444.512 260.612 437.191 262.047 430.359 264.862C423.527 267.677 417.32 271.816 412.095 277.041C406.871 282.266 402.731 288.473 399.916 295.304C397.101 302.136 395.666 309.457 395.693 316.846Z" fill="#4285F4"/>
<path d="M477.408 285.83C476.51 296.237 477.343 299.766 481.664 305.729C485.309 310.757 464.57 306.483 455.394 304.849L463.491 281.183C463.491 281.183 477.723 282.175 477.408 285.83Z" fill="#0A0A0A"/>
<path d="M445.749 281.5C443.042 291.589 443.346 294.71 438.047 300.008C433.656 304.399 450.77 305.292 459.953 306.888L460.418 281.881C460.418 281.881 446.7 277.957 445.749 281.5Z" fill="#0A0A0A"/>
<path d="M446.662 310.844C446.722 310.836 447.395 321.994 460.357 321.021C469.33 320.349 472.529 310.828 472.735 310.828C471.71 310.658 470.698 310.412 469.709 310.094C468.296 309.335 466.547 308.545 466.092 305.801C465.83 304.219 466.275 296.128 466.138 294.526L452.364 297.601C452.556 300.98 453.906 308.815 449.184 310.201C448.397 310.433 447.55 310.644 446.662 310.844Z" fill="#E98862"/>
<path opacity="0.5" d="M452.171 307.001C452.387 306.306 452.526 305.589 452.585 304.863C452.737 303.208 452.707 301.54 452.496 299.891C455.295 299.514 457.933 298.358 460.109 296.556C460.365 297.501 461.771 301.628 461.382 302.526C460.645 304.223 457.186 307.001 452.171 307.001Z" fill="#0C0C0C"/>
<path d="M453.951 303.525C459.382 304.051 466.408 301.878 467.864 294.647L469.177 288.121C470.633 280.89 468.014 274.262 461.205 272.892C454.396 271.522 448.126 276.361 446.671 283.592L446.09 286.483C445.531 289.256 444.262 302.589 453.951 303.525Z" fill="#E98862"/>
<path d="M475.75 290.181L469.625 289.51C457.639 287.306 454.703 277.634 454.703 277.634C454.703 277.634 449.675 284.347 445.406 282.805C445.406 282.805 446.782 266.62 465.734 269.464C473.18 270.582 477.408 276.755 477.408 285.034C477.408 291.121 475.75 290.181 475.75 290.181Z" fill="#0A0A0A"/>
<path opacity="0.1" d="M459.16 293.052C459.238 292.397 458.577 291.779 457.684 291.672C456.79 291.566 456.002 292.011 455.924 292.666C455.846 293.322 456.507 293.94 457.4 294.046C458.294 294.153 459.082 293.708 459.16 293.052Z" fill="#0C0C0C"/>
<path opacity="0.1" d="M447.963 291.428C447.883 292.082 447.096 292.527 446.201 292.422C446.047 292.403 445.895 292.368 445.747 292.319C445.706 291.538 445.704 290.787 445.726 290.092C445.974 290.03 446.232 290.015 446.486 290.048C447.377 290.153 448.038 290.771 447.963 291.428Z" fill="#0C0C0C"/>
<path opacity="0.5" d="M451.91 293.451H451.897C451.621 293.394 451.349 293.321 451.081 293.233C450.681 293.1 450.158 292.88 450.23 292.518C450.313 292.106 452.337 287.888 452.567 287.408C452.577 287.387 452.591 287.367 452.608 287.351C452.625 287.335 452.645 287.323 452.667 287.315C452.689 287.307 452.713 287.303 452.736 287.304C452.759 287.306 452.782 287.311 452.803 287.321C452.825 287.332 452.843 287.346 452.859 287.364C452.875 287.381 452.886 287.402 452.894 287.424C452.901 287.446 452.904 287.47 452.902 287.493C452.901 287.516 452.894 287.539 452.883 287.56C452.02 289.356 450.63 292.31 450.574 292.588C450.99 292.87 451.467 293.048 451.966 293.108C452.01 293.117 452.048 293.143 452.074 293.18C452.1 293.217 452.11 293.263 452.103 293.307C452.096 293.352 452.072 293.392 452.036 293.419C452 293.446 451.955 293.459 451.91 293.454V293.451Z" fill="#0C0C0C"/>
<path d="M466.998 296.765C469.067 297.181 471.19 295.305 471.606 293.236C472.023 291.167 470.575 289.688 468.506 289.271L467.161 290.443L465.219 296.407L466.998 296.765Z" fill="#E98862"/>
<path d="M451.099 284.042C450.843 283.861 450.564 283.715 450.27 283.608C449.972 283.496 449.66 283.426 449.343 283.4C449.026 283.369 448.706 283.387 448.394 283.452C448.079 283.516 447.774 283.62 447.485 283.76L447.476 283.764C447.445 283.775 447.41 283.774 447.38 283.762C447.349 283.749 447.324 283.725 447.31 283.695C447.296 283.665 447.293 283.631 447.303 283.599C447.312 283.567 447.333 283.54 447.362 283.523C447.668 283.361 447.993 283.239 448.33 283.158C448.669 283.076 449.019 283.045 449.367 283.067C450.073 283.106 450.755 283.334 451.343 283.726C451.385 283.757 451.414 283.803 451.423 283.855C451.433 283.906 451.421 283.959 451.392 284.003C451.362 284.046 451.317 284.076 451.265 284.087C451.214 284.097 451.161 284.087 451.116 284.059L451.112 284.056L451.099 284.042Z" fill="#0C0C0C"/>
<path d="M456.676 284.813C457.369 284.675 458.087 284.726 458.753 284.96C459.083 285.073 459.395 285.235 459.677 285.441C459.957 285.644 460.211 285.882 460.432 286.148C460.456 286.175 460.468 286.209 460.466 286.245C460.465 286.28 460.449 286.314 460.423 286.338C460.397 286.362 460.362 286.374 460.326 286.373C460.291 286.371 460.257 286.355 460.234 286.329L460.226 286.322C460.013 286.082 459.77 285.869 459.504 285.69C459.24 285.51 458.951 285.371 458.646 285.278C458.041 285.088 457.397 285.062 456.778 285.202L456.763 285.205C456.711 285.218 456.657 285.21 456.611 285.182C456.565 285.155 456.532 285.11 456.52 285.058C456.507 285.006 456.515 284.951 456.543 284.906C456.57 284.86 456.615 284.827 456.667 284.814L456.676 284.813Z" fill="#0C0C0C"/>
<path d="M425.786 366.629C423.576 365.665 421.923 364.634 418.149 361.791C415.427 359.748 412.896 357.459 410.59 354.955L429.964 318.089L430.807 316.487L448.282 325.674L433.123 354.521L433.054 354.648L433.185 355.162" fill="#EA4335"/>
<path d="M490.219 336.972C489.711 342.439 489.601 350.941 489.636 358.5C482.33 365.127 473.409 369.713 463.769 371.798C454.129 373.883 444.109 373.393 434.719 370.377C433.569 358.977 431.86 342.224 430.897 331.909C429.921 321.224 427.05 317.695 434.885 312.578C439.203 310.38 446.047 310.187 449.123 310.187C448.078 320.315 469.423 321.561 469.954 310.187C485.918 311.679 493.309 312.05 490.219 336.972Z" fill="#EA4335"/>
<path d="M450.088 294.877C451.853 295.774 453.866 296.058 455.81 295.683C455.877 295.67 455.947 295.677 456.01 295.702C456.074 295.727 456.129 295.77 456.169 295.826C456.209 295.882 456.233 295.948 456.237 296.016C456.241 296.085 456.225 296.153 456.192 296.213C455.614 297.234 454.238 298.979 451.88 298.268C450.358 297.809 449.782 296.245 449.567 295.274C449.552 295.206 449.557 295.136 449.58 295.071C449.604 295.007 449.646 294.95 449.701 294.908C449.755 294.866 449.821 294.841 449.89 294.836C449.958 294.83 450.027 294.844 450.088 294.877Z" fill="white"/>
<path d="M449.978 287.029C450.449 287.029 450.831 286.648 450.831 286.177C450.831 285.706 450.449 285.325 449.978 285.325C449.508 285.325 449.126 285.706 449.126 286.177C449.126 286.648 449.508 287.029 449.978 287.029Z" fill="#0C0C0C"/>
<path d="M458.172 288.464C458.642 288.464 459.024 288.082 459.024 287.611C459.024 287.14 458.642 286.759 458.172 286.759C457.701 286.759 457.319 287.14 457.319 287.611C457.319 288.082 457.701 288.464 458.172 288.464Z" fill="#0C0C0C"/>
<path d="M432.784 350.309H432.8C432.835 350.305 432.866 350.286 432.887 350.258C432.908 350.23 432.918 350.195 432.913 350.161L431.406 334.977C431.404 334.959 431.398 334.943 431.389 334.928C431.381 334.913 431.369 334.899 431.355 334.889C431.341 334.878 431.326 334.871 431.309 334.867C431.292 334.862 431.274 334.862 431.257 334.864C431.24 334.867 431.223 334.872 431.209 334.881C431.194 334.89 431.181 334.901 431.17 334.915C431.16 334.929 431.152 334.945 431.148 334.962C431.143 334.978 431.142 334.996 431.145 335.013L432.652 350.197C432.656 350.229 432.672 350.258 432.697 350.278C432.721 350.299 432.752 350.31 432.784 350.309Z" fill="#0C0C0C"/>
<path d="M430.814 338.746H415.43V357.614H430.814V338.746Z" fill="white"/>
<path d="M424.515 348.18C424.515 346.934 424.885 345.716 425.577 344.68C426.27 343.644 427.254 342.837 428.405 342.36C429.556 341.883 430.823 341.759 432.045 342.002C433.267 342.245 434.39 342.846 435.271 343.727C436.152 344.608 436.752 345.731 436.995 346.953C437.238 348.175 437.113 349.442 436.636 350.593C436.159 351.744 435.351 352.728 434.315 353.42C433.279 354.112 432.061 354.482 430.815 354.482C429.144 354.48 427.542 353.815 426.361 352.634C425.18 351.452 424.516 349.85 424.515 348.18ZM427.095 348.18C427.095 348.915 427.313 349.635 427.722 350.246C428.131 350.858 428.711 351.335 429.391 351.616C430.071 351.898 430.819 351.972 431.54 351.828C432.262 351.685 432.925 351.33 433.445 350.81C433.965 350.29 434.319 349.627 434.463 348.905C434.606 348.184 434.533 347.436 434.251 346.756C433.97 346.077 433.493 345.496 432.881 345.087C432.27 344.678 431.55 344.46 430.815 344.46C429.828 344.461 428.883 344.854 428.186 345.551C427.488 346.248 427.096 347.194 427.095 348.18Z" fill="white"/>
<path d="M430.692 350.515C430.744 350.195 430.906 349.905 431.151 349.693C431.396 349.482 431.707 349.363 432.03 349.358C432.021 349.345 432.015 349.331 432.011 349.315L431.553 349.216C431.234 349.153 430.946 348.981 430.739 348.73C430.531 348.479 430.417 348.165 430.415 347.839C430.418 347.635 430.466 347.434 430.556 347.251C430.646 347.067 430.776 346.906 430.936 346.779C431.096 346.652 431.282 346.562 431.48 346.516C431.679 346.469 431.886 346.468 432.086 346.511L433.166 346.744C433.166 346.74 433.166 346.736 433.166 346.732C433.169 346.723 433.172 346.715 433.176 346.707C432.894 346.574 432.666 346.351 432.528 346.072C432.39 345.793 432.35 345.475 432.416 345.171C432.534 344.372 433.493 344.109 434.196 344.261L436.995 344.762L436.05 344.135C435.752 343.929 435.543 343.617 435.466 343.263C435.389 342.908 435.45 342.538 435.635 342.226C435.737 342.069 435.869 341.934 436.024 341.829C436.18 341.724 436.355 341.652 436.539 341.618C436.723 341.583 436.912 341.586 437.095 341.627C437.277 341.668 437.45 341.745 437.602 341.855L448.886 354.768L446.38 353.631C445.603 354.775 444.501 355.66 443.217 356.174C441.933 356.687 440.525 356.806 439.173 356.513L433.054 355.18C432.734 355.117 432.446 354.945 432.239 354.694C432.031 354.443 431.917 354.128 431.915 353.803C431.92 353.509 432.018 353.224 432.195 352.99C432.373 352.756 432.621 352.585 432.902 352.502C432.893 352.481 432.89 352.458 432.893 352.436C432.896 352.415 432.905 352.395 432.918 352.379C432.931 352.362 432.948 352.348 432.967 352.34L431.838 352.096C431.482 352.027 431.166 351.825 430.953 351.531C430.74 351.238 430.647 350.874 430.692 350.515Z" fill="#E98862"/>
<path opacity="0.2" d="M435.211 347.199C435.24 347.192 435.266 347.176 435.285 347.152C435.304 347.129 435.314 347.1 435.313 347.07C435.312 347.039 435.301 347.01 435.282 346.988C435.262 346.965 435.235 346.949 435.206 346.944L433.315 346.624C433.298 346.621 433.281 346.621 433.264 346.624C433.247 346.627 433.23 346.634 433.216 346.644C433.201 346.654 433.189 346.666 433.18 346.681C433.17 346.696 433.164 346.712 433.161 346.729C433.158 346.747 433.159 346.764 433.163 346.781C433.167 346.798 433.174 346.814 433.185 346.828C433.195 346.842 433.208 346.854 433.223 346.863C433.238 346.872 433.255 346.877 433.272 346.88L435.162 347.2C435.178 347.202 435.195 347.202 435.211 347.199Z" fill="#0C0C0C"/>
<path opacity="0.2" d="M434.754 349.872C434.783 349.866 434.81 349.85 434.829 349.826C434.847 349.803 434.857 349.773 434.857 349.743C434.856 349.713 434.846 349.684 434.826 349.661C434.807 349.639 434.78 349.623 434.75 349.618L432.161 349.159C432.144 349.155 432.126 349.154 432.109 349.157C432.091 349.16 432.075 349.167 432.06 349.177C432.045 349.186 432.033 349.199 432.023 349.214C432.014 349.228 432.007 349.245 432.004 349.262C432.001 349.28 432.001 349.297 432.005 349.314C432.009 349.332 432.017 349.348 432.027 349.362C432.038 349.376 432.051 349.388 432.066 349.397C432.081 349.406 432.098 349.411 432.115 349.413L434.705 349.873C434.721 349.876 434.738 349.876 434.754 349.872Z" fill="#0C0C0C"/>
<path opacity="0.2" d="M434.279 352.771C434.308 352.765 434.335 352.748 434.354 352.724C434.372 352.701 434.382 352.671 434.381 352.641C434.38 352.61 434.369 352.581 434.349 352.558C434.329 352.536 434.301 352.521 434.271 352.516L433.043 352.328C433.01 352.325 432.977 352.335 432.951 352.355C432.925 352.375 432.908 352.405 432.903 352.438C432.898 352.47 432.906 352.504 432.924 352.531C432.943 352.558 432.972 352.577 433.004 352.584L434.232 352.772C434.248 352.775 434.263 352.774 434.279 352.771Z" fill="#0C0C0C"/>
<path d="M498.059 348.919C491.136 358.874 481.187 366.332 469.69 370.184L469.685 370.18C467.132 369.68 442.77 360.062 439.548 359.43L443.074 342.981C452.128 344.782 468.64 351.727 477.745 353.536L471.322 324.411C471.089 323.124 471.114 321.804 471.395 320.527C471.676 319.251 472.208 318.042 472.96 316.973C473.712 315.903 474.668 314.993 475.774 314.296C476.88 313.599 478.114 313.128 479.403 312.911C480.692 312.695 482.012 312.736 483.285 313.033C484.558 313.33 485.76 313.877 486.82 314.641C487.881 315.406 488.778 316.374 489.462 317.489C490.145 318.603 490.601 319.842 490.802 321.134L498.059 348.919Z" fill="#EA4335"/>
<path d="M484.646 355.68C484.679 355.679 484.711 355.666 484.735 355.644C484.758 355.621 484.773 355.59 484.775 355.558C484.778 355.525 484.768 355.492 484.748 355.467C484.728 355.441 484.699 355.423 484.666 355.418L477.82 353.095C477.803 353.092 477.786 353.093 477.769 353.097C477.752 353.101 477.736 353.109 477.722 353.119C477.708 353.129 477.696 353.142 477.687 353.157C477.678 353.172 477.673 353.189 477.67 353.206C477.665 353.241 477.674 353.276 477.695 353.304C477.716 353.332 477.747 353.35 477.781 353.355L484.627 355.678C484.633 355.679 484.64 355.68 484.646 355.68Z" fill="#0C0C0C"/>
<path d="M477.925 353.206C477.929 353.248 477.916 353.289 477.89 353.32C477.875 353.335 477.856 353.345 477.837 353.352C477.817 353.358 477.796 353.359 477.775 353.356L443.292 343.178L439.837 359.367L469.531 370.232C469.439 370.263 469.342 370.293 469.25 370.324C469.184 370.346 469.118 370.368 469.048 370.385L439.643 359.589C439.61 359.58 439.582 359.559 439.564 359.529C439.546 359.5 439.54 359.465 439.547 359.431L443.073 342.982C443.077 342.965 443.085 342.95 443.095 342.936C443.106 342.922 443.119 342.911 443.134 342.903C443.149 342.893 443.165 342.886 443.183 342.883C443.2 342.88 443.218 342.881 443.235 342.886L477.635 353.076L473.741 337.02C473.736 336.985 473.745 336.951 473.766 336.923C473.786 336.895 473.817 336.876 473.851 336.871C473.868 336.868 473.885 336.868 473.902 336.871C473.919 336.875 473.935 336.881 473.95 336.891C473.964 336.901 473.976 336.913 473.986 336.928C473.995 336.943 474.001 336.959 474.005 336.976L477.925 353.206Z" fill="#0C0C0C"/>
<path d="M28.2674 332.224C28.2353 332.224 28.2035 332.218 28.1739 332.206C28.1447 332.193 28.1183 332.176 28.096 332.153C28.0737 332.131 28.0561 332.104 28.0442 332.075C28.0322 332.045 28.0262 332.014 28.0264 331.982C28.0266 331.951 28.033 331.919 28.0453 331.89L37.4864 309.45C37.5112 309.391 37.5585 309.344 37.6177 309.32C37.6769 309.296 37.7433 309.297 37.8022 309.321C37.8611 309.346 37.9077 309.394 37.9318 309.453C37.9559 309.512 37.9555 309.578 37.9306 309.637L28.4895 332.077C28.4712 332.12 28.4403 332.158 28.4008 332.184C28.3613 332.21 28.3149 332.224 28.2674 332.224Z" fill="#0C0C0C"/>
<path d="M83.8223 332.48H83.8117C83.7801 332.481 83.7485 332.476 83.7188 332.466C83.689 332.455 83.6617 332.438 83.6383 332.417C83.615 332.396 83.596 332.37 83.5826 332.341C83.5692 332.312 83.5616 332.281 83.5602 332.25L82.5078 309.298C82.507 309.235 82.5302 309.174 82.5728 309.127C82.6154 309.08 82.6741 309.052 82.7372 309.046C82.7688 309.045 82.8005 309.05 82.8303 309.06C82.8601 309.071 82.8875 309.088 82.9109 309.109C82.9343 309.13 82.9532 309.156 82.9667 309.185C82.9801 309.214 82.9878 309.245 82.9892 309.276L84.0415 332.228C84.0446 332.29 84.0235 332.351 83.9827 332.398C83.9418 332.445 83.8843 332.474 83.8223 332.48Z" fill="#0C0C0C"/>
<path d="M625.983 159.52C619.333 159.52 613.284 157.968 607.837 154.865C602.453 151.698 598.209 147.391 595.105 141.943C592.002 136.496 590.45 130.511 590.45 123.987C590.45 117.463 592.002 111.477 595.105 106.03C598.209 100.583 602.453 96.3071 607.837 93.2035C613.284 90.0365 619.333 88.453 625.983 88.453C632.634 88.453 638.651 90.0365 644.035 93.2035C649.483 96.3071 653.758 100.583 656.862 106.03C659.965 111.477 661.517 117.463 661.517 123.987C661.517 130.511 659.965 136.496 656.862 141.943C653.758 147.391 649.483 151.698 644.035 154.865C638.651 157.968 632.634 159.52 625.983 159.52ZM625.983 147.359C630.164 147.359 633.996 146.377 637.48 144.414C640.963 142.45 643.687 139.695 645.65 136.148C647.677 132.601 648.691 128.547 648.691 123.987C648.691 119.426 647.677 115.372 645.65 111.825C643.687 108.278 640.963 105.523 637.48 103.56C633.996 101.596 630.164 100.614 625.983 100.614C621.803 100.614 617.971 101.596 614.487 103.56C611.067 105.523 608.343 108.278 606.317 111.825C604.353 115.372 603.371 119.426 603.371 123.987C603.371 128.547 604.353 132.601 606.317 136.148C608.343 139.695 611.067 142.45 614.487 144.414C617.971 146.377 621.803 147.359 625.983 147.359ZM671.953 109.545H683.639V116.006H684.4C685.603 113.726 687.471 111.857 690.005 110.4C692.539 108.88 695.326 108.12 698.366 108.12C700.583 108.12 702.61 108.468 704.447 109.165V121.611C702.736 120.978 701.28 120.535 700.076 120.281C698.936 119.965 697.701 119.806 696.371 119.806C692.697 119.806 689.783 121.136 687.63 123.797C685.476 126.457 684.4 129.814 684.4 133.868V158H671.953V109.545ZM719.53 104.225C717.313 104.225 715.413 103.433 713.829 101.849C712.246 100.266 711.454 98.3657 711.454 96.1488C711.454 93.9319 712.246 92.0634 713.829 90.5432C715.413 88.9597 717.313 88.168 719.53 88.168C721.747 88.168 723.615 88.9597 725.136 90.5432C726.719 92.0634 727.511 93.9319 727.511 96.1488C727.511 98.3657 726.719 100.266 725.136 101.849C723.615 103.433 721.747 104.225 719.53 104.225ZM713.259 109.545H725.706V158H713.259V109.545ZM761 159.52C756.186 159.52 751.848 158.412 747.984 156.195C744.12 153.978 741.08 150.938 738.863 147.074C736.709 143.147 735.633 138.745 735.633 133.868C735.633 129.244 736.709 124.968 738.863 121.041C741.017 117.051 743.993 113.884 747.794 111.54C751.594 109.197 755.838 108.025 760.525 108.025C765.529 108.025 769.836 109.102 773.446 111.255C777.057 113.409 779.78 116.354 781.617 120.091C783.517 123.828 784.468 127.977 784.468 132.537C784.468 133.994 784.373 135.388 784.183 136.718H747.794C748.427 140.582 749.947 143.527 752.354 145.554C754.825 147.517 757.77 148.499 761.19 148.499C764.041 148.499 766.479 147.897 768.506 146.694C770.596 145.427 772.243 143.749 773.446 141.658L783.517 146.599C778.577 155.213 771.071 159.52 761 159.52ZM772.496 127.882C772.37 126.362 771.8 124.873 770.786 123.417C769.836 121.896 768.474 120.661 766.701 119.711C764.991 118.698 762.964 118.191 760.62 118.191C757.643 118.191 755.078 119.078 752.924 120.851C750.834 122.561 749.314 124.905 748.364 127.882H772.496ZM794.055 109.545H805.742V115.626H806.502C807.958 113.282 810.017 111.445 812.677 110.115C815.337 108.722 818.219 108.025 821.323 108.025C827.15 108.025 831.584 109.799 834.624 113.346C837.665 116.893 839.185 121.738 839.185 127.882V158H826.739V129.402C826.739 126.298 825.947 123.892 824.363 122.181C822.78 120.471 820.563 119.616 817.713 119.616C814.356 119.616 811.632 120.915 809.542 123.512C807.515 126.108 806.502 129.37 806.502 133.298V158H794.055V109.545ZM869.611 158.76C867.204 158.76 864.987 158.412 862.96 157.715C860.933 156.955 859.287 155.941 858.02 154.675C855.043 151.824 853.554 147.771 853.554 142.513V120.186H845.098V109.545H853.554V95.8638H866.001V109.545H877.877V120.186H866.001V140.233C866.001 142.703 866.539 144.477 867.616 145.554C868.502 146.567 870.023 147.074 872.176 147.074C873.38 147.074 874.361 146.916 875.121 146.599C875.945 146.282 876.99 145.744 878.257 144.984V157.145C875.533 158.222 872.651 158.76 869.611 158.76ZM902.123 159.52C896.993 159.52 892.781 158.032 889.487 155.055C886.194 152.014 884.547 148.056 884.547 143.179C884.547 139.948 885.402 137.098 887.112 134.628C888.822 132.157 891.166 130.257 894.143 128.927C897.12 127.597 900.413 126.932 904.024 126.932C909.027 126.932 913.303 127.66 916.85 129.117V127.027C916.85 124.367 915.837 122.213 913.81 120.566C911.846 118.919 909.186 118.096 905.829 118.096C903.549 118.096 901.332 118.634 899.178 119.711C897.088 120.725 895.346 122.086 893.953 123.797L885.972 117.526C888.315 114.486 891.261 112.142 894.808 110.495C898.355 108.848 902.218 108.025 906.399 108.025C913.81 108.025 919.447 109.735 923.311 113.156C927.174 116.576 929.106 121.58 929.106 128.167V158H916.85V153.06H916.09C914.633 154.96 912.701 156.512 910.294 157.715C907.951 158.918 905.227 159.52 902.123 159.52ZM905.069 149.829C908.679 149.829 911.529 148.689 913.62 146.409C915.773 144.065 916.85 141.342 916.85 138.238C913.62 136.718 910.231 135.958 906.684 135.958C900.223 135.958 896.993 138.365 896.993 143.179C896.993 145.142 897.69 146.757 899.083 148.024C900.477 149.227 902.472 149.829 905.069 149.829ZM960.724 158.76C958.317 158.76 956.1 158.412 954.073 157.715C952.046 156.955 950.399 155.941 949.132 154.675C946.155 151.824 944.667 147.771 944.667 142.513V120.186H936.211V109.545H944.667V95.8638H957.113V109.545H968.989V120.186H957.113V140.233C957.113 142.703 957.652 144.477 958.728 145.554C959.615 146.567 961.135 147.074 963.289 147.074C964.492 147.074 965.474 146.916 966.234 146.599C967.058 146.282 968.103 145.744 969.369 144.984V157.145C966.646 158.222 963.764 158.76 960.724 158.76ZM986.837 104.225C984.62 104.225 982.72 103.433 981.137 101.849C979.553 100.266 978.761 98.3657 978.761 96.1488C978.761 93.9319 979.553 92.0634 981.137 90.5432C982.72 88.9597 984.62 88.168 986.837 88.168C989.054 88.168 990.922 88.9597 992.443 90.5432C994.026 92.0634 994.818 93.9319 994.818 96.1488C994.818 98.3657 994.026 100.266 992.443 101.849C990.922 103.433 989.054 104.225 986.837 104.225ZM980.566 109.545H993.013V158H980.566V109.545ZM1028.78 159.52C1023.78 159.52 1019.31 158.412 1015.39 156.195C1011.46 153.915 1008.39 150.843 1006.17 146.979C1004.02 143.052 1002.94 138.65 1002.94 133.773C1002.94 128.959 1004.02 124.588 1006.17 120.661C1008.39 116.734 1011.46 113.662 1015.39 111.445C1019.31 109.165 1023.78 108.025 1028.78 108.025C1033.72 108.025 1038.16 109.165 1042.08 111.445C1046.01 113.662 1049.05 116.734 1051.2 120.661C1053.42 124.588 1054.53 128.959 1054.53 133.773C1054.53 138.65 1053.42 143.052 1051.2 146.979C1049.05 150.843 1046.01 153.915 1042.08 156.195C1038.16 158.412 1033.72 159.52 1028.78 159.52ZM1028.78 148.024C1031.19 148.024 1033.41 147.454 1035.43 146.314C1037.46 145.174 1039.08 143.527 1040.28 141.373C1041.48 139.22 1042.08 136.686 1042.08 133.773C1042.08 130.922 1041.48 128.42 1040.28 126.267C1039.08 124.113 1037.46 122.466 1035.43 121.326C1033.41 120.186 1031.19 119.616 1028.78 119.616C1026.38 119.616 1024.16 120.186 1022.13 121.326C1020.1 122.466 1018.46 124.113 1017.19 126.267C1015.99 128.42 1015.39 130.922 1015.39 133.773C1015.39 136.623 1015.99 139.156 1017.19 141.373C1018.46 143.527 1020.1 145.174 1022.13 146.314C1024.16 147.454 1026.38 148.024 1028.78 148.024ZM1063.13 109.545H1074.81V115.626H1075.57C1077.03 113.282 1079.09 111.445 1081.75 110.115C1084.41 108.722 1087.29 108.025 1090.39 108.025C1096.22 108.025 1100.65 109.799 1103.69 113.346C1106.73 116.893 1108.25 121.738 1108.25 127.882V158H1095.81V129.402C1095.81 126.298 1095.02 123.892 1093.43 122.181C1091.85 120.471 1089.63 119.616 1086.78 119.616C1083.43 119.616 1080.7 120.915 1078.61 123.512C1076.58 126.108 1075.57 129.37 1075.57 133.298V158H1063.13V109.545ZM668.586 287.694C670.677 285.604 674.699 281.582 680.653 275.628C686.67 269.61 690.534 265.683 692.244 263.846C694.524 261.376 696.076 259.318 696.899 257.671C697.786 256.024 698.229 254.156 698.229 252.065C698.229 249.848 697.406 247.98 695.759 246.46C694.112 244.94 691.927 244.18 689.203 244.18C686.543 244.18 684.39 244.94 682.743 246.46C681.096 247.98 679.924 249.88 679.227 252.16L668.016 247.505C668.713 245.035 669.98 242.659 671.817 240.379C673.717 238.036 676.155 236.135 679.132 234.679C682.109 233.222 685.53 232.493 689.393 232.493C693.701 232.493 697.469 233.348 700.7 235.059C703.93 236.705 706.432 238.986 708.205 241.899C709.979 244.75 710.866 247.948 710.866 251.495C710.866 258.526 707.445 265.398 700.605 272.112C697.818 274.836 692.655 279.966 685.118 287.504L685.403 288.074H711.721V299H668.586V287.694ZM748.457 300.52C743.01 300.52 738.228 299.063 734.111 296.15C729.994 293.173 726.795 289.119 724.515 283.988C722.298 278.795 721.19 272.967 721.19 266.507C721.19 260.046 722.298 254.251 724.515 249.12C726.795 243.926 729.994 239.872 734.111 236.959C738.228 233.982 743.01 232.493 748.457 232.493C753.905 232.493 758.687 233.982 762.804 236.959C766.921 239.872 770.088 243.926 772.305 249.12C774.585 254.251 775.725 260.046 775.725 266.507C775.725 272.967 774.585 278.795 772.305 283.988C770.088 289.119 766.921 293.173 762.804 296.15C758.687 299.063 753.905 300.52 748.457 300.52ZM748.457 288.834C751.498 288.834 754.126 287.884 756.343 285.984C758.623 284.02 760.334 281.36 761.474 278.003C762.677 274.583 763.279 270.751 763.279 266.507C763.279 259.919 761.949 254.567 759.289 250.45C756.628 246.27 753.018 244.18 748.457 244.18C743.96 244.18 740.382 246.27 737.721 250.45C735.061 254.631 733.731 259.983 733.731 266.507C733.731 270.751 734.301 274.583 735.441 278.003C736.645 281.36 738.355 284.02 740.572 285.984C742.852 287.884 745.481 288.834 748.457 288.834ZM784.565 287.694C786.655 285.604 790.677 281.582 796.631 275.628C802.648 269.61 806.512 265.683 808.222 263.846C810.502 261.376 812.054 259.318 812.878 257.671C813.764 256.024 814.208 254.156 814.208 252.065C814.208 249.848 813.384 247.98 811.738 246.46C810.091 244.94 807.905 244.18 805.182 244.18C802.522 244.18 800.368 244.94 798.721 246.46C797.074 247.98 795.903 249.88 795.206 252.16L783.995 247.505C784.691 245.035 785.958 242.659 787.795 240.379C789.695 238.036 792.134 236.135 795.111 234.679C798.088 233.222 801.508 232.493 805.372 232.493C809.679 232.493 813.448 233.348 816.678 235.059C819.908 236.705 822.41 238.986 824.184 241.899C825.957 244.75 826.844 247.948 826.844 251.495C826.844 258.526 823.424 265.398 816.583 272.112C813.796 274.836 808.634 279.966 801.096 287.504L801.381 288.074H827.699V299H784.565V287.694ZM837.358 287.694C839.448 285.604 843.47 281.582 849.424 275.628C855.442 269.61 859.305 265.683 861.016 263.846C863.296 261.376 864.848 259.318 865.671 257.671C866.558 256.024 867.001 254.156 867.001 252.065C867.001 249.848 866.178 247.98 864.531 246.46C862.884 244.94 860.699 244.18 857.975 244.18C855.315 244.18 853.161 244.94 851.515 246.46C849.868 247.98 848.696 249.88 847.999 252.16L836.788 247.505C837.485 245.035 838.752 242.659 840.588 240.379C842.489 238.036 844.927 236.135 847.904 234.679C850.881 233.222 854.302 232.493 858.165 232.493C862.472 232.493 866.241 233.348 869.471 235.059C872.702 236.705 875.204 238.986 876.977 241.899C878.751 244.75 879.637 247.948 879.637 251.495C879.637 258.526 876.217 265.398 869.376 272.112C866.589 274.836 861.427 279.966 853.89 287.504L854.175 288.074H880.492V299H837.358V287.694ZM891.197 264.036H923.405V275.058H891.197V264.036ZM934.316 287.694C936.406 285.604 940.428 281.582 946.382 275.628C952.4 269.61 956.263 265.683 957.974 263.846C960.254 261.376 961.806 259.318 962.629 257.671C963.516 256.024 963.959 254.156 963.959 252.065C963.959 249.848 963.136 247.98 961.489 246.46C959.842 244.94 957.657 244.18 954.933 244.18C952.273 244.18 950.119 244.94 948.473 246.46C946.826 247.98 945.654 249.88 944.957 252.16L933.746 247.505C934.443 245.035 935.71 242.659 937.546 240.379C939.447 238.036 941.885 236.135 944.862 234.679C947.839 233.222 951.26 232.493 955.123 232.493C959.43 232.493 963.199 233.348 966.429 235.059C969.66 236.705 972.162 238.986 973.935 241.899C975.709 244.75 976.595 247.948 976.595 251.495C976.595 258.526 973.175 265.398 966.334 272.112C963.547 274.836 958.385 279.966 950.848 287.504L951.133 288.074H977.45V299H934.316V287.694ZM1009.25 300.52C1003.74 300.52 998.859 299.063 994.615 296.15C990.435 293.236 987.553 288.992 985.969 283.418L997.751 278.763C998.511 281.867 999.872 284.274 1001.84 285.984C1003.8 287.631 1006.27 288.454 1009.25 288.454C1011.97 288.454 1014.31 287.631 1016.28 285.984C1018.3 284.337 1019.32 282.247 1019.32 279.713C1019.32 276.989 1018.24 274.836 1016.09 273.252C1014 271.606 1011.15 270.782 1007.54 270.782H1001.93V259.476H1007.06C1009.85 259.476 1012.19 258.779 1014.09 257.386C1016.06 255.992 1017.04 253.965 1017.04 251.305C1017.04 249.152 1016.25 247.378 1014.66 245.985C1013.08 244.591 1011.05 243.894 1008.58 243.894C1005.98 243.894 1003.89 244.591 1002.31 245.985C1000.73 247.378 999.619 249.12 998.986 251.21L987.68 246.555C989.01 242.754 991.448 239.461 994.995 236.674C998.606 233.887 1003.17 232.493 1008.68 232.493C1012.73 232.493 1016.34 233.253 1019.51 234.774C1022.74 236.294 1025.24 238.384 1027.01 241.044C1028.79 243.641 1029.67 246.586 1029.67 249.88C1029.67 253.364 1028.85 256.341 1027.2 258.811C1025.62 261.281 1023.69 263.086 1021.41 264.227V264.987C1024.57 266.253 1027.14 268.249 1029.1 270.972C1031.07 273.696 1032.05 276.989 1032.05 280.853C1032.05 284.59 1031.1 287.947 1029.2 290.924C1027.3 293.901 1024.61 296.245 1021.12 297.955C1017.7 299.665 1013.74 300.52 1009.25 300.52Z" fill="#505050"/>
<rect x="586" y="175" width="132" height="11" fill="#4285F4"/>
<rect x="718" y="175" width="132" height="11" fill="#EA4335"/>
<rect x="850" y="175" width="132" height="11" fill="#FBBC04"/>
<rect x="982" y="175" width="132" height="11" fill="#0F9D58"/>
<rect x="664" y="316" width="93" height="11" fill="#4285F4"/>
<rect x="757" y="316" width="93" height="11" fill="#EA4335"/>
<rect x="850" y="316" width="93" height="11" fill="#FBBC04"/>
<rect x="943" y="316" width="93" height="11" fill="#0F9D58"/>
</svg>
