<svg xmlns="http://www.w3.org/2000/svg" width="1018.849" height="125.269" viewBox="0 0 1018.849 125.269">
  <g id="navlogo" transform="translate(-512.575 -441.526)">
    <g id="Group_7" data-name="Group 7" transform="translate(62 -66)">
      <g id="Group_1" data-name="Group 1">
        <path id="Path_1" data-name="Path 1" d="M610.2,556.214a22.04,22.04,0,0,1-8.284-8.283,23.894,23.894,0,0,1,0-23.316,22.083,22.083,0,0,1,8.284-8.283,22.627,22.627,0,0,1,11.443-3.007,24.2,24.2,0,0,1,9.113,1.719,18.3,18.3,0,0,1,7.025,4.848l-3.743,3.743a13.5,13.5,0,0,0-5.368-3.959,17.959,17.959,0,0,0-7.027-1.381,17.44,17.44,0,0,0-8.622,2.24,17.092,17.092,0,0,0-6.442,6.319,19.512,19.512,0,0,0,0,18.838,17.036,17.036,0,0,0,6.442,6.32,17.283,17.283,0,0,0,21.2-2.791,13.371,13.371,0,0,0,2.577-4.172,17.25,17.25,0,0,0,1.165-5.339h-16.2v-4.848h21.108a18.214,18.214,0,0,1,.307,3.191,24.631,24.631,0,0,1-1.287,7.886,17.457,17.457,0,0,1-4.112,6.718q-6.2,6.566-16.138,6.564A22.6,22.6,0,0,1,610.2,556.214Z" fill="#656c73"/>
        <path id="Path_2" data-name="Path 2" d="M654.649,557.106a14.782,14.782,0,0,1-5.552-5.83,18.066,18.066,0,0,1,0-16.505,14.749,14.749,0,0,1,5.552-5.828,15.409,15.409,0,0,1,8.037-2.117,15.581,15.581,0,0,1,8.07,2.117,14.718,14.718,0,0,1,5.584,5.828,18.066,18.066,0,0,1,0,16.505,14.75,14.75,0,0,1-5.584,5.83,15.6,15.6,0,0,1-8.07,2.115A15.427,15.427,0,0,1,654.649,557.106Zm13.192-4.02a10.368,10.368,0,0,0,3.836-4.018,13.4,13.4,0,0,0,0-12.089,10.4,10.4,0,0,0-3.836-4.018,9.974,9.974,0,0,0-5.155-1.412,9.862,9.862,0,0,0-5.092,1.412,10.376,10.376,0,0,0-3.834,4.018,13.381,13.381,0,0,0,0,12.089,10.349,10.349,0,0,0,3.834,4.018,9.862,9.862,0,0,0,5.092,1.412A9.974,9.974,0,0,0,667.841,553.086Z" fill="#656c73"/>
        <path id="Path_3" data-name="Path 3" d="M689.44,557.106a14.776,14.776,0,0,1-5.553-5.83,18.066,18.066,0,0,1,0-16.505,14.744,14.744,0,0,1,5.553-5.828,15.408,15.408,0,0,1,8.036-2.117,15.579,15.579,0,0,1,8.07,2.117,14.711,14.711,0,0,1,5.584,5.828,18.066,18.066,0,0,1,0,16.505,14.743,14.743,0,0,1-5.584,5.83,15.6,15.6,0,0,1-8.07,2.115A15.426,15.426,0,0,1,689.44,557.106Zm13.191-4.02a10.353,10.353,0,0,0,3.836-4.018,13.4,13.4,0,0,0,0-12.089,10.38,10.38,0,0,0-3.836-4.018,9.969,9.969,0,0,0-5.155-1.412,9.868,9.868,0,0,0-5.092,1.412,10.383,10.383,0,0,0-3.834,4.018,13.381,13.381,0,0,0,0,12.089,10.356,10.356,0,0,0,3.834,4.018,9.868,9.868,0,0,0,5.092,1.412A9.969,9.969,0,0,0,702.631,553.086Z" fill="#656c73"/>
        <path id="Path_4" data-name="Path 4" d="M722.758,569.837a13.153,13.153,0,0,1-4.725-6.135l4.848-2.026a8.744,8.744,0,0,0,3.282,4.388,9.414,9.414,0,0,0,5.615,1.687q4.845,0,7.453-2.814t2.609-7.862v-3.253h-.247a11.433,11.433,0,0,1-4.231,3.867,12.681,12.681,0,0,1-6.26,1.532,13.174,13.174,0,0,1-7.179-2.094,14.992,14.992,0,0,1-5.277-5.789,18.59,18.59,0,0,1,0-16.629,15.036,15.036,0,0,1,5.277-5.79,13.181,13.181,0,0,1,7.179-2.093,12.681,12.681,0,0,1,6.26,1.532,11.45,11.45,0,0,1,4.231,3.867h.247v-4.419h4.97v29.207a17.2,17.2,0,0,1-1.963,8.53,12.6,12.6,0,0,1-5.368,5.215,16.886,16.886,0,0,1-7.7,1.716A14.576,14.576,0,0,1,722.758,569.837Zm14.112-16.728a10.082,10.082,0,0,0,3.651-3.976,12.813,12.813,0,0,0,1.379-6.11,12.981,12.981,0,0,0-1.379-6.137,9.83,9.83,0,0,0-3.651-3.98,9.506,9.506,0,0,0-4.97-1.357,9.344,9.344,0,0,0-4.97,1.389,10.107,10.107,0,0,0-3.652,3.979,14.2,14.2,0,0,0,0,12.216,10.091,10.091,0,0,0,3.652,3.976,9.586,9.586,0,0,0,9.94,0Z" fill="#656c73"/>
        <path id="Path_5" data-name="Path 5" d="M753.866,514.308h5.215V558.24h-5.215Z" fill="#656c73"/>
        <path id="Path_6" data-name="Path 6" d="M771.445,557.135a14.63,14.63,0,0,1-5.431-5.766,17.466,17.466,0,0,1-1.963-8.346,18.042,18.042,0,0,1,1.841-8.13,14.5,14.5,0,0,1,5.246-5.89,14.2,14.2,0,0,1,7.823-2.177,14.874,14.874,0,0,1,7.763,1.992,13.148,13.148,0,0,1,5.124,5.615,18.711,18.711,0,0,1,1.778,8.346,4.352,4.352,0,0,1-.122,1.227H769.328a11.193,11.193,0,0,0,1.656,5.8,9.867,9.867,0,0,0,3.836,3.529,10.4,10.4,0,0,0,4.755,1.165q5.769,0,8.9-5.646l4.6,2.21a15.8,15.8,0,0,1-5.43,5.92,16.255,16.255,0,0,1-16.2.153Zm16.66-17.487a9.653,9.653,0,0,0-1.043-3.681,7.882,7.882,0,0,0-2.978-3.128,9.7,9.7,0,0,0-5.245-1.29,8.712,8.712,0,0,0-5.951,2.21,9.948,9.948,0,0,0-3.191,5.889Z" fill="#656c73"/>
        <path id="Path_7" data-name="Path 7" d="M813.567,514.308h13.315a23.892,23.892,0,0,1,11.779,2.791,19.217,19.217,0,0,1,7.732,7.763,25.469,25.469,0,0,1,0,22.825,19.217,19.217,0,0,1-7.732,7.763,23.9,23.9,0,0,1-11.779,2.79H813.567Zm13.315,38.962q7.791,0,12.333-4.478t4.541-12.518q0-8.035-4.541-12.517t-12.333-4.479h-8.1V553.27Z" fill="#656c73"/>
        <path id="Path_8" data-name="Path 8" d="M860.906,557.135a14.6,14.6,0,0,1-5.431-5.766,17.432,17.432,0,0,1-1.963-8.346,18.042,18.042,0,0,1,1.841-8.13A14.5,14.5,0,0,1,860.6,529a14.2,14.2,0,0,1,7.823-2.177,14.86,14.86,0,0,1,7.76,1.992,13.129,13.129,0,0,1,5.124,5.615,18.7,18.7,0,0,1,1.781,8.346,4.26,4.26,0,0,1-.124,1.227H858.789a11.165,11.165,0,0,0,1.656,5.8,9.876,9.876,0,0,0,3.834,3.529,10.409,10.409,0,0,0,4.757,1.165q5.766,0,8.9-5.646l4.6,2.21a15.76,15.76,0,0,1-5.431,5.92,16.25,16.25,0,0,1-16.2.153Zm16.657-17.487a9.67,9.67,0,0,0-1.042-3.681,7.876,7.876,0,0,0-2.976-3.128,9.712,9.712,0,0,0-5.245-1.29,8.725,8.725,0,0,0-5.954,2.21,9.953,9.953,0,0,0-3.191,5.889Z" fill="#656c73"/>
        <path id="Path_9" data-name="Path 9" d="M884.312,527.806h5.647l9.326,24.3h.122l9.449-24.3h5.524L901.922,558.24h-5.277Z" fill="#656c73"/>
        <path id="Path_10" data-name="Path 10" d="M923.919,557.135a14.634,14.634,0,0,1-5.43-5.766,17.466,17.466,0,0,1-1.963-8.346,18.042,18.042,0,0,1,1.841-8.13,14.5,14.5,0,0,1,5.246-5.89,14.2,14.2,0,0,1,7.823-2.177,14.876,14.876,0,0,1,7.763,1.992,13.139,13.139,0,0,1,5.123,5.615,18.7,18.7,0,0,1,1.779,8.346,4.352,4.352,0,0,1-.122,1.227H921.8a11.2,11.2,0,0,0,1.657,5.8,9.867,9.867,0,0,0,3.836,3.529,10.4,10.4,0,0,0,4.754,1.165q5.77,0,8.9-5.646l4.6,2.21a15.8,15.8,0,0,1-5.43,5.92,16.257,16.257,0,0,1-16.2.153Zm16.661-17.487a9.654,9.654,0,0,0-1.043-3.681,7.882,7.882,0,0,0-2.978-3.128,9.706,9.706,0,0,0-5.246-1.29,8.712,8.712,0,0,0-5.95,2.21,9.948,9.948,0,0,0-3.191,5.889Z" fill="#656c73"/>
        <path id="Path_11" data-name="Path 11" d="M951.376,514.308h5.217V558.24h-5.217Z" fill="#656c73"/>
        <path id="Path_12" data-name="Path 12" d="M969.11,557.106a14.782,14.782,0,0,1-5.552-5.83,18.066,18.066,0,0,1,0-16.505,14.749,14.749,0,0,1,5.552-5.828,15.409,15.409,0,0,1,8.037-2.117,15.584,15.584,0,0,1,8.07,2.117,14.718,14.718,0,0,1,5.584,5.828,18.075,18.075,0,0,1,0,16.505,14.75,14.75,0,0,1-5.584,5.83,15.6,15.6,0,0,1-8.07,2.115A15.427,15.427,0,0,1,969.11,557.106Zm13.191-4.02a10.363,10.363,0,0,0,3.837-4.018,13.406,13.406,0,0,0,0-12.089,10.39,10.39,0,0,0-3.837-4.018,9.968,9.968,0,0,0-5.154-1.412,9.868,9.868,0,0,0-5.093,1.412,10.381,10.381,0,0,0-3.833,4.018,13.373,13.373,0,0,0,0,12.089,10.354,10.354,0,0,0,3.833,4.018,9.868,9.868,0,0,0,5.093,1.412A9.968,9.968,0,0,0,982.3,553.086Z" fill="#656c73"/>
        <path id="Path_13" data-name="Path 13" d="M997.521,527.806h4.97v4.479h.245a11.672,11.672,0,0,1,4.234-3.9,12.716,12.716,0,0,1,6.382-1.563,13.174,13.174,0,0,1,7.238,2.117,15.193,15.193,0,0,1,5.277,5.8,18.459,18.459,0,0,1,0,16.567,15.221,15.221,0,0,1-5.277,5.8,13.188,13.188,0,0,1-7.238,2.115,12.9,12.9,0,0,1-6.414-1.563,10.916,10.916,0,0,1-4.2-3.959h-.245l.245,4.235v13.56h-5.215Zm20.034,25.28a10.166,10.166,0,0,0,3.68-4.018,13.918,13.918,0,0,0,0-12.089,10.193,10.193,0,0,0-3.68-4.018,9.394,9.394,0,0,0-5-1.412,9.545,9.545,0,0,0-5,1.381,9.934,9.934,0,0,0-3.682,3.989,14.137,14.137,0,0,0,0,12.18,9.908,9.908,0,0,0,3.682,4.018,9.545,9.545,0,0,0,5,1.381A9.394,9.394,0,0,0,1017.555,553.086Z" fill="#656c73"/>
        <path id="Path_14" data-name="Path 14" d="M1040.01,557.135a14.629,14.629,0,0,1-5.431-5.766,17.466,17.466,0,0,1-1.963-8.346,18.054,18.054,0,0,1,1.841-8.13A14.5,14.5,0,0,1,1039.7,529a14.2,14.2,0,0,1,7.823-2.177,14.871,14.871,0,0,1,7.763,1.992,13.147,13.147,0,0,1,5.124,5.615,18.7,18.7,0,0,1,1.779,8.346,4.34,4.34,0,0,1-.123,1.227h-24.176a11.193,11.193,0,0,0,1.656,5.8,9.863,9.863,0,0,0,3.837,3.529,10.4,10.4,0,0,0,4.754,1.165q5.769,0,8.9-5.646l4.6,2.21a15.8,15.8,0,0,1-5.43,5.92,16.255,16.255,0,0,1-16.2.153Zm16.66-17.487a9.654,9.654,0,0,0-1.043-3.681,7.874,7.874,0,0,0-2.978-3.128,9.7,9.7,0,0,0-5.245-1.29,8.713,8.713,0,0,0-5.951,2.21,9.954,9.954,0,0,0-3.191,5.889Z" fill="#656c73"/>
        <path id="Path_15" data-name="Path 15" d="M1067.466,527.806h4.97v4.97h.247a8.211,8.211,0,0,1,3.527-4.234,9.772,9.772,0,0,1,5.308-1.716,10.127,10.127,0,0,1,3.56.614v5.581a8.837,8.837,0,0,0-4.3-.918,7.042,7.042,0,0,0-4.018,1.259,9.069,9.069,0,0,0-2.976,3.352,9.582,9.582,0,0,0-1.1,4.551V558.24h-5.217Z" fill="#656c73"/>
        <path id="Path_16" data-name="Path 16" d="M1107.934,557.842a15.858,15.858,0,0,1-8.866-10.522l4.97-2.026a12.8,12.8,0,0,0,3.865,6.442,9.566,9.566,0,0,0,6.567,2.515,10.246,10.246,0,0,0,6.5-2.055,6.725,6.725,0,0,0,2.64-5.615,6.48,6.48,0,0,0-2.239-5.061,21.715,21.715,0,0,0-7.332-3.711l-2.762-.983a21.968,21.968,0,0,1-7.609-4.357,9.639,9.639,0,0,1-2.944-7.485,10.5,10.5,0,0,1,1.719-5.8,12.328,12.328,0,0,1,4.754-4.263,14.482,14.482,0,0,1,6.842-1.6,14.831,14.831,0,0,1,6.656,1.412,13.719,13.719,0,0,1,4.541,3.436,11.854,11.854,0,0,1,2.3,3.99l-4.847,2.085a8.42,8.42,0,0,0-8.528-5.953,8.979,8.979,0,0,0-5.769,1.9,5.872,5.872,0,0,0-2.393,4.785,5.145,5.145,0,0,0,2.024,4.2,20.737,20.737,0,0,0,6.138,3.038l2.822.98a24.517,24.517,0,0,1,8.743,5.064,10.906,10.906,0,0,1,3.16,8.252,11.468,11.468,0,0,1-2.179,7.119,12.808,12.808,0,0,1-5.49,4.231,18.057,18.057,0,0,1-6.874,1.35A15.579,15.579,0,0,1,1107.934,557.842Z" fill="#656c73"/>
        <path id="Path_17" data-name="Path 17" d="M1141.557,558.6a8.131,8.131,0,0,1-2.669-1.688,7.309,7.309,0,0,1-1.81-2.78,10.991,10.991,0,0,1-.583-3.782V532.532h-5.4v-4.726h5.4v-9.082h5.155v9.082h7.485v4.726h-7.485V549.1a6.018,6.018,0,0,0,1.043,3.894,3.741,3.741,0,0,0,3.191,1.381,6.234,6.234,0,0,0,3.314-.861v5.032a10.342,10.342,0,0,1-1.873.52,14.283,14.283,0,0,1-2.361.154A9.111,9.111,0,0,1,1141.557,558.6Z" fill="#656c73"/>
        <path id="Path_18" data-name="Path 18" d="M1157.265,555.97q-2.914-3.249-2.915-9.02V527.806h5.214v18.286q0,8.408,7.548,8.406a7.614,7.614,0,0,0,4.509-1.412,9.277,9.277,0,0,0,3.069-3.68,11.071,11.071,0,0,0,1.074-4.788V527.806h5.155V558.24h-4.91V553.7h-.245a10.94,10.94,0,0,1-4.08,3.928,11.429,11.429,0,0,1-5.86,1.594Q1160.18,559.221,1157.265,555.97Z" fill="#656c73"/>
        <path id="Path_19" data-name="Path 19" d="M1193.189,557.135a14.93,14.93,0,0,1-5.276-5.8,18.582,18.582,0,0,1,0-16.629,14.958,14.958,0,0,1,5.276-5.8,13.329,13.329,0,0,1,7.241-2.086,12.946,12.946,0,0,1,6.382,1.563,11.076,11.076,0,0,1,4.234,3.9h.245l-.245-4.172v-13.8h5.155V558.24h-4.91V553.7h-.245a10.881,10.881,0,0,1-4.234,3.959,12.946,12.946,0,0,1-6.382,1.563A13.337,13.337,0,0,1,1193.189,557.135Zm13.041-4.018a9.91,9.91,0,0,0,3.68-4.018,14.119,14.119,0,0,0,0-12.18,9.936,9.936,0,0,0-3.68-3.989,9.546,9.546,0,0,0-5-1.381,9.393,9.393,0,0,0-5,1.412,10.156,10.156,0,0,0-3.68,4.018,13.919,13.919,0,0,0,0,12.089,10.13,10.13,0,0,0,3.68,4.018,9.393,9.393,0,0,0,5,1.412A9.546,9.546,0,0,0,1206.23,553.117Z" fill="#656c73"/>
        <path id="Path_20" data-name="Path 20" d="M1228.625,557.135a14.629,14.629,0,0,1-5.431-5.766,17.466,17.466,0,0,1-1.963-8.346,18.054,18.054,0,0,1,1.841-8.13,14.5,14.5,0,0,1,5.246-5.89,14.2,14.2,0,0,1,7.823-2.177,14.871,14.871,0,0,1,7.763,1.992,13.147,13.147,0,0,1,5.124,5.615,18.7,18.7,0,0,1,1.779,8.346,4.392,4.392,0,0,1-.122,1.227h-24.177a11.182,11.182,0,0,0,1.657,5.8,9.86,9.86,0,0,0,3.836,3.529,10.4,10.4,0,0,0,4.754,1.165q5.769,0,8.9-5.646l4.6,2.21a15.789,15.789,0,0,1-5.43,5.92,16.255,16.255,0,0,1-16.2.153Zm16.66-17.487a9.654,9.654,0,0,0-1.043-3.681,7.878,7.878,0,0,0-2.977-3.128,9.711,9.711,0,0,0-5.246-1.29,8.714,8.714,0,0,0-5.951,2.21,9.954,9.954,0,0,0-3.191,5.889Z" fill="#656c73"/>
        <path id="Path_21" data-name="Path 21" d="M1256.081,527.806h4.97v4.541h.247a10.4,10.4,0,0,1,4.05-3.927,11.582,11.582,0,0,1,5.89-1.594q5.583,0,8.5,3.251t2.915,8.9V558.24H1277.5V539.772q0-8.223-7.67-8.223a7.379,7.379,0,0,0-4.416,1.412,9.391,9.391,0,0,0-3.038,3.68,11.055,11.055,0,0,0-1.074,4.788V558.24h-5.217Z" fill="#656c73"/>
        <path id="Path_22" data-name="Path 22" d="M1296.242,558.6a8.125,8.125,0,0,1-2.668-1.688,7.286,7.286,0,0,1-1.81-2.78,10.965,10.965,0,0,1-.586-3.782V532.532h-5.4v-4.726h5.4v-9.082h5.155v9.082h7.485v4.726h-7.485V549.1a6.036,6.036,0,0,0,1.043,3.894,3.745,3.745,0,0,0,3.191,1.381,6.234,6.234,0,0,0,3.314-.861v5.032a10.344,10.344,0,0,1-1.873.52,14.265,14.265,0,0,1-2.362.154A9.1,9.1,0,0,1,1296.242,558.6Z" fill="#656c73"/>
        <path id="Path_23" data-name="Path 23" d="M1331.737,556.214a21.655,21.655,0,0,1-8.192-8.283,24.329,24.329,0,0,1,0-23.316,21.7,21.7,0,0,1,8.192-8.283,22.688,22.688,0,0,1,11.535-3.007,21.432,21.432,0,0,1,9.05,1.873,20.3,20.3,0,0,1,7.025,5.308l-3.68,3.62a15.608,15.608,0,0,0-5.493-4.418,16.172,16.172,0,0,0-6.9-1.413,17.493,17.493,0,0,0-8.713,2.24,16.7,16.7,0,0,0-6.351,6.319,19.969,19.969,0,0,0,0,18.838,16.644,16.644,0,0,0,6.351,6.32,17.471,17.471,0,0,0,8.713,2.239,17.249,17.249,0,0,0,13.622-6.564l3.743,3.682a21.566,21.566,0,0,1-7.488,5.737,23.85,23.85,0,0,1-21.412-.892Z" fill="#656c73"/>
        <path id="Path_24" data-name="Path 24" d="M1365.729,514.308h5.215V558.24h-5.215Z" fill="#656c73"/>
        <path id="Path_25" data-name="Path 25" d="M1380.608,555.97q-2.914-3.249-2.913-9.02V527.806h5.215v18.286q0,8.408,7.547,8.406a7.615,7.615,0,0,0,4.51-1.412,9.3,9.3,0,0,0,3.069-3.68,11.07,11.07,0,0,0,1.071-4.788V527.806h5.155V558.24h-4.907V553.7h-.248a10.941,10.941,0,0,1-4.078,3.928,11.434,11.434,0,0,1-5.862,1.594Q1383.523,559.221,1380.608,555.97Z" fill="#656c73"/>
        <path id="Path_26" data-name="Path 26" d="M1420.735,557.658a10.937,10.937,0,0,1-4.2-3.959h-.245v4.541h-4.97V514.308h5.215v13.8l-.245,4.172h.245a11.7,11.7,0,0,1,4.234-3.9,12.722,12.722,0,0,1,6.382-1.563,13.185,13.185,0,0,1,7.24,2.117,15.224,15.224,0,0,1,5.277,5.8,18.451,18.451,0,0,1,0,16.567,15.253,15.253,0,0,1-5.277,5.8,13.2,13.2,0,0,1-7.24,2.115A12.9,12.9,0,0,1,1420.735,557.658Zm10.617-4.572a10.15,10.15,0,0,0,3.682-4.018,13.938,13.938,0,0,0,0-12.089,10.177,10.177,0,0,0-3.682-4.018,9.4,9.4,0,0,0-5-1.412,9.545,9.545,0,0,0-5,1.381,9.951,9.951,0,0,0-3.68,3.989,14.119,14.119,0,0,0,0,12.18,9.924,9.924,0,0,0,3.68,4.018,9.545,9.545,0,0,0,5,1.381A9.4,9.4,0,0,0,1431.352,553.086Z" fill="#656c73"/>
        <path id="Path_27" data-name="Path 27" d="M1449.115,556.768a13.054,13.054,0,0,1-4.723-6.075l4.6-2.023a9.865,9.865,0,0,0,3.467,4.416,8.443,8.443,0,0,0,4.879,1.534,8.614,8.614,0,0,0,4.876-1.287,3.723,3.723,0,0,0,1.932-3.132,3.636,3.636,0,0,0-1.44-2.944,13.226,13.226,0,0,0-4.939-2.026l-4.172-1.043a13.482,13.482,0,0,1-5.862-2.884,6.922,6.922,0,0,1-2.421-5.521,7.5,7.5,0,0,1,1.625-4.848,10.028,10.028,0,0,1,4.325-3.066,16.176,16.176,0,0,1,5.891-1.043,14.333,14.333,0,0,1,7.147,1.81,10.129,10.129,0,0,1,4.572,5.123l-4.6,1.964a6.532,6.532,0,0,0-2.978-3.254,9.46,9.46,0,0,0-4.447-1.042,8.229,8.229,0,0,0-4.325,1.165,3.441,3.441,0,0,0-1.932,3.006,2.952,2.952,0,0,0,1.256,2.518,12.533,12.533,0,0,0,4.018,1.656l4.541,1.1a14.205,14.205,0,0,1,6.78,3.467,7.6,7.6,0,0,1,2.239,5.493,8.033,8.033,0,0,1-1.532,4.785,10.248,10.248,0,0,1-4.3,3.376,15.274,15.274,0,0,1-6.257,1.225A13.6,13.6,0,0,1,1449.115,556.768Z" fill="#656c73"/>
      </g>
      <g id="Group_6" data-name="Group 6">
        <g id="Group_2" data-name="Group 2">
          <path id="Path_28" data-name="Path 28" d="M479.412,536.942l19.669-11.356a9.678,9.678,0,0,0-9.678-16.762l-33.987,19.622Z" fill="#ea4335"/>
        </g>
        <g id="Group_3" data-name="Group 3">
          <path id="Path_29" data-name="Path 29" d="M494.233,566.129a9.679,9.679,0,0,0,4.848-18.061l-33.987-19.622a9.678,9.678,0,0,0-9.678,16.763L489.4,564.83A9.623,9.623,0,0,0,494.233,566.129Z" fill="#4285f4"/>
        </g>
        <g id="Group_4" data-name="Group 4">
          <path id="Path_30" data-name="Path 30" d="M528.04,566.129a9.623,9.623,0,0,0,4.83-1.3l33.986-19.621-23.69-8.673-19.974,11.532a9.679,9.679,0,0,0,4.848,18.061Z" fill="#fbbc04"/>
        </g>
        <g id="Group_5" data-name="Group 5">
          <path id="Path_31" data-name="Path 31" d="M562.008,546.507a9.679,9.679,0,0,0,4.848-18.061L532.87,508.824a9.678,9.678,0,0,0-9.678,16.762l33.987,19.623A9.641,9.641,0,0,0,562.008,546.507Z" fill="#34a853"/>
        </g>
      </g>
    </g>
    <g id="Group_10" data-name="Group 10" transform="translate(62 -66)">
      <g id="Group_1-2" data-name="Group 1">
        <path id="Path_1-2" data-name="Path 1" d="M610.2,556.214a22.04,22.04,0,0,1-8.284-8.283,23.894,23.894,0,0,1,0-23.316,22.083,22.083,0,0,1,8.284-8.283,22.627,22.627,0,0,1,11.443-3.007,24.2,24.2,0,0,1,9.113,1.719,18.3,18.3,0,0,1,7.025,4.848l-3.743,3.743a13.5,13.5,0,0,0-5.368-3.959,17.959,17.959,0,0,0-7.027-1.381,17.44,17.44,0,0,0-8.622,2.24,17.092,17.092,0,0,0-6.442,6.319,19.512,19.512,0,0,0,0,18.838,17.036,17.036,0,0,0,6.442,6.32,17.283,17.283,0,0,0,21.2-2.791,13.371,13.371,0,0,0,2.577-4.172,17.25,17.25,0,0,0,1.165-5.339h-16.2v-4.848h21.108a18.214,18.214,0,0,1,.307,3.191,24.631,24.631,0,0,1-1.287,7.886,17.457,17.457,0,0,1-4.112,6.718q-6.2,6.566-16.138,6.564A22.6,22.6,0,0,1,610.2,556.214Z" fill="#656c73"/>
        <path id="Path_2-2" data-name="Path 2" d="M654.649,557.106a14.782,14.782,0,0,1-5.552-5.83,18.066,18.066,0,0,1,0-16.505,14.749,14.749,0,0,1,5.552-5.828,15.409,15.409,0,0,1,8.037-2.117,15.581,15.581,0,0,1,8.07,2.117,14.718,14.718,0,0,1,5.584,5.828,18.066,18.066,0,0,1,0,16.505,14.75,14.75,0,0,1-5.584,5.83,15.6,15.6,0,0,1-8.07,2.115A15.427,15.427,0,0,1,654.649,557.106Zm13.192-4.02a10.368,10.368,0,0,0,3.836-4.018,13.4,13.4,0,0,0,0-12.089,10.4,10.4,0,0,0-3.836-4.018,9.974,9.974,0,0,0-5.155-1.412,9.862,9.862,0,0,0-5.092,1.412,10.376,10.376,0,0,0-3.834,4.018,13.381,13.381,0,0,0,0,12.089,10.349,10.349,0,0,0,3.834,4.018,9.862,9.862,0,0,0,5.092,1.412A9.974,9.974,0,0,0,667.841,553.086Z" fill="#656c73"/>
        <path id="Path_3-2" data-name="Path 3" d="M689.44,557.106a14.776,14.776,0,0,1-5.553-5.83,18.066,18.066,0,0,1,0-16.505,14.744,14.744,0,0,1,5.553-5.828,15.408,15.408,0,0,1,8.036-2.117,15.579,15.579,0,0,1,8.07,2.117,14.711,14.711,0,0,1,5.584,5.828,18.066,18.066,0,0,1,0,16.505,14.743,14.743,0,0,1-5.584,5.83,15.6,15.6,0,0,1-8.07,2.115A15.426,15.426,0,0,1,689.44,557.106Zm13.191-4.02a10.353,10.353,0,0,0,3.836-4.018,13.4,13.4,0,0,0,0-12.089,10.38,10.38,0,0,0-3.836-4.018,9.969,9.969,0,0,0-5.155-1.412,9.868,9.868,0,0,0-5.092,1.412,10.383,10.383,0,0,0-3.834,4.018,13.381,13.381,0,0,0,0,12.089,10.356,10.356,0,0,0,3.834,4.018,9.868,9.868,0,0,0,5.092,1.412A9.969,9.969,0,0,0,702.631,553.086Z" fill="#656c73"/>
        <path id="Path_4-2" data-name="Path 4" d="M722.758,569.837a13.153,13.153,0,0,1-4.725-6.135l4.848-2.026a8.744,8.744,0,0,0,3.282,4.388,9.414,9.414,0,0,0,5.615,1.687q4.845,0,7.453-2.814t2.609-7.862v-3.253h-.247a11.433,11.433,0,0,1-4.231,3.867,12.681,12.681,0,0,1-6.26,1.532,13.174,13.174,0,0,1-7.179-2.094,14.992,14.992,0,0,1-5.277-5.789,18.59,18.59,0,0,1,0-16.629,15.036,15.036,0,0,1,5.277-5.79,13.181,13.181,0,0,1,7.179-2.093,12.681,12.681,0,0,1,6.26,1.532,11.45,11.45,0,0,1,4.231,3.867h.247v-4.419h4.97v29.207a17.2,17.2,0,0,1-1.963,8.53,12.6,12.6,0,0,1-5.368,5.215,16.886,16.886,0,0,1-7.7,1.716A14.576,14.576,0,0,1,722.758,569.837Zm14.112-16.728a10.082,10.082,0,0,0,3.651-3.976,12.813,12.813,0,0,0,1.379-6.11,12.981,12.981,0,0,0-1.379-6.137,9.83,9.83,0,0,0-3.651-3.98,9.506,9.506,0,0,0-4.97-1.357,9.344,9.344,0,0,0-4.97,1.389,10.107,10.107,0,0,0-3.652,3.979,14.2,14.2,0,0,0,0,12.216,10.091,10.091,0,0,0,3.652,3.976,9.586,9.586,0,0,0,9.94,0Z" fill="#656c73"/>
        <path id="Path_5-2" data-name="Path 5" d="M753.866,514.308h5.215V558.24h-5.215Z" fill="#656c73"/>
        <path id="Path_6-2" data-name="Path 6" d="M771.445,557.135a14.63,14.63,0,0,1-5.431-5.766,17.466,17.466,0,0,1-1.963-8.346,18.042,18.042,0,0,1,1.841-8.13,14.5,14.5,0,0,1,5.246-5.89,14.2,14.2,0,0,1,7.823-2.177,14.874,14.874,0,0,1,7.763,1.992,13.148,13.148,0,0,1,5.124,5.615,18.711,18.711,0,0,1,1.778,8.346,4.352,4.352,0,0,1-.122,1.227H769.328a11.193,11.193,0,0,0,1.656,5.8,9.867,9.867,0,0,0,3.836,3.529,10.4,10.4,0,0,0,4.755,1.165q5.769,0,8.9-5.646l4.6,2.21a15.8,15.8,0,0,1-5.43,5.92,16.255,16.255,0,0,1-16.2.153Zm16.66-17.487a9.653,9.653,0,0,0-1.043-3.681,7.882,7.882,0,0,0-2.978-3.128,9.7,9.7,0,0,0-5.245-1.29,8.712,8.712,0,0,0-5.951,2.21,9.948,9.948,0,0,0-3.191,5.889Z" fill="#656c73"/>
        <path id="Path_7-2" data-name="Path 7" d="M813.567,514.308h13.315a23.892,23.892,0,0,1,11.779,2.791,19.217,19.217,0,0,1,7.732,7.763,25.469,25.469,0,0,1,0,22.825,19.217,19.217,0,0,1-7.732,7.763,23.9,23.9,0,0,1-11.779,2.79H813.567Zm13.315,38.962q7.791,0,12.333-4.478t4.541-12.518q0-8.035-4.541-12.517t-12.333-4.479h-8.1V553.27Z" fill="#656c73"/>
        <path id="Path_8-2" data-name="Path 8" d="M860.906,557.135a14.6,14.6,0,0,1-5.431-5.766,17.432,17.432,0,0,1-1.963-8.346,18.042,18.042,0,0,1,1.841-8.13A14.5,14.5,0,0,1,860.6,529a14.2,14.2,0,0,1,7.823-2.177,14.86,14.86,0,0,1,7.76,1.992,13.129,13.129,0,0,1,5.124,5.615,18.7,18.7,0,0,1,1.781,8.346,4.26,4.26,0,0,1-.124,1.227H858.789a11.165,11.165,0,0,0,1.656,5.8,9.876,9.876,0,0,0,3.834,3.529,10.409,10.409,0,0,0,4.757,1.165q5.766,0,8.9-5.646l4.6,2.21a15.76,15.76,0,0,1-5.431,5.92,16.25,16.25,0,0,1-16.2.153Zm16.657-17.487a9.67,9.67,0,0,0-1.042-3.681,7.876,7.876,0,0,0-2.976-3.128,9.712,9.712,0,0,0-5.245-1.29,8.725,8.725,0,0,0-5.954,2.21,9.953,9.953,0,0,0-3.191,5.889Z" fill="#656c73"/>
        <path id="Path_9-2" data-name="Path 9" d="M884.312,527.806h5.647l9.326,24.3h.122l9.449-24.3h5.524L901.922,558.24h-5.277Z" fill="#656c73"/>
        <path id="Path_10-2" data-name="Path 10" d="M923.919,557.135a14.634,14.634,0,0,1-5.43-5.766,17.466,17.466,0,0,1-1.963-8.346,18.042,18.042,0,0,1,1.841-8.13,14.5,14.5,0,0,1,5.246-5.89,14.2,14.2,0,0,1,7.823-2.177,14.876,14.876,0,0,1,7.763,1.992,13.139,13.139,0,0,1,5.123,5.615,18.7,18.7,0,0,1,1.779,8.346,4.352,4.352,0,0,1-.122,1.227H921.8a11.2,11.2,0,0,0,1.657,5.8,9.867,9.867,0,0,0,3.836,3.529,10.4,10.4,0,0,0,4.754,1.165q5.77,0,8.9-5.646l4.6,2.21a15.8,15.8,0,0,1-5.43,5.92,16.257,16.257,0,0,1-16.2.153Zm16.661-17.487a9.654,9.654,0,0,0-1.043-3.681,7.882,7.882,0,0,0-2.978-3.128,9.706,9.706,0,0,0-5.246-1.29,8.712,8.712,0,0,0-5.95,2.21,9.948,9.948,0,0,0-3.191,5.889Z" fill="#656c73"/>
        <path id="Path_11-2" data-name="Path 11" d="M951.376,514.308h5.217V558.24h-5.217Z" fill="#656c73"/>
        <path id="Path_12-2" data-name="Path 12" d="M969.11,557.106a14.782,14.782,0,0,1-5.552-5.83,18.066,18.066,0,0,1,0-16.505,14.749,14.749,0,0,1,5.552-5.828,15.409,15.409,0,0,1,8.037-2.117,15.584,15.584,0,0,1,8.07,2.117,14.718,14.718,0,0,1,5.584,5.828,18.075,18.075,0,0,1,0,16.505,14.75,14.75,0,0,1-5.584,5.83,15.6,15.6,0,0,1-8.07,2.115A15.427,15.427,0,0,1,969.11,557.106Zm13.191-4.02a10.363,10.363,0,0,0,3.837-4.018,13.406,13.406,0,0,0,0-12.089,10.39,10.39,0,0,0-3.837-4.018,9.968,9.968,0,0,0-5.154-1.412,9.868,9.868,0,0,0-5.093,1.412,10.381,10.381,0,0,0-3.833,4.018,13.373,13.373,0,0,0,0,12.089,10.354,10.354,0,0,0,3.833,4.018,9.868,9.868,0,0,0,5.093,1.412A9.968,9.968,0,0,0,982.3,553.086Z" fill="#656c73"/>
        <path id="Path_13-2" data-name="Path 13" d="M997.521,527.806h4.97v4.479h.245a11.672,11.672,0,0,1,4.234-3.9,12.716,12.716,0,0,1,6.382-1.563,13.174,13.174,0,0,1,7.238,2.117,15.193,15.193,0,0,1,5.277,5.8,18.459,18.459,0,0,1,0,16.567,15.221,15.221,0,0,1-5.277,5.8,13.188,13.188,0,0,1-7.238,2.115,12.9,12.9,0,0,1-6.414-1.563,10.916,10.916,0,0,1-4.2-3.959h-.245l.245,4.235v13.56h-5.215Zm20.034,25.28a10.166,10.166,0,0,0,3.68-4.018,13.918,13.918,0,0,0,0-12.089,10.193,10.193,0,0,0-3.68-4.018,9.394,9.394,0,0,0-5-1.412,9.545,9.545,0,0,0-5,1.381,9.934,9.934,0,0,0-3.682,3.989,14.137,14.137,0,0,0,0,12.18,9.908,9.908,0,0,0,3.682,4.018,9.545,9.545,0,0,0,5,1.381A9.394,9.394,0,0,0,1017.555,553.086Z" fill="#656c73"/>
        <path id="Path_14-2" data-name="Path 14" d="M1040.01,557.135a14.629,14.629,0,0,1-5.431-5.766,17.466,17.466,0,0,1-1.963-8.346,18.054,18.054,0,0,1,1.841-8.13A14.5,14.5,0,0,1,1039.7,529a14.2,14.2,0,0,1,7.823-2.177,14.871,14.871,0,0,1,7.763,1.992,13.147,13.147,0,0,1,5.124,5.615,18.7,18.7,0,0,1,1.779,8.346,4.34,4.34,0,0,1-.123,1.227h-24.176a11.193,11.193,0,0,0,1.656,5.8,9.863,9.863,0,0,0,3.837,3.529,10.4,10.4,0,0,0,4.754,1.165q5.769,0,8.9-5.646l4.6,2.21a15.8,15.8,0,0,1-5.43,5.92,16.255,16.255,0,0,1-16.2.153Zm16.66-17.487a9.654,9.654,0,0,0-1.043-3.681,7.874,7.874,0,0,0-2.978-3.128,9.7,9.7,0,0,0-5.245-1.29,8.713,8.713,0,0,0-5.951,2.21,9.954,9.954,0,0,0-3.191,5.889Z" fill="#656c73"/>
        <path id="Path_15-2" data-name="Path 15" d="M1067.466,527.806h4.97v4.97h.247a8.211,8.211,0,0,1,3.527-4.234,9.772,9.772,0,0,1,5.308-1.716,10.127,10.127,0,0,1,3.56.614v5.581a8.837,8.837,0,0,0-4.3-.918,7.042,7.042,0,0,0-4.018,1.259,9.069,9.069,0,0,0-2.976,3.352,9.582,9.582,0,0,0-1.1,4.551V558.24h-5.217Z" fill="#656c73"/>
        <path id="Path_16-2" data-name="Path 16" d="M1107.934,557.842a15.858,15.858,0,0,1-8.866-10.522l4.97-2.026a12.8,12.8,0,0,0,3.865,6.442,9.566,9.566,0,0,0,6.567,2.515,10.246,10.246,0,0,0,6.5-2.055,6.725,6.725,0,0,0,2.64-5.615,6.48,6.48,0,0,0-2.239-5.061,21.715,21.715,0,0,0-7.332-3.711l-2.762-.983a21.968,21.968,0,0,1-7.609-4.357,9.639,9.639,0,0,1-2.944-7.485,10.5,10.5,0,0,1,1.719-5.8,12.328,12.328,0,0,1,4.754-4.263,14.482,14.482,0,0,1,6.842-1.6,14.831,14.831,0,0,1,6.656,1.412,13.719,13.719,0,0,1,4.541,3.436,11.854,11.854,0,0,1,2.3,3.99l-4.847,2.085a8.42,8.42,0,0,0-8.528-5.953,8.979,8.979,0,0,0-5.769,1.9,5.872,5.872,0,0,0-2.393,4.785,5.145,5.145,0,0,0,2.024,4.2,20.737,20.737,0,0,0,6.138,3.038l2.822.98a24.517,24.517,0,0,1,8.743,5.064,10.906,10.906,0,0,1,3.16,8.252,11.468,11.468,0,0,1-2.179,7.119,12.808,12.808,0,0,1-5.49,4.231,18.057,18.057,0,0,1-6.874,1.35A15.579,15.579,0,0,1,1107.934,557.842Z" fill="#656c73"/>
        <path id="Path_17-2" data-name="Path 17" d="M1141.557,558.6a8.131,8.131,0,0,1-2.669-1.688,7.309,7.309,0,0,1-1.81-2.78,10.991,10.991,0,0,1-.583-3.782V532.532h-5.4v-4.726h5.4v-9.082h5.155v9.082h7.485v4.726h-7.485V549.1a6.018,6.018,0,0,0,1.043,3.894,3.741,3.741,0,0,0,3.191,1.381,6.234,6.234,0,0,0,3.314-.861v5.032a10.342,10.342,0,0,1-1.873.52,14.283,14.283,0,0,1-2.361.154A9.111,9.111,0,0,1,1141.557,558.6Z" fill="#656c73"/>
        <path id="Path_18-2" data-name="Path 18" d="M1157.265,555.97q-2.914-3.249-2.915-9.02V527.806h5.214v18.286q0,8.408,7.548,8.406a7.614,7.614,0,0,0,4.509-1.412,9.277,9.277,0,0,0,3.069-3.68,11.071,11.071,0,0,0,1.074-4.788V527.806h5.155V558.24h-4.91V553.7h-.245a10.94,10.94,0,0,1-4.08,3.928,11.429,11.429,0,0,1-5.86,1.594Q1160.18,559.221,1157.265,555.97Z" fill="#656c73"/>
        <path id="Path_19-2" data-name="Path 19" d="M1193.189,557.135a14.93,14.93,0,0,1-5.276-5.8,18.582,18.582,0,0,1,0-16.629,14.958,14.958,0,0,1,5.276-5.8,13.329,13.329,0,0,1,7.241-2.086,12.946,12.946,0,0,1,6.382,1.563,11.076,11.076,0,0,1,4.234,3.9h.245l-.245-4.172v-13.8h5.155V558.24h-4.91V553.7h-.245a10.881,10.881,0,0,1-4.234,3.959,12.946,12.946,0,0,1-6.382,1.563A13.337,13.337,0,0,1,1193.189,557.135Zm13.041-4.018a9.91,9.91,0,0,0,3.68-4.018,14.119,14.119,0,0,0,0-12.18,9.936,9.936,0,0,0-3.68-3.989,9.546,9.546,0,0,0-5-1.381,9.393,9.393,0,0,0-5,1.412,10.156,10.156,0,0,0-3.68,4.018,13.919,13.919,0,0,0,0,12.089,10.13,10.13,0,0,0,3.68,4.018,9.393,9.393,0,0,0,5,1.412A9.546,9.546,0,0,0,1206.23,553.117Z" fill="#656c73"/>
        <path id="Path_20-2" data-name="Path 20" d="M1228.625,557.135a14.629,14.629,0,0,1-5.431-5.766,17.466,17.466,0,0,1-1.963-8.346,18.054,18.054,0,0,1,1.841-8.13,14.5,14.5,0,0,1,5.246-5.89,14.2,14.2,0,0,1,7.823-2.177,14.871,14.871,0,0,1,7.763,1.992,13.147,13.147,0,0,1,5.124,5.615,18.7,18.7,0,0,1,1.779,8.346,4.392,4.392,0,0,1-.122,1.227h-24.177a11.182,11.182,0,0,0,1.657,5.8,9.86,9.86,0,0,0,3.836,3.529,10.4,10.4,0,0,0,4.754,1.165q5.769,0,8.9-5.646l4.6,2.21a15.789,15.789,0,0,1-5.43,5.92,16.255,16.255,0,0,1-16.2.153Zm16.66-17.487a9.654,9.654,0,0,0-1.043-3.681,7.878,7.878,0,0,0-2.977-3.128,9.711,9.711,0,0,0-5.246-1.29,8.714,8.714,0,0,0-5.951,2.21,9.954,9.954,0,0,0-3.191,5.889Z" fill="#656c73"/>
        <path id="Path_21-2" data-name="Path 21" d="M1256.081,527.806h4.97v4.541h.247a10.4,10.4,0,0,1,4.05-3.927,11.582,11.582,0,0,1,5.89-1.594q5.583,0,8.5,3.251t2.915,8.9V558.24H1277.5V539.772q0-8.223-7.67-8.223a7.379,7.379,0,0,0-4.416,1.412,9.391,9.391,0,0,0-3.038,3.68,11.055,11.055,0,0,0-1.074,4.788V558.24h-5.217Z" fill="#656c73"/>
        <path id="Path_22-2" data-name="Path 22" d="M1296.242,558.6a8.125,8.125,0,0,1-2.668-1.688,7.286,7.286,0,0,1-1.81-2.78,10.965,10.965,0,0,1-.586-3.782V532.532h-5.4v-4.726h5.4v-9.082h5.155v9.082h7.485v4.726h-7.485V549.1a6.036,6.036,0,0,0,1.043,3.894,3.745,3.745,0,0,0,3.191,1.381,6.234,6.234,0,0,0,3.314-.861v5.032a10.344,10.344,0,0,1-1.873.52,14.265,14.265,0,0,1-2.362.154A9.1,9.1,0,0,1,1296.242,558.6Z" fill="#656c73"/>
        <path id="Path_23-2" data-name="Path 23" d="M1331.737,556.214a21.655,21.655,0,0,1-8.192-8.283,24.329,24.329,0,0,1,0-23.316,21.7,21.7,0,0,1,8.192-8.283,22.688,22.688,0,0,1,11.535-3.007,21.432,21.432,0,0,1,9.05,1.873,20.3,20.3,0,0,1,7.025,5.308l-3.68,3.62a15.608,15.608,0,0,0-5.493-4.418,16.172,16.172,0,0,0-6.9-1.413,17.493,17.493,0,0,0-8.713,2.24,16.7,16.7,0,0,0-6.351,6.319,19.969,19.969,0,0,0,0,18.838,16.644,16.644,0,0,0,6.351,6.32,17.471,17.471,0,0,0,8.713,2.239,17.249,17.249,0,0,0,13.622-6.564l3.743,3.682a21.566,21.566,0,0,1-7.488,5.737,23.85,23.85,0,0,1-21.412-.892Z" fill="#656c73"/>
        <path id="Path_24-2" data-name="Path 24" d="M1365.729,514.308h5.215V558.24h-5.215Z" fill="#656c73"/>
        <path id="Path_25-2" data-name="Path 25" d="M1380.608,555.97q-2.914-3.249-2.913-9.02V527.806h5.215v18.286q0,8.408,7.547,8.406a7.615,7.615,0,0,0,4.51-1.412,9.3,9.3,0,0,0,3.069-3.68,11.07,11.07,0,0,0,1.071-4.788V527.806h5.155V558.24h-4.907V553.7h-.248a10.941,10.941,0,0,1-4.078,3.928,11.434,11.434,0,0,1-5.862,1.594Q1383.523,559.221,1380.608,555.97Z" fill="#656c73"/>
        <path id="Path_26-2" data-name="Path 26" d="M1420.735,557.658a10.937,10.937,0,0,1-4.2-3.959h-.245v4.541h-4.97V514.308h5.215v13.8l-.245,4.172h.245a11.7,11.7,0,0,1,4.234-3.9,12.722,12.722,0,0,1,6.382-1.563,13.185,13.185,0,0,1,7.24,2.117,15.224,15.224,0,0,1,5.277,5.8,18.451,18.451,0,0,1,0,16.567,15.253,15.253,0,0,1-5.277,5.8,13.2,13.2,0,0,1-7.24,2.115A12.9,12.9,0,0,1,1420.735,557.658Zm10.617-4.572a10.15,10.15,0,0,0,3.682-4.018,13.938,13.938,0,0,0,0-12.089,10.177,10.177,0,0,0-3.682-4.018,9.4,9.4,0,0,0-5-1.412,9.545,9.545,0,0,0-5,1.381,9.951,9.951,0,0,0-3.68,3.989,14.119,14.119,0,0,0,0,12.18,9.924,9.924,0,0,0,3.68,4.018,9.545,9.545,0,0,0,5,1.381A9.4,9.4,0,0,0,1431.352,553.086Z" fill="#656c73"/>
        <path id="Path_27-2" data-name="Path 27" d="M1449.115,556.768a13.054,13.054,0,0,1-4.723-6.075l4.6-2.023a9.865,9.865,0,0,0,3.467,4.416,8.443,8.443,0,0,0,4.879,1.534,8.614,8.614,0,0,0,4.876-1.287,3.723,3.723,0,0,0,1.932-3.132,3.636,3.636,0,0,0-1.44-2.944,13.226,13.226,0,0,0-4.939-2.026l-4.172-1.043a13.482,13.482,0,0,1-5.862-2.884,6.922,6.922,0,0,1-2.421-5.521,7.5,7.5,0,0,1,1.625-4.848,10.028,10.028,0,0,1,4.325-3.066,16.176,16.176,0,0,1,5.891-1.043,14.333,14.333,0,0,1,7.147,1.81,10.129,10.129,0,0,1,4.572,5.123l-4.6,1.964a6.532,6.532,0,0,0-2.978-3.254,9.46,9.46,0,0,0-4.447-1.042,8.229,8.229,0,0,0-4.325,1.165,3.441,3.441,0,0,0-1.932,3.006,2.952,2.952,0,0,0,1.256,2.518,12.533,12.533,0,0,0,4.018,1.656l4.541,1.1a14.205,14.205,0,0,1,6.78,3.467,7.6,7.6,0,0,1,2.239,5.493,8.033,8.033,0,0,1-1.532,4.785,10.248,10.248,0,0,1-4.3,3.376,15.274,15.274,0,0,1-6.257,1.225A13.6,13.6,0,0,1,1449.115,556.768Z" fill="#656c73"/>
      </g>
      <g id="Group_6-2" data-name="Group 6">
        <g id="Group_2-2" data-name="Group 2">
          <path id="Path_28-2" data-name="Path 28" d="M479.412,536.942l19.669-11.356a9.678,9.678,0,0,0-9.678-16.762l-33.987,19.622Z" fill="#ea4335"/>
        </g>
        <g id="Group_3-2" data-name="Group 3">
          <path id="Path_29-2" data-name="Path 29" d="M494.233,566.129a9.679,9.679,0,0,0,4.848-18.061l-33.987-19.622a9.678,9.678,0,0,0-9.678,16.763L489.4,564.83A9.623,9.623,0,0,0,494.233,566.129Z" fill="#4285f4"/>
        </g>
        <g id="Group_4-2" data-name="Group 4">
          <path id="Path_30-2" data-name="Path 30" d="M528.04,566.129a9.623,9.623,0,0,0,4.83-1.3l33.986-19.621-23.69-8.673-19.974,11.532a9.679,9.679,0,0,0,4.848,18.061Z" fill="#fbbc04"/>
        </g>
        <g id="Group_5-2" data-name="Group 5">
          <path id="Path_31-2" data-name="Path 31" d="M562.008,546.507a9.679,9.679,0,0,0,4.848-18.061L532.87,508.824a9.678,9.678,0,0,0-9.678,16.762l33.987,19.623A9.641,9.641,0,0,0,562.008,546.507Z" fill="#34a853"/>
        </g>
      </g>
    </g>
    <g id="Group_9" data-name="Group 9" transform="translate(62 -66)">
      <g id="Group_8" data-name="Group 8">
        <text id="Vidyalankar_Institute_of_Technology_" data-name="Vidyalankar Institute of Technology " transform="translate(600.002 621.795)" fill="#656c73" font-size="43.009" font-family="SegoeUI, Segoe UI"><tspan x="0" y="0">Vidyalankar Institute of Technology </tspan></text>
      </g>
    </g>
    <g id="Group_11" data-name="Group 11" transform="translate(62 -66)">
      <g id="Group_8-2" data-name="Group 8">
        <text id="Vidyalankar_Institute_of_Technology_2" data-name="Vidyalankar Institute of Technology " transform="translate(600.002 621.795)" fill="#656c73" font-size="43.009" font-family="SegoeUI, Segoe UI"><tspan x="0" y="0">Vidyalankar Institute of Technology </tspan></text>
      </g>
    </g>
  </g>
</svg>
