<svg xmlns="http://www.w3.org/2000/svg" width="39.446" height="41.19" viewBox="0 0 39.446 41.19">
  <g id="Group_1" data-name="Group 1" transform="translate(-4.286 -3.39)">
    <path id="Path_2" data-name="Path 2" d="M43.21,38.33A19.79,19.79,0,1,1,28.92,4.17a19.77,19.77,0,0,0,13.56,34.2A4.41,4.41,0,0,0,43.21,38.33Z" fill="#9a999e"/>
    <path id="Path_3" data-name="Path 3" d="M28.94,4.15A19.78,19.78,0,0,0,25.14,9,19.73,19.73,0,0,0,13.8,26.89a19.53,19.53,0,0,0,6.12,14.28,19.78,19.78,0,0,1,9-37Z" fill="#87868a"/>
    <path id="Path_4" data-name="Path 4" d="M21.77,32.68a5.45,5.45,0,1,0-10.9,0,5.45,5.45,0,1,0,0,10.89h10.9a5.45,5.45,0,1,0,0-10.89Z" fill="#b1d8fa"/>
    <path id="Path_5" data-name="Path 5" d="M21.89,30.93a5.68,5.68,0,0,0-10.11,3.55A5.68,5.68,0,0,0,6.1,40.17a5.83,5.83,0,0,0,.17,1.4,5.68,5.68,0,0,1,4.44-9.24,5.68,5.68,0,0,1,11.18-1.4Z" fill="#99c3dd"/>
    <path id="Path_6" data-name="Path 6" d="M43.73,38.87l-.64-1.28a4.09,4.09,0,0,1-.61,0,19,19,0,0,1-13-32.9l-.54-1.3A20.4,20.4,0,0,0,9.08,23.9a20.68,20.68,0,0,0,1.13,6.77A7.51,7.51,0,0,0,10,31.76a6.43,6.43,0,0,0,.72,12.82H22.07a6.359,6.359,0,0,0,2.819-.659,21,21,0,0,0,4.751.549,20.521,20.521,0,0,0,14.092-5.6Zm-33,4.21a4.93,4.93,0,0,1,0-9.86h.75v-.75a4.93,4.93,0,0,1,9.86,0v.75h.75a4.93,4.93,0,0,1,0,9.86ZM28.5,38.15a6.43,6.43,0,0,0-5.719-6.39A6.42,6.42,0,0,0,11.19,28.7,19,19,0,0,1,27,5.08a20.53,20.53,0,0,0,14.18,34A19,19,0,0,1,29.64,43a19.41,19.41,0,0,1-3.05-.25A6.42,6.42,0,0,0,28.5,38.15Z" fill="#211915"/>
    <path id="Path_7" data-name="Path 7" d="M24.87,38.86c0,2-2.52,2.09-2.8,2.09v1.5c1.49,0,4.3-.75,4.3-3.59Z" fill="#211915"/>
  </g>
</svg>
