<svg xmlns="http://www.w3.org/2000/svg" width="4652.162" height="2861.221" viewBox="0 0 4652.162 2861.221">
  <g id="Code_typing-pana" data-name="Code typing-pana" transform="translate(-23.93 -29.65)">
    <g id="freepik--background-complete--inject-13" transform="translate(23.93 29.65)">
      <rect id="Rectangle_87" data-name="Rectangle 87" width="1009.884" height="676.151" transform="translate(1.127 331.146)" fill="#4285f4"/>
      <path id="Path_483" data-name="Path 483" d="M1034.875,758V710c0-31.3,0-77.184-.332-136,0-117.433-.464-286.322-.8-492.211l1.459,1.459-1009.751.4h0l1.79-1.857v676.35l-1.658-1.658,727.541.8,207.812.464h.729l-207.481.4L25.588,759H23.93V79.2h1.923l1009.751.4h1.459V80.99c-.332,206.287-.6,375.441-.729,493.139,0,58.617-.332,104.436-.4,135.668v35.409A64.2,64.2,0,0,1,1034.875,758Z" transform="translate(-23.93 249.36)" fill="#e0e0e0"/>
      <path id="Path_484" data-name="Path 484" d="M24.1,90.21c0-.995,225.848-1.79,504.478-1.79s504.544.8,504.544,1.79-225.848,1.857-504.544,1.857S24.1,91.271,24.1,90.21Z" transform="translate(-22.973 301.277)" fill="#e0e0e0"/>
      <g id="Group_57" data-name="Group 57" transform="translate(24.733 352.962)" opacity="0.3">
        <path id="Path_485" data-name="Path 485" d="M43.839,90.97a8.09,8.09,0,1,1-8.09-8.09,8.09,8.09,0,0,1,8.09,8.09Z" transform="translate(-27.66 -82.88)" fill="#e0e0e0"/>
      </g>
      <g id="Group_58" data-name="Group 58" transform="translate(52.517 352.962)" opacity="0.3">
        <path id="Path_486" data-name="Path 486" d="M48.029,90.97a8.09,8.09,0,1,1-8.09-8.09A8.09,8.09,0,0,1,48.029,90.97Z" transform="translate(-31.85 -82.88)" fill="#e0e0e0"/>
      </g>
      <g id="Group_59" data-name="Group 59" transform="translate(79.836 352.962)" opacity="0.3">
        <path id="Path_487" data-name="Path 487" d="M52.149,90.97a8.09,8.09,0,1,1-8.09-8.09,8.09,8.09,0,0,1,8.09,8.09Z" transform="translate(-35.97 -82.88)" fill="#e0e0e0"/>
      </g>
      <rect id="Rectangle_88" data-name="Rectangle 88" width="269.347" height="269.413" rx="15" transform="translate(87.926 462.04)" fill="#e0e0e0"/>
      <path id="Path_488" data-name="Path 488" d="M554.064,112.33c0,.995-105.1,1.79-234.667,1.79s-234.667-.8-234.667-1.79,105.1-1.79,234.667-1.79S554.064,111.336,554.064,112.33Z" transform="translate(318.428 425.832)" fill="#e0e0e0"/>
      <path id="Path_489" data-name="Path 489" d="M554.064,119.88c0,.995-105.1,1.79-234.667,1.79s-234.667-.8-234.667-1.79,105.1-1.79,234.667-1.79S554.064,118.886,554.064,119.88Z" transform="translate(318.428 468.345)" fill="#e0e0e0"/>
      <path id="Path_490" data-name="Path 490" d="M554.064,127.43c0,.995-105.1,1.79-234.667,1.79s-234.667-.8-234.667-1.79,105.1-1.79,234.667-1.79S554.064,126.436,554.064,127.43Z" transform="translate(318.428 510.859)" fill="#e0e0e0"/>
      <path id="Path_491" data-name="Path 491" d="M362.1,134.98a64.728,64.728,0,0,1-10.875.729l-29.706.531c-25.131,0-59.678.53-98.071.53s-72.94,0-98.071-.53l-29.706-.531a66.294,66.294,0,0,1-10.941-.729,66.3,66.3,0,0,1,10.941-.729l29.706-.531c25.065-.332,59.678-.53,98.071-.53s72.94,0,98.071.53l29.706.531a64.727,64.727,0,0,1,10.875.729Z" transform="translate(318.428 553.372)" fill="#e0e0e0"/>
      <rect id="Rectangle_89" data-name="Rectangle 89" width="126.584" height="126.584" transform="translate(104.768 822.23)" fill="#e0e0e0"/>
      <rect id="Rectangle_90" data-name="Rectangle 90" width="126.584" height="126.584" transform="translate(334.329 822.23)" fill="#e0e0e0"/>
      <rect id="Rectangle_91" data-name="Rectangle 91" width="126.584" height="126.584" transform="translate(563.957 822.23)" fill="#e0e0e0"/>
      <rect id="Rectangle_92" data-name="Rectangle 92" width="126.584" height="126.584" transform="translate(793.518 822.23)" fill="#e0e0e0"/>
      <path id="Path_723" data-name="Path 723" d="M0,0H869.906V353.36H0Z" transform="translate(1160.007 2.586)" fill="#34a853"/>
      <path id="Path_492" data-name="Path 492" d="M1069.677,385.6V290.31c0-61-.331-149.195-.531-258.6l.995.995-869.906.4h0l1.326-1.392v353.36l-1.26-1.326,623.7.6,180.891.4h.331l-180.625.332-624.563.663H198.71V29.65H200.1l869.906.464h.929v1.857c0,109.476-.4,197.866-.531,259V379.23A22.124,22.124,0,0,1,1069.677,385.6Z" transform="translate(960.236 -29.65)" fill="#e0e0e0"/>
      <path id="Path_493" data-name="Path 493" d="M199,38.412c0-.8,194.417-1.392,434.19-1.392s434.323.6,434.323,1.392S873.1,39.8,633.19,39.8,199,39.142,199,38.412Z" transform="translate(961.869 11.85)" fill="#e0e0e0"/>
      <g id="Group_60" data-name="Group 60" transform="translate(1184.674 22.545)">
        <path id="Path_494" data-name="Path 494" d="M215.189,39.349a6.3,6.3,0,1,1-6.631-6.3A6.631,6.631,0,0,1,215.189,39.349Z" transform="translate(-202.59 -33.05)" fill="#fff"/>
      </g>
      <g id="Group_61" data-name="Group 61" transform="translate(1206.291 22.545)">
        <path id="Path_495" data-name="Path 495" d="M218.449,39.349a6.3,6.3,0,1,1-6.3-6.3A6.631,6.631,0,0,1,218.449,39.349Z" transform="translate(-205.85 -33.05)" fill="#fff"/>
      </g>
      <g id="Group_62" data-name="Group 62" transform="translate(1227.642 22.611)">
        <circle id="Ellipse_392" data-name="Ellipse 392" cx="6.299" cy="6.299" r="6.299" fill="#fff"/>
      </g>
      <rect id="Rectangle_94" data-name="Rectangle 94" width="210.133" height="210.133" rx="15" transform="translate(1233.941 107.685)" fill="#e0e0e0"/>
      <path id="Path_496" data-name="Path 496" d="M731.154,55.562c0,.8-108.15,1.392-241.5,1.392s-241.5-.6-241.5-1.392,108.15-1.392,241.5-1.392S731.154,54.833,731.154,55.562Z" transform="translate(1238.683 108.419)" fill="#e0e0e0"/>
      <path id="Path_497" data-name="Path 497" d="M731.154,62.022c0,.729-108.15,1.326-241.5,1.326s-241.5-.6-241.5-1.326,108.15-1.392,241.5-1.392S731.154,61.227,731.154,62.022Z" transform="translate(1238.683 144.795)" fill="#e0e0e0"/>
      <path id="Path_498" data-name="Path 498" d="M558.807,67.572a10.674,10.674,0,0,1-3.183,0h-9.018l-33.154.464-109.874.4-110.006.133L260.417,68.1h-9.084a11.139,11.139,0,0,1-3.183,0,15.385,15.385,0,0,1,3.183,0h9.084l33.155-.4,109.94-.464,109.874.464,33.154.4h9.018a14.584,14.584,0,0,1,3.249-.53Z" transform="translate(1238.627 182.015)" fill="#e0e0e0"/>
      <path id="Path_507" data-name="Path 507" d="M720.808,389.443c27.584-14.256,60.142-16.113,90.777-11.007,16.444,2.719,33.619,7.625,44.825,19.893s13.262,34.083.464,44.759a43.433,43.433,0,0,1-28.248,7.161c-24,0-50.66-4.509-69.824,9.946-10.941,8.222-18.168,21.882-31.3,25.927A30.9,30.9,0,0,1,693.489,471a53.051,53.051,0,0,1-3.846-38.99A59.68,59.68,0,0,1,720.808,389.443Z" transform="translate(3712.999 1919.763)" fill="#fbbc04"/>
      <path id="Path_508" data-name="Path 508" d="M696.564,572.124c16.909,24.07,49.732,16.113,64.916,1.392S783.1,537.444,789,517.154c13.262-46.416,26.523-95.219,16.909-142.564a79.572,79.572,0,0,0-18.235-38.79,41.31,41.31,0,0,0-39.189-13.262c-16.577,4.376-26.523,20.556-34.281,35.939a339.9,339.9,0,0,0-33.552,145.88c0,23.473,2.652,48.074,15.914,67.5" transform="translate(3673.985 1615.007)" fill="#4285f4"/>
      <path id="Path_509" data-name="Path 509" d="M841.1,540.741c18.3-21.749,21.815-53.445,13.659-80.7a155.56,155.56,0,0,0-47.809-69.359,257.812,257.812,0,0,0-85.6-50.527,91.9,91.9,0,0,0-38.525-6.631,40.581,40.581,0,0,0-32.359,19.893c-8.952,17.174,0,38.061,9.018,55.036a652.773,652.773,0,0,0,56.23,85.671c16.842,21.683,36.138,43.167,61.866,53.047s52.384,8.686,65.977-9.151" transform="translate(3483.104 1680.937)" fill="#ea4335"/>
      <path id="Path_510" data-name="Path 510" d="M683.369,602.64a54.937,54.937,0,0,0,1.525-11.007c.8-7.957,1.724-17.97,2.917-29.906a431.587,431.587,0,0,1,6.631-43.83,341.238,341.238,0,0,1,15.98-51.788A190.965,190.965,0,0,1,736.947,419.3,99.459,99.459,0,0,1,770.1,391.513a94.015,94.015,0,0,1,28.181-8.753,50.983,50.983,0,0,0,10.875-1.591,57,57,0,0,0-11.073,0,84.673,84.673,0,0,0-29.375,7.626A98.733,98.733,0,0,0,733.5,416.777a187.258,187.258,0,0,0-27.452,47.808,317.834,317.834,0,0,0-15.782,52.583A371.964,371.964,0,0,0,684.43,561.6c-.928,12.732-1.326,23.009-1.524,30.1A50.214,50.214,0,0,0,683.369,602.64Z" transform="translate(3686.052 1948.195)" fill="#e0e0e0"/>
      <path id="Path_511" data-name="Path 511" d="M685.33,830.6a22.472,22.472,0,0,0,0-5.106V810.969c0-12.665,0-30.9.663-53.445,1.061-45.09,4.973-93.628,12.466-161.993,7.1-64.319,16.644-139.248,26.524-187.919,2.122-11.073,4.31-21.02,6.631-29.706s3.581-16.312,5.172-22.412,2.52-10.411,3.448-14.124a21.5,21.5,0,0,0,.862-5.04,29.9,29.9,0,0,0-1.79,4.775q-1.591,5.437-4.177,13.925c-1.857,6.1-3.78,13.262-5.968,22.28s-4.708,18.633-7.1,29.64a1651.626,1651.626,0,0,0-28.048,174.325c-7.493,68.564-10.875,131.027-11.206,176.183,0,22.611,0,40.913.8,53.511.4,5.9.663,10.742.929,14.522a25.67,25.67,0,0,0,.8,5.106Z" transform="translate(3686.147 1697.229)" fill="#e0e0e0"/>
      <path id="Path_512" data-name="Path 512" d="M819.732,678.647a115.485,115.485,0,0,0,0-15.185c-.531-9.747-1.923-23.871-4.642-41.111a549.052,549.052,0,0,0-13.261-59.678,490.651,490.651,0,0,0-25.065-70.95,379.435,379.435,0,0,0-73.6-114.648,183.9,183.9,0,0,0-17.306-16.046c-2.652-2.255-5.04-4.509-7.427-6.3l-6.631-4.642A94.552,94.552,0,0,0,659,341.93a455.22,455.22,0,0,1,41.907,37.4,397.207,397.207,0,0,1,71.746,114.184A557.779,557.779,0,0,1,797.916,563.8a593.359,593.359,0,0,1,13.594,59.082c3.183,17.108,4.973,31.033,6.1,40.714a89.992,89.992,0,0,0,2.122,15.052Z" transform="translate(3552.076 1728.762)" fill="#e0e0e0"/>
      <path id="Path_513" data-name="Path 513" d="M665.69,424.74l12.068,165.242H890.079L902.147,424.74Z" transform="translate(3589.746 2195.056)" fill="#34a853"/>
      <rect id="Rectangle_95" data-name="Rectangle 95" width="282.277" height="65.115" transform="translate(4234.88 2554.615)" fill="#464646"/>
      <path id="Path_514" data-name="Path 514" d="M662.59,448.71v18.036H940.225V448.71Z" transform="translate(3572.291 2330.028)" fill="#464646"/>
      <path id="Path_515" data-name="Path 515" d="M677.586,483.258l-13-31.828H918.884L903.7,483.258Z" transform="translate(3583.553 2345.344)" fill="#464646"/>
      <path id="Path_516" data-name="Path 516" d="M895.128,452.475s0,.6-.995,1.525l-3.183,4.244-12.333,15.781-.531.729-.6-.729c-7.758-10.742-18.1-25.131-30.37-42.04h1.79l-29.972,42.372-.928,1.326-1.061-1.26-35.475-42.172h2.055l-1.923,2.453L749.845,474.49l-1.061,1.326-.928-1.392c-10.808-15.251-20.887-29.441-29.972-42.371h1.725l-36.8,41.973-.663.729-.53-.8-11.538-19.428-2.984-5.172a9.205,9.205,0,0,1-.862-1.79,10.68,10.68,0,0,1,1.193,1.591l3.316,4.973,12.135,19.03H681.68l36.271-42.5.928-1.061.8,1.127L749.911,472.9h-2.055l31.7-39.785,1.923-2.453.995-1.26,1.061,1.26,35.342,42.305h-1.658l30.237-42.172.928-1.194.862,1.194,29.706,42.5h-1.061l12.864-15.45,3.448-3.979A7.764,7.764,0,0,1,895.128,452.475Z" transform="translate(3592.788 2221.296)" fill="#f5f5f5"/>
      <path id="Path_517" data-name="Path 517" d="M903.6,425.7c0,.729-53.047,1.326-118.825,1.326s-118.826-.6-118.826-1.326S719,424.37,784.775,424.37,903.6,424.967,903.6,425.7Z" transform="translate(3591.211 2192.973)" fill="#f5f5f5"/>
      <path id="Path_518" data-name="Path 518" d="M922.733,452.826c0,.729-57.821,1.326-129.1,1.326s-129.17-.6-129.17-1.326,57.822-1.326,129.17-1.326S922.733,452.1,922.733,452.826Z" transform="translate(3582.82 2345.739)" fill="#f5f5f5"/>
    </g>
    <g id="freepik--Device--inject-13" transform="translate(391.878 523.253)">
      <path id="Path_519" data-name="Path 519" d="M152.779,104.09H3540.234a44.692,44.692,0,0,1,44.691,44.692v2162.8a96.612,96.612,0,0,1-96.612,96.612H198.267a96.613,96.613,0,0,1-96.877-96.612V155.546a51.389,51.389,0,0,1,51.389-51.456Z" transform="translate(44.291 -104.09)" fill="#455a64"/>
      <path id="Path_520" data-name="Path 520" d="M79.42,425.83H3853.786V536.367a90.976,90.976,0,0,1-90.976,90.975H170.4A90.976,90.976,0,0,1,79.42,536.367Z" transform="translate(-79.42 1707.591)" fill="#455a64"/>
      <rect id="Rectangle_96" data-name="Rectangle 96" width="3286.929" height="1945.502" transform="translate(239.176 91.573)" fill="#e0e0e0"/>
      <path id="Path_521" data-name="Path 521" d="M312.29,425.83,359.1,500.295h659.044l43.5-74.465Z" transform="translate(1231.844 1707.591)" fill="#263238"/>
      <rect id="Rectangle_97" data-name="Rectangle 97" width="3099.806" height="1832.776" transform="translate(336.716 204.298)" fill="#263238"/>
      <path id="Path_522" data-name="Path 522" d="M168.548,1883.821c-1.591,0-2.918-390.293-2.918-871.7s1.326-871.895,2.918-871.895,2.918,390.294,2.918,871.895S170.139,1883.821,168.548,1883.821Z" transform="translate(406.019 99.41)" fill="#e0e0e0"/>
      <path id="Path_523" data-name="Path 523" d="M242.173,166.548c0,1.591-22.545,2.918-50.328,2.918s-50.395-1.326-50.395-2.918,22.545-2.918,50.395-2.918S242.173,164.956,242.173,166.548Z" transform="translate(269.864 231.173)" fill="#e0e0e0"/>
      <path id="Path_524" data-name="Path 524" d="M242.7,151.628c0,1.591-22.545,2.918-50.328,2.918s-50.328-1.326-50.328-2.918,22.545-2.918,50.328-2.918S242.7,150.036,242.7,151.628Z" transform="translate(273.186 147.16)" fill="#e0e0e0"/>
      <path id="Path_525" data-name="Path 525" d="M242.173,182.628c0,1.592-22.545,2.918-50.328,2.918s-50.395-1.326-50.395-2.918,22.545-2.918,50.395-2.918S242.173,181.036,242.173,182.628Z" transform="translate(269.864 321.717)" fill="#e0e0e0"/>
      <path id="Path_526" data-name="Path 526" d="M242.173,198.651c0,1.658-22.545,2.918-50.328,2.918s-50.395-1.26-50.395-2.918,22.545-2.851,50.395-2.851S242.173,197.126,242.173,198.651Z" transform="translate(269.864 412.318)" fill="#e0e0e0"/>
      <path id="Path_527" data-name="Path 527" d="M242.173,214.8c0,1.591-22.545,2.918-50.328,2.918s-50.395-1.326-50.395-2.918,22.545-2.918,50.395-2.918S242.173,213.14,242.173,214.8Z" transform="translate(269.864 502.863)" fill="#e0e0e0"/>
      <path id="Path_528" data-name="Path 528" d="M242.173,230.878c0,1.591-22.545,2.918-50.328,2.918s-50.395-1.326-50.395-2.918,22.545-2.918,50.395-2.918S242.173,229.286,242.173,230.878Z" transform="translate(269.864 593.408)" fill="#e0e0e0"/>
      <path id="Path_529" data-name="Path 529" d="M242.173,246.958c0,1.591-22.545,2.918-50.328,2.918s-50.395-1.326-50.395-2.918,22.545-2.918,50.395-2.918S242.173,245.366,242.173,246.958Z" transform="translate(269.864 683.952)" fill="#e0e0e0"/>
      <path id="Path_530" data-name="Path 530" d="M242.173,262.981c0,1.658-22.545,2.918-50.328,2.918s-50.395-1.26-50.395-2.918,22.545-2.851,50.395-2.851S242.173,261.39,242.173,262.981Z" transform="translate(269.864 774.553)" fill="#e0e0e0"/>
      <path id="Path_531" data-name="Path 531" d="M242.173,279.128c0,1.591-22.545,2.851-50.328,2.851s-50.395-1.26-50.395-2.851,22.545-2.918,50.395-2.918S242.173,277.47,242.173,279.128Z" transform="translate(269.864 865.098)" fill="#e0e0e0"/>
      <path id="Path_532" data-name="Path 532" d="M242.173,295.208c0,1.591-22.545,2.918-50.328,2.918s-50.395-1.326-50.395-2.918,22.545-2.918,50.395-2.918S242.173,293.616,242.173,295.208Z" transform="translate(269.864 955.643)" fill="#e0e0e0"/>
      <path id="Path_533" data-name="Path 533" d="M242.173,311.288c0,1.591-22.545,2.918-50.328,2.918s-50.395-1.326-50.395-2.918,22.545-2.918,50.395-2.918S242.173,309.7,242.173,311.288Z" transform="translate(269.864 1046.187)" fill="#e0e0e0"/>
      <path id="Path_534" data-name="Path 534" d="M242.173,327.311c0,1.658-22.545,2.918-50.328,2.918s-50.395-1.26-50.395-2.918,22.545-2.851,50.395-2.851S242.173,325.72,242.173,327.311Z" transform="translate(269.864 1136.788)" fill="#e0e0e0"/>
      <path id="Path_535" data-name="Path 535" d="M242.173,343.478c0,1.591-22.545,2.851-50.328,2.851s-50.395-1.26-50.395-2.851,22.545-2.918,50.395-2.918S242.173,341.687,242.173,343.478Z" transform="translate(269.864 1227.445)" fill="#e0e0e0"/>
      <path id="Path_536" data-name="Path 536" d="M242.173,359.538c0,1.591-22.545,2.917-50.328,2.917s-50.395-1.326-50.395-2.917,22.545-2.918,50.395-2.918S242.173,357.946,242.173,359.538Z" transform="translate(269.864 1317.877)" fill="#e0e0e0"/>
      <path id="Path_537" data-name="Path 537" d="M242.173,375.618c0,1.591-22.545,2.918-50.328,2.918s-50.395-1.326-50.395-2.918,22.545-2.918,50.395-2.918S242.173,374.026,242.173,375.618Z" transform="translate(269.864 1408.422)" fill="#e0e0e0"/>
      <path id="Path_538" data-name="Path 538" d="M242.173,391.7c0,1.658-22.545,2.918-50.328,2.918s-50.395-1.26-50.395-2.918,22.545-2.918,50.395-2.918S242.173,390.239,242.173,391.7Z" transform="translate(269.864 1498.967)" fill="#e0e0e0"/>
      <path id="Path_539" data-name="Path 539" d="M439.423,165.6c0,1.591-58.484,2.918-130.628,2.918S178.1,167.189,178.1,165.6s58.484-2.918,130.695-2.918S439.423,164.006,439.423,165.6Z" transform="translate(476.236 225.824)" fill="#4c8bf5"/>
      <path id="Path_540" data-name="Path 540" d="M439.423,391.7c0,1.658-58.484,2.918-130.628,2.918S178.1,393.355,178.1,391.7s58.484-2.918,130.695-2.918S439.423,390.239,439.423,391.7Z" transform="translate(476.236 1498.967)" fill="#4c8bf5"/>
      <path id="Path_541" data-name="Path 541" d="M687.621,198.651c0,1.658-109.476,2.918-244.481,2.918s-244.481-1.26-244.481-2.918S308.07,195.8,443.141,195.8,687.621,197.126,687.621,198.651Z" transform="translate(592.007 412.318)" fill="#4c8bf5"/>
      <path id="Path_542" data-name="Path 542" d="M772.958,198.651c0,1.658-109.476,2.918-244.481,2.918s-244.547-1.26-244.547-2.918S393.406,195.8,528.477,195.8,772.958,197.126,772.958,198.651Z" transform="translate(1072.152 412.318)" fill="#e0e0e0"/>
      <path id="Path_543" data-name="Path 543" d="M937.055,214.8c0,1.591-161.329,2.918-360.322,2.918S216.41,216.389,216.41,214.8s161.263-2.918,360.322-2.918S937.055,213.14,937.055,214.8Z" transform="translate(691.955 502.863)" fill="#e0e0e0"/>
      <path id="Path_544" data-name="Path 544" d="M937.055,230.878c0,1.591-161.329,2.918-360.322,2.918s-360.322-1.326-360.322-2.918,161.263-2.918,360.322-2.918S937.055,229.286,937.055,230.878Z" transform="translate(691.955 593.408)" fill="#e0e0e0"/>
      <path id="Path_545" data-name="Path 545" d="M1011.921,279.128c0,1.591-161.4,2.851-360.322,2.851s-360.389-1.26-360.389-2.851S452.539,276.21,651.6,276.21,1011.921,277.47,1011.921,279.128Z" transform="translate(1113.145 865.098)" fill="#e0e0e0"/>
      <path id="Path_546" data-name="Path 546" d="M979.575,246.958c0,1.591-161.329,2.918-360.256,2.918s-360.389-1.326-360.389-2.918,161.329-2.918,360.389-2.918S979.575,245.366,979.575,246.958Z" transform="translate(931.38 683.952)" fill="#e0e0e0"/>
      <path id="Path_547" data-name="Path 547" d="M1112.384,246.958c0,1.591-161.329,2.918-360.256,2.918s-360.389-1.326-360.389-2.918,161.329-2.918,360.389-2.918S1112.384,245.366,1112.384,246.958Z" transform="translate(1679.218 683.952)" fill="#e0e0e0"/>
      <path id="Path_548" data-name="Path 548" d="M1066.2,214.8c0,1.591-161.4,2.918-360.322,2.918S345.56,216.389,345.56,214.8s161.263-2.918,360.322-2.918S1066.2,213.14,1066.2,214.8Z" transform="translate(1419.184 502.863)" fill="#fafafa"/>
      <path id="Path_549" data-name="Path 549" d="M1141.274,279.128c0,1.591-161.329,2.851-360.322,2.851s-360.322-1.26-360.322-2.851,161.263-2.918,360.322-2.918S1141.274,277.47,1141.274,279.128Z" transform="translate(1841.894 865.098)" fill="#fafafa"/>
      <path id="Path_550" data-name="Path 550" d="M1464.588,230.878c0,1.591-250.514,2.918-559.514,2.918s-559.514-1.326-559.514-2.918,250.448-2.918,559.514-2.918S1464.588,229.286,1464.588,230.878Z" transform="translate(1419.184 593.408)" fill="#455a64"/>
      <path id="Path_551" data-name="Path 551" d="M439.423,182.628c0,1.592-58.484,2.918-130.628,2.918S178.1,184.219,178.1,182.628s58.484-2.918,130.695-2.918S439.423,181.036,439.423,182.628Z" transform="translate(476.236 321.717)" fill="#fafafa"/>
      <path id="Path_552" data-name="Path 552" d="M439.423,375.618c0,1.591-58.484,2.918-130.628,2.918S178.1,377.209,178.1,375.618s58.484-2.918,130.695-2.918S439.423,374.026,439.423,375.618Z" transform="translate(476.236 1408.422)" fill="#fafafa"/>
      <path id="Path_553" data-name="Path 553" d="M458.969,246.958c0,1.591-58.484,2.918-130.695,2.918s-130.695-1.326-130.695-2.918,58.551-2.918,130.695-2.918S458.969,245.366,458.969,246.958Z" transform="translate(585.925 683.952)" fill="#fafafa"/>
      <path id="Path_554" data-name="Path 554" d="M774.843,246.958c0,1.591-58.484,2.918-130.628,2.918s-130.7-1.326-130.7-2.918,58.485-2.918,130.7-2.918S774.843,245.366,774.843,246.958Z" transform="translate(2364.947 683.952)" fill="#4c8bf5"/>
      <path id="Path_555" data-name="Path 555" d="M687.621,311.2c0,1.591-109.476,2.918-244.481,2.918S198.66,312.789,198.66,311.2s109.41-2.918,244.481-2.918S687.621,309.54,687.621,311.2Z" transform="translate(592.007 1045.68)" fill="#4c8bf5"/>
      <path id="Path_556" data-name="Path 556" d="M772.958,311.2c0,1.591-109.476,2.918-244.481,2.918S283.93,312.789,283.93,311.2s109.476-2.918,244.547-2.918S772.958,309.54,772.958,311.2Z" transform="translate(1072.152 1045.68)" fill="#e0e0e0"/>
      <path id="Path_557" data-name="Path 557" d="M937.055,327.278c0,1.591-161.329,2.918-360.322,2.918s-360.322-1.326-360.322-2.918,161.263-2.918,360.322-2.918S937.055,325.686,937.055,327.278Z" transform="translate(691.955 1136.225)" fill="#e0e0e0"/>
      <path id="Path_558" data-name="Path 558" d="M937.055,343.358c0,1.591-161.329,2.918-360.322,2.918s-360.322-1.326-360.322-2.918,161.263-2.918,360.322-2.918S937.055,341.766,937.055,343.358Z" transform="translate(691.955 1226.77)" fill="#e0e0e0"/>
      <path id="Path_559" data-name="Path 559" d="M979.575,359.421c0,1.658-161.329,2.918-360.256,2.918s-360.389-1.26-360.389-2.918,161.329-2.851,360.389-2.851S979.575,357.565,979.575,359.421Z" transform="translate(931.38 1317.596)" fill="#e0e0e0"/>
      <path id="Path_560" data-name="Path 560" d="M1112.384,359.421c0,1.658-161.329,2.918-360.256,2.918s-360.389-1.26-360.389-2.918,161.329-2.851,360.389-2.851S1112.384,357.565,1112.384,359.421Z" transform="translate(1679.218 1317.596)" fill="#e0e0e0"/>
      <path id="Path_561" data-name="Path 561" d="M1066.2,327.278c0,1.591-161.4,2.918-360.322,2.918s-360.322-1.326-360.322-2.918,161.263-2.918,360.322-2.918S1066.2,325.686,1066.2,327.278Z" transform="translate(1419.184 1136.225)" fill="#fafafa"/>
      <path id="Path_562" data-name="Path 562" d="M1464.588,343.358c0,1.591-250.514,2.918-559.514,2.918s-559.514-1.326-559.514-2.918,250.448-2.918,559.514-2.918S1464.588,341.766,1464.588,343.358Z" transform="translate(1419.184 1226.77)" fill="#455a64"/>
      <path id="Path_563" data-name="Path 563" d="M458.969,359.421c0,1.658-58.484,2.918-130.695,2.918s-130.695-1.26-130.695-2.918,58.551-2.851,130.695-2.851S458.969,357.565,458.969,359.421Z" transform="translate(585.925 1317.596)" fill="#fafafa"/>
      <path id="Path_564" data-name="Path 564" d="M774.843,359.421c0,1.658-58.484,2.918-130.628,2.918s-130.7-1.26-130.7-2.918,58.485-2.851,130.7-2.851S774.843,357.565,774.843,359.421Z" transform="translate(2364.947 1317.596)" fill="#4c8bf5"/>
      <path id="Path_565" data-name="Path 565" d="M3094.748,437.464c0,.928-667.332,1.724-1490.358,1.724S113.9,438.26,113.9,437.464s667.2-1.724,1490.49-1.724S3094.748,436.4,3094.748,437.464Z" transform="translate(114.733 1763.393)" fill="#263238"/>
    </g>
    <g id="freepik--Plant--inject-13" transform="translate(25.19 1402.376)">
      <path id="Path_566" data-name="Path 566" d="M403.672,441.978A378.359,378.359,0,0,0,42.62,342.846,657.45,657.45,0,0,0,407.982,456.963" transform="translate(80.051 295.111)" fill="#ea4335"/>
      <path id="Path_567" data-name="Path 567" d="M168.785,540.1C183.837,433.674,142.262,313.986,62.691,236.67,60.1,342.1,104.6,460.727,168.785,540.1" transform="translate(192.465 -236.67)" fill="#4c8bf5"/>
      <path id="Path_568" data-name="Path 568" d="M309.785,524.518A567.869,567.869,0,0,0,48.86,275.13,358.6,358.6,0,0,0,310.78,525.645" transform="translate(115.188 -20.106)" fill="#ea4335"/>
      <path id="Path_569" data-name="Path 569" d="M391.227,415.488c-64.253,1.857-129.3-.4-191.434-16.843S78.249,350.571,36.74,301.37A639.549,639.549,0,0,1,390.233,409.255" transform="translate(46.942 127.648)" fill="#4c8bf5"/>
      <path id="Path_570" data-name="Path 570" d="M85.28,533.114C117.9,410.841,171.482,326.3,267.828,257.8A254.162,254.162,0,0,1,85.28,533.114" transform="translate(320.265 -117.689)" fill="#fbbc04"/>
      <path id="Path_571" data-name="Path 571" d="M215.22,473.469A180.891,180.891,0,0,0,105.28,305.84c5.371,63.126,54.97,136.132,109.94,167.629" transform="translate(432.883 152.818)" fill="#4c8bf5"/>
      <path id="Path_572" data-name="Path 572" d="M126.49,510.905A269.745,269.745,0,0,1,303.137,280.88C280.923,383.062,221.908,468.136,126.49,510.905" transform="translate(552.314 12.272)" fill="#ea4335"/>
      <path id="Path_573" data-name="Path 573" d="M119.51,406.282c22.678-32.425,59.678-52.583,97.938-62.6s78.244-10.941,117.764-11.736a275.381,275.381,0,0,1-212.453,88.589" transform="translate(513.01 299.841)" fill="#fbbc04"/>
      <path id="Path_574" data-name="Path 574" d="M112.59,393.888C262.087,347.761,422.041,423.563,481,568.479,347.39,543.414,215.1,483.736,112.59,393.888" transform="translate(474.044 572.763)" fill="#ea4335"/>
      <path id="Path_575" data-name="Path 575" d="M125.313,368.8c22.213,65.712,17.9,145.15-31.5,201.778a240.966,240.966,0,0,1,31.5-201.778" transform="translate(314.448 507.339)" fill="#4c8bf5"/>
      <path id="Path_576" data-name="Path 576" d="M208.721,363.459A247.2,247.2,0,0,1,72.191,564.11,15.517,15.517,0,0,1,60.123,566.1c-6.034-2.453-6.631-10.675-5.835-17.174,9.681-84.146,72.078-165.772,154.433-185.665" transform="translate(144.175 476.144)" fill="#fbbc04"/>
      <path id="Path_577" data-name="Path 577" d="M320.322,369.819a202.772,202.772,0,0,1-296.2,1.525c94.159-10.278,202.773-17.174,296.2-1.525" transform="translate(-24.12 461.23)" fill="#4285f4"/>
      <path id="Path_578" data-name="Path 578" d="M66.66,248.49a7.264,7.264,0,0,0,.862,2.785l2.918,7.957c2.652,7.161,6.631,17.373,11.339,30.5s10.941,29.441,17.7,48.339l10.875,30.237,11.6,34.016c16.71,47.676,35.21,104.9,55.235,168.623s40.249,134.276,60.54,208.674,37.73,145.879,53.047,210.729,27.319,123.931,36.4,173.663q3.514,18.633,6.631,35.409t5.371,31.629c3.382,19.893,6.3,36.8,8.289,50.792s3.78,24.6,4.907,32.16q.928,5.238,1.392,8.355a18.031,18.031,0,0,0,.6,2.851,16.115,16.115,0,0,0,0-2.917,83.96,83.96,0,0,0-1.061-8.355c-.995-7.559-2.387-18.434-4.244-32.292s-4.443-31.1-7.692-50.925c-1.591-9.88-3.315-20.49-5.106-31.7s-4.177-23.076-6.631-35.475c-8.819-49.8-21.153-108.68-35.674-173.928S261.21,853.16,241.317,778.629s-40.979-144.819-60.805-208.475-38.99-120.881-55.965-168.424q-6.631-17.9-12-34.017l-11.206-30.17C94.709,318.711,88.078,302.532,83.1,289.4s-9.217-23.142-12-30.237c-1.392-3.316-2.453-5.9-3.183-7.825A19.9,19.9,0,0,0,66.66,248.49Z" transform="translate(215.418 -170.113)" fill="#263238"/>
      <path id="Path_579" data-name="Path 579" d="M363.718,289.11a20.4,20.4,0,0,0-1.658,1.525l-4.509,4.708c-3.912,4.177-9.615,10.477-16.71,18.765a652.887,652.887,0,0,0-55.434,73.736,496.121,496.121,0,0,0-57.954,124.064c-15.583,49.334-25.2,105.431-34.812,164.115-19.1,117.367-42.637,222.532-59.678,298.39-8.554,37.862-15.516,68.563-20.423,90.047-2.321,10.41-4.111,18.633-5.371,24.468-.6,2.652-.995,4.774-1.326,6.631a6.963,6.963,0,0,0,0,2.188,5.631,5.631,0,0,1,.663-2.122c.663-1.393.995-3.713,1.658-6.3l6.1-24.336c5.106-21.484,12.466-52.052,21.484-89.848,17.638-75.924,41.576-181.023,60.739-298.39,9.615-58.683,19.1-114.648,34.348-163.783a501.827,501.827,0,0,1,56.959-123.6,722.338,722.338,0,0,1,54.373-74.4c6.631-8.355,12.466-14.787,16.179-19.1l4.244-4.973Z" transform="translate(435.568 58.614)" fill="#263238"/>
      <path id="Path_580" data-name="Path 580" d="M64.55,361.547a11.543,11.543,0,0,0,3.382.6l9.747,1.127,7.029.663,8.355,1.26c5.968.862,12.8,1.79,19.893,3.382l11.737,2.387,12.532,3.116c8.686,1.989,17.7,5.172,27.319,8.09a406.8,406.8,0,0,1,59.678,26.523,339.61,339.61,0,0,1,53.445,37.133,254.681,254.681,0,0,1,20.489,19.893,217.319,217.319,0,0,1,16.246,18.7,194.791,194.791,0,0,1,12,16.577,114.317,114.317,0,0,1,8.222,13.262l4.973,8.421c1.194,1.923,1.857,2.918,1.989,2.851a10.349,10.349,0,0,0-1.326-3.117l-4.443-8.819a102.379,102.379,0,0,0-7.758-13.262,175.139,175.139,0,0,0-11.67-16.975,197.055,197.055,0,0,0-16.047-19.229,269.331,269.331,0,0,0-20.489-19.893,327.641,327.641,0,0,0-53.71-38.923A384.582,384.582,0,0,0,165.8,378.787c-9.681-2.785-18.765-5.9-27.584-7.758l-12.665-2.984-11.6-1.923c-7.493-1.525-14.389-2.254-20.423-2.918l-8.355-.995-7.1-.331-9.814-.4A12.543,12.543,0,0,0,64.55,361.547Z" transform="translate(203.537 465.523)" fill="#263238"/>
      <path id="Path_581" data-name="Path 581" d="M60.5,289.45a45.215,45.215,0,0,0,6.631,6.631L86.692,312.99c16.445,14.057,39.387,33.154,64.784,54.44s48.671,39.785,65.513,53.577l19.893,15.98a53.78,53.78,0,0,0,7.692,5.437,48.425,48.425,0,0,0-6.631-6.631l-19.362-16.71c-16.445-14.057-39.321-33.154-64.784-54.373s-48.6-39.785-65.447-53.577L68.457,295.152a46.018,46.018,0,0,0-7.957-5.7Z" transform="translate(180.732 60.528)" fill="#263238"/>
      <path id="Path_582" data-name="Path 582" d="M57,308.268c0,.995,49.2,16.378,110.4,34.481s111.2,32.027,111.465,31.1S229.735,357.4,168.465,339.3,57.4,307.339,57,308.268Z" transform="translate(161.023 166.239)" fill="#263238"/>
      <path id="Path_583" data-name="Path 583" d="M84.54,450.081a38.332,38.332,0,0,0,5.106-7.1l13.262-19.893c11.007-16.71,26.524-39.785,45.289-63.855s36.47-45.422,49.6-60.54l15.649-17.837a38.993,38.993,0,0,0,5.5-6.631,39.786,39.786,0,0,0-6.631,5.835c-4.045,3.979-9.681,9.814-16.511,17.174-13.726,14.654-31.961,35.674-50.594,60.009S111.13,404.792,100.587,421.9c-5.238,8.554-9.35,15.583-12.068,20.489a46.94,46.94,0,0,0-3.979,7.692Z" transform="translate(316.098 -25.174)" fill="#263238"/>
      <path id="Path_584" data-name="Path 584" d="M110.43,311.18a176.952,176.952,0,0,0,11.6,19.1c7.427,11.6,17.439,27.717,27.783,45.952s19.163,35.078,25.33,47.411a171.673,171.673,0,0,0,10.477,19.893,113.578,113.578,0,0,0-8.156-20.821c-5.636-12.6-14.058-29.707-24.534-48.074s-20.821-34.348-28.778-45.62A117.3,117.3,0,0,0,110.43,311.18Z" transform="translate(461.882 182.887)" fill="#263238"/>
      <path id="Path_585" data-name="Path 585" d="M119.29,396.056c0,.464,9.681-4.111,25.131-11.073s37-16.047,61.336-24.534,46.88-14.919,63.325-19.1,26.524-6.631,26.524-6.963a26.525,26.525,0,0,0-7.36.729c-4.708.73-11.471,1.989-19.893,3.78a548.834,548.834,0,0,0-125.125,43.764c-7.625,3.78-13.726,7.029-17.837,9.416a28.581,28.581,0,0,0-6.1,3.978Z" transform="translate(511.771 313.448)" fill="#263238"/>
      <path id="Path_586" data-name="Path 586" d="M112.32,382.51a15.2,15.2,0,0,0,3.05,1.061l8.885,2.254,33.154,7.625a1076.231,1076.231,0,0,1,107.354,28.314,475.448,475.448,0,0,1,100.193,47.079c12,7.626,21.351,14.389,27.651,19.23a106.976,106.976,0,0,0,9.946,7.36,25.739,25.739,0,0,0-2.254-2.387c-1.525-1.459-3.78-3.581-6.631-6.1a298.443,298.443,0,0,0-27.12-20.224,438.244,438.244,0,0,0-100.392-48.339A896.982,896.982,0,0,0,158.14,390.931L124.985,384.3A101.113,101.113,0,0,0,112.32,382.51Z" transform="translate(472.524 584.538)" fill="#263238"/>
      <path id="Path_587" data-name="Path 587" d="M87.165,524.078c.995,0,6.631-34.547,13.262-77.448s10.609-77.847,9.615-77.979S103.411,403.2,96.78,446.1,86.5,523.946,87.165,524.078Z" transform="translate(330.448 506.494)" fill="#263238"/>
      <path id="Path_588" data-name="Path 588" d="M60.84,490.56a183.79,183.79,0,0,0,15.715-18.633c9.416-11.737,22.412-27.85,37.2-45.422s28.38-33.154,38.326-44.427A193.317,193.317,0,0,0,168,363.38a24.734,24.734,0,0,0-5.039,4.31c-3.05,2.852-7.294,7.228-12.532,12.665-10.41,10.875-24.4,26.524-39.188,43.83S83.717,458.2,74.831,470.6c-4.509,6.1-8.023,11.074-10.344,14.522a24.2,24.2,0,0,0-3.647,5.437Z" transform="translate(182.646 476.819)" fill="#263238"/>
      <path id="Path_589" data-name="Path 589" d="M444.815,406.91v86h-21.55L346.81,734.277H177.259L103.192,495.3,74.48,492.913v-86Z" transform="translate(259.451 721.932)" fill="#4c8bf5"/>
      <g id="Group_63" data-name="Group 63" transform="translate(333.931 1128.842)">
        <path id="Path_590" data-name="Path 590" d="M444.815,406.91v86h-21.55L346.81,734.277H177.259L103.192,495.3,74.48,492.913v-86Z" transform="translate(-74.48 -406.91)" fill="#34a853"/>
      </g>
      <path id="Path_591" data-name="Path 591" d="M76.64,421.76c0,.994,74.929,1.79,167.231,1.79s167.231-.8,167.231-1.79-74.863-1.79-167.231-1.79S76.64,420.766,76.64,421.76Z" transform="translate(271.614 795.471)" fill="#263238"/>
      <path id="Path_592" data-name="Path 592" d="M58.25,336.79a66.316,66.316,0,0,0,10.875,2.918L98.9,346.935c25.065,6.167,59.678,15.583,96.877,28.181s70.553,25.86,94.291,36.072l28.049,12.267a71.285,71.285,0,0,0,10.411,4.244,65.8,65.8,0,0,0-9.814-5.5c-6.631-3.315-15.848-7.891-27.651-13.262a996.282,996.282,0,0,0-94.092-37.2,975.568,975.568,0,0,0-97.474-27.253c-12.665-2.785-22.943-4.841-30.1-6.034a63.229,63.229,0,0,0-11.14-1.658Z" transform="translate(168.062 327.094)" fill="#263238"/>
      <path id="Path_593" data-name="Path 593" d="M85.13,441.97c0,.995,52.583,1.79,117.367,1.79s117.3-.8,117.3-1.79-52.517-1.79-117.3-1.79S85.13,440.975,85.13,441.97Z" transform="translate(319.42 909.272)" fill="#fafafa"/>
      <path id="Path_594" data-name="Path 594" d="M84.14,438.96c0,.995,55.7,1.79,124.329,1.79s124.329-.8,124.329-1.79-55.633-1.79-124.329-1.79S84.14,437.966,84.14,438.96Z" transform="translate(313.846 892.323)" fill="#fafafa"/>
    </g>
    <g id="freepik--Floor--inject-13" transform="translate(54.498 2858.187)">
      <path id="Path_595" data-name="Path 595" d="M4543.642,457.944c0,.995-1010.812,1.79-2257.418,1.79s-2257.684-.8-2257.684-1.79,1010.945-1.724,2257.551-1.724S4543.642,457.016,4543.642,457.944Z" transform="translate(-28.54 -456.22)" fill="#263238"/>
    </g>
    <g id="freepik--speech-bubbles--inject-13" transform="translate(2171.408 335.997)">
      <path id="Path_596" data-name="Path 596" d="M2125.061,76.13H348.05V1176.592H1843.978l92.633,213.05,82.09-213.05h106.359Z" transform="translate(-346.326 -74.273)" fill="#ea4335"/>
      <path id="Path_597" data-name="Path 597" d="M2126.26,77.64c0,10.676.464,424.377,1.326,1100.727v1.326H2020.165l1.26-.862c-25.662,66.773-53.379,138.718-82.024,213.05l-1.26,3.382-1.459-3.315c-29.044-66.707-60.407-138.917-92.833-213.051l1.393.928H347.79V75.85h1.591l1777.077,1.525L349.382,78.967l1.591-1.591V1178.1l-1.724-1.724h1496.79l.4.928,92.832,213.117h-2.718l82.355-212.851.331-.928H2126.26l-1.327,1.326C2126.26,501.752,2126.26,88.316,2126.26,77.64Z" transform="translate(-347.79 -75.85)" fill="#263238"/>
      <path id="Path_598" data-name="Path 598" d="M2121.881,94.122c0,1.326-397.058,2.453-886.682,2.453S348.45,95.448,348.45,94.122,745.441,92,1235.2,92,2121.881,92.8,2121.881,94.122Z" transform="translate(-344.074 15.089)" fill="#fff"/>
      <path id="Path_599" data-name="Path 599" d="M387.066,97.388A14.588,14.588,0,1,1,372.545,82.8,14.588,14.588,0,0,1,387.066,97.388Z" transform="translate(-290.918 -36.715)" fill="#fff"/>
      <path id="Path_600" data-name="Path 600" d="M395.016,97.388A14.588,14.588,0,1,1,380.495,82.8,14.588,14.588,0,0,1,395.016,97.388Z" transform="translate(-246.153 -36.715)" fill="#fff"/>
      <path id="Path_601" data-name="Path 601" d="M402.966,97.388A14.588,14.588,0,1,1,388.378,82.8,14.588,14.588,0,0,1,402.966,97.388Z" transform="translate(-201.387 -36.715)" fill="#fff"/>
      <path id="Path_602" data-name="Path 602" d="M422.327,130.334l-42.172,16.312,42.172,16.246v9.88l-53.047-21.02V141.606l53.047-21.086Z" transform="translate(-226.782 175.682)" fill="#fff"/>
      <path id="Path_603" data-name="Path 603" d="M417.122,115.65h10.344L388.211,227.579H378Z" transform="translate(-177.681 148.259)" fill="#fff"/>
      <path id="Path_604" data-name="Path 604" d="M439.047,141.662v10.212L386,172.894v-9.88l42.305-16.246L386,130.39v-9.88Z" transform="translate(-132.634 175.625)" fill="#fff"/>
      <path id="Path_605" data-name="Path 605" d="M396.061,136.481a7.957,7.957,0,0,1,8.09-8.09,7.825,7.825,0,0,1,7.891,8.09,7.957,7.957,0,0,1-7.891,8.222,8.09,8.09,0,0,1-8.09-8.222Z" transform="translate(-75.988 219.996)" fill="#fff"/>
      <path id="Path_606" data-name="Path 606" d="M400.142,136.482a7.963,7.963,0,1,1,8.09,8.222,8.023,8.023,0,0,1-8.09-8.222Z" transform="translate(-53.015 219.995)" fill="#fff"/>
      <path id="Path_607" data-name="Path 607" d="M404.212,136.482a7.963,7.963,0,1,1,8.09,8.222,8.023,8.023,0,0,1-8.09-8.222Z" transform="translate(-30.098 219.995)" fill="#fff"/>
      <path id="Path_608" data-name="Path 608" d="M1542.885,147.793c0,1.326-262.649,2.387-586.634,2.387s-586.7-1.061-586.7-2.387,262.649-2.453,586.7-2.453S1542.885,146.4,1542.885,147.793Z" transform="translate(-225.262 315.44)" fill="#fff"/>
      <path id="Path_609" data-name="Path 609" d="M671.125,148.313c0,1.326-25.2,2.453-56.362,2.453S558.4,149.64,558.4,148.313s25.264-2.453,56.363-2.453S671.125,146.788,671.125,148.313Z" transform="translate(838.131 318.368)" fill="#fff"/>
      <path id="Path_610" data-name="Path 610" d="M704.816,148.313c0,1.326-27.584,2.453-61.535,2.453s-61.6-1.127-61.6-2.453,27.584-2.453,61.6-2.453S704.816,146.788,704.816,148.313Z" transform="translate(969.218 318.368)" fill="#fff"/>
      <path id="Path_611" data-name="Path 611" d="M1115.536,162.7c0,1.326-166.966,2.387-372.921,2.387S369.76,164.03,369.76,162.7s166.9-2.453,372.855-2.453S1115.536,161.311,1115.536,162.7Z" transform="translate(-224.079 399.397)" fill="#fff"/>
      <path id="Path_612" data-name="Path 612" d="M1114.725,218.333c0,1.326-166.966,2.387-372.854,2.387S368.95,219.66,368.95,218.333s166.966-2.453,372.921-2.453S1114.725,217.007,1114.725,218.333Z" transform="translate(-228.64 712.643)" fill="#fff"/>
      <path id="Path_613" data-name="Path 613" d="M695.4,162.7c0,1.326-45.422,2.387-101.453,2.387S492.49,164.03,492.49,162.7s45.422-2.453,101.452-2.453S695.4,161.311,695.4,162.7Z" transform="translate(466.999 399.397)" fill="#fff"/>
      <path id="Path_614" data-name="Path 614" d="M695.075,218.333c0,1.326-45.421,2.387-101.453,2.387S492.17,219.66,492.17,218.333s45.422-2.453,101.452-2.453S695.075,217.007,695.075,218.333Z" transform="translate(465.197 712.643)" fill="#fff"/>
      <path id="Path_615" data-name="Path 615" d="M419.878,170.227c0,1.326-11.272,2.453-25.2,2.453s-25.131-1.127-25.131-2.453,11.273-2.387,25.131-2.387S419.878,168.9,419.878,170.227Z" transform="translate(-225.262 442.135)" fill="#fff"/>
      <path id="Path_616" data-name="Path 616" d="M496.087,170.443c0,1.326-24.468,2.387-54.638,2.387s-54.639-1.061-54.639-2.387,24.468-2.453,54.639-2.453S496.087,169.117,496.087,170.443Z" transform="translate(-128.073 442.98)" fill="#fff"/>
      <path id="Path_617" data-name="Path 617" d="M499.508,170.443c0,1.326-20.954,2.387-46.814,2.387s-46.814-1.061-46.814-2.387,20.954-2.453,46.814-2.453S499.508,169.117,499.508,170.443Z" transform="translate(-20.692 442.98)" fill="#fff"/>
      <path id="Path_618" data-name="Path 618" d="M522.248,170.443c0,1.326-21.351,2.387-47.676,2.387s-47.742-1.061-47.742-2.387,21.352-2.453,47.742-2.453S522.248,169.117,522.248,170.443Z" transform="translate(97.275 442.98)" fill="#fff"/>
      <path id="Path_619" data-name="Path 619" d="M533.442,170.443c0,1.326-19.428,2.387-43.366,2.387s-43.366-1.061-43.366-2.387,19.429-2.453,43.366-2.453S533.442,169.117,533.442,170.443Z" transform="translate(209.217 442.98)" fill="#fff"/>
      <path id="Path_620" data-name="Path 620" d="M845.318,170.443c0,1.326-85.406,2.387-190.771,2.387S463.71,171.77,463.71,170.443s85.406-2.453,190.837-2.453S845.318,169.117,845.318,170.443Z" transform="translate(304.942 442.98)" fill="#fff"/>
      <path id="Path_621" data-name="Path 621" d="M412.916,179.963c0,1.326-9.681,2.453-21.683,2.453s-21.683-1.127-21.683-2.453,9.681-2.453,21.683-2.453S412.916,178.637,412.916,179.963Z" transform="translate(-225.262 496.586)" fill="#fff"/>
      <path id="Path_622" data-name="Path 622" d="M414.64,189.9c0,1.326-10.079,2.453-22.545,2.453s-22.545-1.127-22.545-2.453,10.079-2.453,22.545-2.453S414.64,188.577,414.64,189.9Z" transform="translate(-225.262 552.557)" fill="#fff"/>
      <path id="Path_623" data-name="Path 623" d="M414.64,201.153c0,1.326-10.079,2.387-22.545,2.387s-22.545-1.061-22.545-2.387,10.079-2.453,22.545-2.453S414.64,199.761,414.64,201.153Z" transform="translate(-225.262 615.904)" fill="#fff"/>
      <path id="Path_624" data-name="Path 624" d="M724.051,200.567c0,1.393-75.327,2.453-168.226,2.453S387.6,201.96,387.6,200.567s75.327-2.387,168.226-2.387S724.051,199.241,724.051,200.567Z" transform="translate(-123.624 612.976)" fill="#fff"/>
      <path id="Path_625" data-name="Path 625" d="M706.378,189.9c0,1.326-71.879,2.453-160.468,2.453s-160.4-1.127-160.4-2.453,71.813-2.453,160.4-2.453S706.378,188.577,706.378,189.9Z" transform="translate(-135.393 552.557)" fill="#fff"/>
      <path id="Path_626" data-name="Path 626" d="M1478.734,179.443c0,1.326-244.68,2.387-546.319,2.387S386.03,180.77,386.03,179.443s244.547-2.453,546.385-2.453S1478.734,178.051,1478.734,179.443Z" transform="translate(-132.465 493.658)" fill="#fff"/>
      <path id="Path_627" data-name="Path 627" d="M755.985,144v935.22L610.57,1200.5h760.5V144Z" transform="translate(1131.894 307.895)" fill="#fbbc04"/>
      <path id="Path_628" data-name="Path 628" d="M759.7,144.563H924.744l450.038-.663h1.327v1.326c0,282.277,0,650.954.4,1056.5v1.724H609.91l3.382-2.851,145.482-121.279-.6,1.194c.332-279.624.6-513.562.8-677.676,0-81.891.331-146.343.4-190.373v.928c0,44.1,0,108.68.4,190.638,0,163.916.4,397.853.729,676.748v.663l-.531.464L614.618,1203.317l-1.061-2.852h760.5l-1.724,1.724c0-405.545,0-774.222.4-1056.5l1.327,1.26-449.243-.663L802.8,144.563H759.7Z" transform="translate(1128.178 307.332)" fill="#263238"/>
      <path id="Path_629" data-name="Path 629" d="M662.1,161.586a12.466,12.466,0,1,1-12.466-12.466A12.466,12.466,0,0,1,662.1,161.586Z" transform="translate(1281.675 336.725)" fill="#fff"/>
      <path id="Path_630" data-name="Path 630" d="M668.9,161.586a12.466,12.466,0,1,1-12.466-12.466A12.466,12.466,0,0,1,668.9,161.586Z" transform="translate(1319.965 336.725)" fill="#fff"/>
      <path id="Path_631" data-name="Path 631" d="M675.7,161.586a12.466,12.466,0,1,1-12.466-12.466A12.466,12.466,0,0,1,675.7,161.586Z" transform="translate(1358.255 336.725)" fill="#fff"/>
      <path id="Path_632" data-name="Path 632" d="M995.494,196.159c0,1.127-77.979,1.989-174.127,1.989s-174.127-.862-174.127-1.989,77.913-1.989,174.127-1.989S995.494,195.032,995.494,196.159Z" transform="translate(1338.378 590.396)" fill="#fff"/>
      <path id="Path_633" data-name="Path 633" d="M1071.1,208.919c0,1.061-94.888,1.989-212.189,1.989s-212.188-.928-212.188-1.989,94.888-1.989,212.188-1.989S1071.1,207.792,1071.1,208.919Z" transform="translate(1335.45 662.246)" fill="#fff"/>
      <path id="Path_634" data-name="Path 634" d="M1097.122,256.519c0,1.127-101.188,1.989-225.981,1.989s-225.981-.862-225.981-1.989,101.188-1.989,225.981-1.989S1097.122,255.458,1097.122,256.519Z" transform="translate(1326.666 930.276)" fill="#fff"/>
      <path id="Path_635" data-name="Path 635" d="M688.7,215.409a117.37,117.37,0,0,1-43.034,0,117.363,117.363,0,0,1,43.034,0Z" transform="translate(1329.538 698.791)" fill="#fff"/>
      <path id="Path_636" data-name="Path 636" d="M753.382,215.539c0,1.127-20.953,1.989-46.416,1.989s-46.416-.862-46.416-1.989a550.363,550.363,0,0,1,93.495,0Z" transform="translate(1413.325 699.523)" fill="#fff"/>
      <path id="Path_637" data-name="Path 637" d="M756.722,215.539c0,1.127-17.9,1.989-39.786,1.989s-40.117-.862-40.117-1.989a404.817,404.817,0,0,1,80.167,0Z" transform="translate(1504.94 699.523)" fill="#fff"/>
      <path id="Path_638" data-name="Path 638" d="M682.8,223.689a87.66,87.66,0,0,1-37.133,0,87.661,87.661,0,0,1,37.133,0Z" transform="translate(1329.538 745.415)" fill="#fff"/>
      <path id="Path_639" data-name="Path 639" d="M684.261,232.256a94.553,94.553,0,0,1-38.591,0,91.573,91.573,0,0,1,38.591,0Z" transform="translate(1329.538 793.277)" fill="#fff"/>
      <path id="Path_640" data-name="Path 640" d="M684.261,241.82a94.558,94.558,0,0,1-38.591,0,94.554,94.554,0,0,1,38.591,0Z" transform="translate(1329.538 847.503)" fill="#fff"/>
      <path id="Path_641" data-name="Path 641" d="M949.033,241.369c0,1.127-64.452,1.989-143.957,1.989S661.12,242.5,661.12,241.369s64.452-1.989,143.956-1.989S949.033,240.308,949.033,241.369Z" transform="translate(1416.535 844.969)" fill="#fff"/>
      <path id="Path_642" data-name="Path 642" d="M933.849,232.256c0,1.061-61.468,1.989-137.26,1.989s-137.259-.928-137.259-1.989,61.4-2.056,137.259-2.056S933.849,231.128,933.849,232.256Z" transform="translate(1406.456 793.277)" fill="#fff"/>
      <path id="Path_643" data-name="Path 643" d="M688.5,269.229a94.558,94.558,0,0,1-38.592,0,94.561,94.561,0,0,1,38.592,0Z" transform="translate(1353.413 1001.845)" fill="#fff"/>
      <path id="Path_644" data-name="Path 644" d="M688.5,278.916a94.552,94.552,0,0,1-38.592,0,91.576,91.576,0,0,1,38.591,0Z" transform="translate(1353.413 1056.014)" fill="#fff"/>
      <path id="Path_645" data-name="Path 645" d="M953.273,278.409c0,1.061-64.452,1.989-143.957,1.989s-143.957-.928-143.957-1.989,64.386-1.989,143.957-1.989S953.273,277.282,953.273,278.409Z" transform="translate(1440.41 1053.537)" fill="#fff"/>
      <path id="Path_646" data-name="Path 646" d="M938.175,269.229c0,1.127-61.469,1.989-137.259,1.989s-137.326-.862-137.326-1.989,61.468-1.989,137.326-1.989S938.175,268.1,938.175,269.229Z" transform="translate(1430.443 1001.845)" fill="#fff"/>
      <path id="Path_647" data-name="Path 647" d="M1033.487,223.239c0,1.127-83.682,1.989-186.858,1.989s-186.858-.862-186.858-1.989,83.681-1.989,186.858-1.989S1033.487,222.178,1033.487,223.239Z" transform="translate(1408.933 742.881)" fill="#fff"/>
      <path id="Path_648" data-name="Path 648" d="M1236.688,160.069c0,1.061-135.071,1.989-301.639,1.989s-301.639-.928-301.639-1.989,135-1.989,301.639-1.989S1236.688,158.942,1236.688,160.069Z" transform="translate(1260.504 387.178)" fill="#fff"/>
      <path id="Path_649" data-name="Path 649" d="M774.656,188.469a1021.612,1021.612,0,0,1-127.445,0c0-1.127,28.513-1.989,63.722-1.989S774.656,187.342,774.656,188.469Z" transform="translate(1338.21 547.095)" fill="#fff"/>
      <path id="Path_650" data-name="Path 650" d="M706.566,171.059c0,1.127-13.262,1.989-30.038,1.989s-30.038-.862-30.038-1.989a227.76,227.76,0,0,1,60.076,0Z" transform="translate(1334.155 449.061)" fill="#fff"/>
    </g>
    <g id="freepik--Character--inject-13" transform="translate(2926.571 1120.171)">
      <path id="Path_651" data-name="Path 651" d="M1163.382,946.8l133.546-132.021L1058.747,406.915a229.822,229.822,0,0,0-91.374-63.59L883.493,311.43,674.951,273.17l-148,58.551a88.522,88.522,0,0,0-55.5,92.832l38.725,325.974,22.81,424.377,537.964-93.363L1016.84,924.588l1.79-244.812Z" transform="translate(-410.151 251.063)" fill="#4285f4"/>
      <path id="Path_652" data-name="Path 652" d="M557.527,691.456c1.26,0,1.591-84.809.729-189.378S555.737,312.7,554.477,312.7s-1.591,84.809-.73,189.378S556.268,691.456,557.527,691.456Z" transform="translate(54.068 473.651)" fill="#263238"/>
      <path id="Path_653" data-name="Path 653" d="M1053.577,926.916,728.664,796.089a74.465,74.465,0,0,1-46.416-63.258L658.509,421.179s2.785-132.618-79.969-139.249L531.4,300.43c-60.938,32.624-75.99,121.213-67.569,189.643,11.736,97.209,16.644,234.8,29.839,319.211,10.808,69.028,52.251,123.6,117.9,147.537l400.373,86.666Z" transform="translate(-461.676 300.389)" fill="#4c8bf5"/>
      <path id="Path_654" data-name="Path 654" d="M492.25,310.1a52.2,52.2,0,0,1,.995,7.095c.53,5.106,1.26,11.936,2.122,20.556,1.657,18.235,3.978,43.963,6.631,75.592s5.968,70.022,9.615,112.128c.862,10.543,1.79,21.351,2.719,32.425a249.317,249.317,0,0,0,4.178,33.154,55.37,55.37,0,0,0,16.113,29.176,109.072,109.072,0,0,0,30.037,18.632c89.583,38.791,172.4,70.818,232.081,93.3l71.216,26.524,19.362,7.095a38.407,38.407,0,0,1,6.63,2.785,49.831,49.831,0,0,1-6.631-1.923l-19.892-6.631c-17.041-5.636-41.576-14.124-71.746-24.932-60.275-21.816-143.028-53.047-232.943-92.236a113.585,113.585,0,0,1-31.165-19.495,59.152,59.152,0,0,1-17.306-31.364,246.606,246.606,0,0,1-4.112-33.95q-1.392-16.577-2.586-32.425c-3.315-42.172-6.233-80.167-8.753-112.261s-4.111-57.357-5.5-75.658c-.53-8.62-.928-15.516-1.26-20.622A53.054,53.054,0,0,1,492.25,310.1Z" transform="translate(-290.842 459.011)" fill="#263238"/>
      <path id="Path_655" data-name="Path 655" d="M464.4,335.65a12.338,12.338,0,0,1,.663,4.178c0,3.249.663,7.228,1.061,12,.995,11.14,2.321,26.059,3.846,44.228s4.045,40.846,7.294,65.38a624.984,624.984,0,0,0,14.72,78.974,116.434,116.434,0,0,0,15.848,37.6A215.015,215.015,0,0,0,532.1,607.848,207.41,207.41,0,0,0,584.149,646.9a196.009,196.009,0,0,0,57.092,18.7,18.917,18.917,0,0,1-4.244,0,86.741,86.741,0,0,1-12.068-1.525,159.8,159.8,0,0,1-42.5-14.455A204.759,204.759,0,0,1,528.98,610.7a210.858,210.858,0,0,1-24.932-30.3,120.423,120.423,0,0,1-16.578-38.857,595.457,595.457,0,0,1-14.456-79.571c-2.984-24.667-4.973-46.946-6.631-65.646s-2.055-33.884-2.453-44.361V339.828a17.1,17.1,0,0,1,.464-4.178Z" transform="translate(-448.983 602.88)" fill="#263238"/>
      <path id="Path_656" data-name="Path 656" d="M484.93,433.756a47.275,47.275,0,0,1,5.9-17.373,111.464,111.464,0,0,1,65.911-56.3,47.409,47.409,0,0,1,18.036-3.117c0,.729-6.631,2.056-16.975,6.034a129.908,129.908,0,0,0-36.868,21.882,127.905,127.905,0,0,0-27.386,33.154C487.98,427.457,485.394,433.955,484.93,433.756Z" transform="translate(-330.733 722.863)" fill="#263238"/>
      <g id="Group_64" data-name="Group 64" transform="translate(212.018 861.744)" opacity="0.3">
        <path id="Path_657" data-name="Path 657" d="M780.1,652.5c-34.746-19.892-68.762-34.746-105.1-51.257s-71.945-37.73-95.684-69.757C534.43,471.01,539.536,383.748,493.65,324.07L502.6,444.421c2.785,36.8-2.851,72.94,20.821,98.137,19.893,21.02,58.882,37.2,86.2,46.416,55.368,18.235,114.98,45.355,170.281,63.656" transform="translate(-493.65 -324.07)"/>
      </g>
      <path id="Path_658" data-name="Path 658" d="M553.45,316.16l28.114,173.464-26.59-49.135Z" transform="translate(55.095 493.134)" opacity="0.3"/>
      <path id="Path_659" data-name="Path 659" d="M652.514,301.05a28.178,28.178,0,0,1-7.493.6l-20.556.53c-17.307.464-41.177,1.326-67.5,3.183s-50.063,4.443-67.3,6.631L469.3,314.378a37.14,37.14,0,0,1-7.493.53,26.532,26.532,0,0,1,7.294-1.857c4.774-.995,11.67-2.188,19.893-3.514,17.174-2.652,40.979-5.57,67.37-7.493s50.395-2.387,67.768-2.188c8.687,0,15.715.332,20.556.6a36.2,36.2,0,0,1,7.825.6Z" transform="translate(-460.919 401.09)" fill="#455a64"/>
      <path id="Path_660" data-name="Path 660" d="M653.888,325.234c0,.929-42.57,5.238-95.153,9.549s-95.419,7.161-95.485,6.167,42.5-5.238,95.153-9.615S653.888,324.239,653.888,325.234Z" transform="translate(-452.811 543.075)" fill="#455a64"/>
      <path id="Path_661" data-name="Path 661" d="M655.824,351.37a35.477,35.477,0,0,1-6.631,3.846c-4.443,2.321-10.941,5.371-19.229,8.819A397.456,397.456,0,0,1,494.495,394.4a183.89,183.89,0,0,1-21.153,0,29.1,29.1,0,0,1-7.692-.6,38.022,38.022,0,0,1,7.692-.729c4.973,0,12.134-.6,21.02-1.326a489.112,489.112,0,0,0,68.3-9.681,483.1,483.1,0,0,0,66.308-19.893c8.289-3.183,14.986-5.835,19.893-7.758a33.163,33.163,0,0,1,6.962-3.05Z" transform="translate(-439.297 691.398)" fill="#455a64"/>
      <path id="Path_662" data-name="Path 662" d="M558.215,364.87a170.562,170.562,0,0,0-32.226,25.861A180.069,180.069,0,0,0,503.51,425.41a33.157,33.157,0,0,1,3.581-11.869,94.624,94.624,0,0,1,39.785-43.9,30.7,30.7,0,0,1,11.339-4.774Z" transform="translate(-226.111 767.414)" fill="#455a64"/>
      <path id="Path_663" data-name="Path 663" d="M529.49,436.021a126.324,126.324,0,0,1,34.746-63.391c.8.663-9.416,13.262-18.964,30.833S530.485,436.353,529.49,436.021Z" transform="translate(-79.821 811.11)" fill="#455a64"/>
      <path id="Path_664" data-name="Path 664" d="M579.988,285.3a327.8,327.8,0,0,1-45.952,10.079,322.966,322.966,0,0,1-46.416,6.631,314.26,314.26,0,0,1,45.952-10.079A322.927,322.927,0,0,1,579.988,285.3Z" transform="translate(-315.586 319.365)" fill="#455a64"/>
      <path id="Path_665" data-name="Path 665" d="M656.423,300.279a598.713,598.713,0,0,1-63.789-5.835,581.837,581.837,0,0,1-63.324-9.283A620.368,620.368,0,0,1,593.1,291a601.965,601.965,0,0,1,63.325,9.283Z" transform="translate(-80.834 318.577)" fill="#455a64"/>
      <path id="Path_666" data-name="Path 666" d="M892.135,311.692a13.72,13.72,0,0,1-4.045,0H833.518c-36.2,0-86.2,0-141.437,1.658s-105.166,3.713-141.37,5.636l-42.836,2.254-11.6.464a13.851,13.851,0,0,1-4.111,0,22.414,22.414,0,0,1,4.045-.6l11.6-1.193c10.079-.928,24.667-2.056,42.769-3.315,36.138-2.52,86.2-5.172,141.437-6.631s105.3-1.326,141.569-.663c18.1.332,32.757.729,42.836,1.194l11.67.53A21.668,21.668,0,0,1,892.135,311.692Z" transform="translate(-290.022 451.849)" fill="#455a64"/>
      <path id="Path_667" data-name="Path 667" d="M876.723,337.019c0,.928-85.206,7.294-190.438,14.256s-190.638,11.737-190.7,10.808,85.207-7.36,190.439-14.256S876.657,336.024,876.723,337.019Z" transform="translate(-270.764 609.866)" fill="#455a64"/>
      <path id="Path_668" data-name="Path 668" d="M714.7,361.26a38.2,38.2,0,0,1-7.161,3.05c-4.708,1.79-11.538,4.111-19.893,6.631-17.041,5.57-40.846,12.532-67.436,18.964s-50.925,11.007-68.63,13.726c-8.885,1.459-16.046,2.453-21.02,2.984a40.33,40.33,0,0,1-7.825.53,35.4,35.4,0,0,1,7.626-1.856l20.755-4.045c17.572-3.382,41.775-8.355,68.3-14.721s50.328-12.93,67.5-17.9l20.357-5.9a30.775,30.775,0,0,1,7.426-1.458Z" transform="translate(-117.829 747.087)" fill="#455a64"/>
      <path id="Path_669" data-name="Path 669" d="M678.177,317.12a592.932,592.932,0,0,1-61.932,17.771,603.816,603.816,0,0,1-62.794,14.455,605.286,605.286,0,0,1,61.933-17.771A587.871,587.871,0,0,1,678.177,317.12Z" transform="translate(55.095 498.54)" fill="#455a64"/>
      <path id="Path_670" data-name="Path 670" d="M609.581,298.431a113.463,113.463,0,0,1-27.385,6.631,116.775,116.775,0,0,1-28.115,3.315,119.364,119.364,0,0,1,27.452-6.631,116.378,116.378,0,0,1,28.049-3.316Z" transform="translate(58.643 393.297)" fill="#455a64"/>
      <path id="Path_671" data-name="Path 671" d="M606.564,407.325c-.663,0-1.724-11.007-7.758-27.651a139.978,139.978,0,0,0-98.535-88.589c-17.241-4.244-28.447-4.045-28.38-4.708a29.054,29.054,0,0,1,7.824-.331,121.386,121.386,0,0,1,21.086,2.718A134.872,134.872,0,0,1,601.06,378.879a113.6,113.6,0,0,1,4.907,20.688,28.517,28.517,0,0,1,.6,7.758Z" transform="translate(-404.16 322.863)" fill="#263238"/>
      <path id="Path_672" data-name="Path 672" d="M550.6,290.9a532.556,532.556,0,0,1,11.471,60.607,536,536,0,0,1,8.024,61.2,560.046,560.046,0,0,1-11.4-60.673A548.234,548.234,0,0,1,550.6,290.9Z" transform="translate(39.047 350.898)" fill="#263238"/>
      <path id="Path_673" data-name="Path 673" d="M654.116,438.29s249.852,69.094,259.865,72.94c15.052,5.3,12.533,60.407-10.875,59.678-11.073-.4-191.9,6.631-214.774,5.3s-91.771-28.579-91.771-28.579Z" transform="translate(297.842 1180.834)" fill="#464646"/>
      <path id="Path_674" data-name="Path 674" d="M621.35,494.8c1.26,0,2.918-13.262,11.008-26.524S650.791,446.262,650,445.268s-12.864,6.1-21.285,20.887S620.29,494.933,621.35,494.8Z" transform="translate(434.713 1219.609)" fill="#fff"/>
      <path id="Path_675" data-name="Path 675" d="M617.282,491.366c1.194,0,3.714-11.6,10.411-24.667s14.522-22.147,13.262-23.009a47.609,47.609,0,0,0-17.373,21.153C617.282,478.9,616.288,491.3,617.282,491.366Z" transform="translate(412.656 1211.241)" fill="#fff"/>
      <path id="Path_676" data-name="Path 676" d="M614.637,492.309c1.26,0,0-12.6,5.835-26.523s14.522-22.412,13.66-23.341-11.737,6.631-17.505,21.882S613.642,492.972,614.637,492.309Z" transform="translate(390.899 1203.799)" fill="#fff"/>
      <path id="Path_677" data-name="Path 677" d="M630.638,494.311a44.565,44.565,0,0,0,2.718-18.633,89.909,89.909,0,0,0-2.586-20.357,78.122,78.122,0,0,0-3.713-11.6,13.865,13.865,0,0,0-3.978-6.1,6.631,6.631,0,0,0-8.554.4,11.075,11.075,0,0,0-3.382,7.1,56.054,56.054,0,0,0,0,6.631,51.817,51.817,0,0,0,1.525,12.267,75.8,75.8,0,0,0,7.692,19.1,51.591,51.591,0,0,0,11.207,15.052c.6-.4-3.581-6.233-8.621-16.445a84.936,84.936,0,0,1-6.631-18.567,57.327,57.327,0,0,1-1.193-11.4c0-3.846,0-8.62,2.32-10.477a2.387,2.387,0,0,1,3.316,0,9.94,9.94,0,0,1,2.718,4.377,86.782,86.782,0,0,1,3.78,11.007,99.1,99.1,0,0,1,3.316,19.495C631.036,487.68,629.909,494.311,630.638,494.311Z" transform="translate(379.407 1169.306)" fill="#fff"/>
      <path id="Path_678" data-name="Path 678" d="M656.384,446.984a34.947,34.947,0,0,0-16.18-2.653,72.917,72.917,0,0,0-17.7,2.188,38.58,38.58,0,0,0-10.212,3.78,10.609,10.609,0,0,0-5.636,11.406,12.335,12.335,0,0,0,9.018,8.885,22.885,22.885,0,0,0,11.206,0,44.3,44.3,0,0,0,16.245-8.024,45.893,45.893,0,0,0,11.6-11.471,108.748,108.748,0,0,0-13.262,9.018,43.89,43.89,0,0,1-15.318,6.631,19.1,19.1,0,0,1-9.283,0,8.552,8.552,0,0,1-6.1-5.9,6.631,6.631,0,0,1,3.713-7.028,39.75,39.75,0,0,1,9.084-3.514,84.789,84.789,0,0,1,16.842-2.918C649.753,446.653,655.92,447.648,656.384,446.984Z" transform="translate(353.661 1214.312)" fill="#fff"/>
      <path id="Path_679" data-name="Path 679" d="M628.335,488.907c1.193,0,0-10.808,4.907-22.545s13.262-18.633,12.2-19.561-10.809,4.907-16.047,17.969S627.274,489.305,628.335,488.907Z" transform="translate(466.121 1228.221)" fill="#fff"/>
      <path id="Path_680" data-name="Path 680" d="M600.44,454.869a50.768,50.768,0,0,0,9.614,4.509A209.1,209.1,0,0,0,637.9,468a395.7,395.7,0,0,0,95.352,9.018c37.465-.4,71.216-2.055,95.684-3.05l28.911-1.525a55.974,55.974,0,0,0,10.609-1.127,48.317,48.317,0,0,0-10.675-.53H828.808l-95.551,1.857a450.16,450.16,0,0,1-94.755-7.692C614.63,460.24,600.705,454.073,600.44,454.869Z" transform="translate(319.69 1273.797)" fill="#fff"/>
      <path id="Path_681" data-name="Path 681" d="M599.32,473.541c0,.53,7.161-3.448,18.7-8.487a86.73,86.73,0,0,1,47.278-7.891A74.993,74.993,0,0,1,706.21,481.5,149.646,149.646,0,0,0,720.6,496.219a77.423,77.423,0,0,0-12.267-16.776,99.431,99.431,0,0,0-16.51-15.45,59.674,59.674,0,0,0-25.86-10.941,82.491,82.491,0,0,0-48.87,9.416,65.246,65.246,0,0,0-17.771,11.074Z" transform="translate(313.384 1260.828)" fill="#fff"/>
      <path id="Path_682" data-name="Path 682" d="M772.679,429.54S536.288,584.3,527.734,590.737c-12.731,9.615,1.857,55.434,23.938,47.477,10.411-3.713,208.807-58.949,230.158-67.237s78.775-55.1,78.775-55.1Z" transform="translate(-116.392 1131.564)" fill="#464646"/>
      <path id="Path_683" data-name="Path 683" d="M586.042,480.937c.994,0-3.183-13.859-15.848-25.264s-26.524-14.522-26.524-13.262,12.068,5.7,23.805,16.511S584.914,481.534,586.042,480.937Z" transform="translate(0.025 1202.572)" fill="#fff"/>
      <path id="Path_684" data-name="Path 684" d="M584.971,477.593c1-.332-3.581-12.267-14.389-23.208s-22.545-15.914-22.943-14.919,9.747,7.294,19.892,17.837S583.844,478.19,584.971,477.593Z" transform="translate(22.314 1186.754)" fill="#fff"/>
      <path id="Path_685" data-name="Path 685" d="M585.021,478.387c1.061,0,0-13.262-10.344-25.993S551.6,435.883,551.4,436.944s10.742,6.631,19.893,18.1S583.827,478.719,585.021,478.387Z" transform="translate(43.549 1172.3)" fill="#263238"/>
      <path id="Path_686" data-name="Path 686" d="M564.946,488.664c.6,0-2.652-6.631-5.371-17.7A103.372,103.372,0,0,1,556.79,451.4a99.509,99.509,0,0,1,0-11.67,10.526,10.526,0,0,1,1.259-4.974,2.454,2.454,0,0,1,3.249-.729c2.719,1.061,4.111,5.636,5.371,9.283a53.524,53.524,0,0,1,2.32,11.206,81.849,81.849,0,0,1-.6,19.893c-1.658,11.206-3.846,18.036-3.183,18.235a50.329,50.329,0,0,0,6.1-17.7,75.439,75.439,0,0,0,1.524-20.556,54.089,54.089,0,0,0-2.254-12.134,50.487,50.487,0,0,0-2.321-6.167,11.006,11.006,0,0,0-5.3-5.7,6.631,6.631,0,0,0-8.289,2.188,14.39,14.39,0,0,0-1.99,7.029,93.7,93.7,0,0,0,0,12.2,85.267,85.267,0,0,0,3.78,19.892,43.371,43.371,0,0,0,8.488,16.975Z" transform="translate(49.633 1132.648)" fill="#263238"/>
      <path id="Path_687" data-name="Path 687" d="M554.28,447.448c.331.6,5.835-2.188,15.384-4.509a85.335,85.335,0,0,1,16.909-2.321,39.79,39.79,0,0,1,9.747.6,6.631,6.631,0,0,1,5.636,5.5,8.621,8.621,0,0,1-3.979,7.559,19.887,19.887,0,0,1-8.819,2.918,43.82,43.82,0,0,1-16.578-1.658,118.816,118.816,0,0,0-15.45-4.575,43.3,43.3,0,0,0,14.589,7.36,42.635,42.635,0,0,0,17.837,2.718A23.6,23.6,0,0,0,600.3,457.66a12.532,12.532,0,0,0,5.835-11.272,10.543,10.543,0,0,0-8.819-9.151,40.984,40.984,0,0,0-10.875-.464,72.957,72.957,0,0,0-17.572,3.315A36.207,36.207,0,0,0,554.28,447.448Z" transform="translate(59.769 1171.344)" fill="#263238"/>
      <path id="Path_688" data-name="Path 688" d="M553.147,509.318c0,.4,3.979-2.387,5.835-9.151a34.812,34.812,0,0,0-4.443-25.661,89.056,89.056,0,0,0-7.957-11.8,42.317,42.317,0,0,0-8.023-8.619A14.521,14.521,0,0,0,531,450.9c-1.923,0-2.984.4-2.918.663a22.545,22.545,0,0,1,8.62,4.774,56.624,56.624,0,0,1,6.631,8.62A133.329,133.329,0,0,1,550.76,476.5a36.87,36.87,0,0,1,5.172,23.076,93.06,93.06,0,0,1-2.784,9.747Z" transform="translate(-87.763 1251.839)" fill="#fff"/>
      <path id="Path_689" data-name="Path 689" d="M569.38,479.957c1.127,0,.8-11.936-8.289-22.678s-20.755-13.262-20.821-12.2,9.549,5.04,17.572,14.92S568.186,480.156,569.38,479.957Z" transform="translate(-19.121 1217.809)" fill="#fff"/>
      <path id="Path_690" data-name="Path 690" d="M824.193,443.82a75.322,75.322,0,0,0-10.411,7.161,301.487,301.487,0,0,1-29.109,17.837,387.831,387.831,0,0,1-46.416,20.622c-17.9,6.631-37.995,12.93-59.214,19.1-42.57,12.267-81.1,23.474-108.879,31.828l-33.155,10.079a68.068,68.068,0,0,0-11.869,4.244,79,79,0,0,0,12.333-2.719l33.154-8.753c27.982-7.626,66.309-18.367,109.145-30.635,21.285-6.167,41.443-12.6,59.678-19.561A350.014,350.014,0,0,0,785.866,471.4a227.358,227.358,0,0,0,28.712-19.163,60.745,60.745,0,0,0,9.615-8.42Z" transform="translate(-104.315 1211.973)" fill="#fff"/>
      <path id="Path_691" data-name="Path 691" d="M663.737,450.024a64.388,64.388,0,0,0-19.892-5.3,82.621,82.621,0,0,0-49.666,6.034,59.68,59.68,0,0,0-21.285,18.3,99.464,99.464,0,0,0-11.073,19.893,77.476,77.476,0,0,0-6.631,19.893,146.369,146.369,0,0,0,9.217-18.368c5.636-11.007,14.522-27.12,31.563-35.608a87.531,87.531,0,0,1,47.477-6.631C655.913,448.963,663.6,450.687,663.737,450.024Z" transform="translate(64.893 1208.951)" fill="#fdfeff"/>
      <path id="Path_692" data-name="Path 692" d="M1206.023,381.924s70.884,25.462,71.216,105.033c.53,152.51-307.806,320.272-307.806,320.272L559.048,535.363,533.32,524.952S1087.264,316.61,1206.023,381.924Z" transform="translate(-58.254 792.069)" fill="#263238"/>
      <path id="Path_693" data-name="Path 693" d="M568.55,596.371a66.728,66.728,0,0,0,10.676-7.227c6.631-4.841,16.312-12.135,28.115-21.219,23.473-18.1,55.434-43.9,89.849-73.4s64.651-57.224,86.2-77.714c10.742-10.212,19.362-18.633,25.2-24.534a69.336,69.336,0,0,0,8.753-9.482,80.267,80.267,0,0,0-9.88,8.289l-26.06,23.54c-22.014,19.893-52.583,47.278-86.931,76.719S628.56,546.9,605.551,565.67l-27.385,22.015a78.952,78.952,0,0,0-9.615,8.686Z" transform="translate(140.121 868.32)" fill="#455a64"/>
      <path id="Path_694" data-name="Path 694" d="M680.948,380.579a81.7,81.7,0,0,0-39.786,3.647c-21.417,6.233-35.806,17.638-35.143,18.434s15.649-8.421,36.337-14.455S680.948,381.9,680.948,380.579Z" transform="translate(350.98 850.307)" fill="#455a64"/>
      <path id="Path_695" data-name="Path 695" d="M643.649,376.12a50.325,50.325,0,0,0-24.27,18.3c-10.941,13.262-13.858,27.518-12.8,27.651s5.7-12.333,16.047-25S644.047,377.247,643.649,376.12Z" transform="translate(353.134 830.762)" fill="#455a64"/>
      <path id="Path_696" data-name="Path 696" d="M657.68,449.227c0-.464-4.907-1.459-10.609,3.183a38.325,38.325,0,0,0-11.8,23.8,45.953,45.953,0,0,0,3.714,26.523c2.917,6.234,6.1,9.217,6.631,8.886s-1.658-3.846-3.714-9.946a54.179,54.179,0,0,1-2.321-24.6,41.174,41.174,0,0,1,9.682-22.214C653.436,450.089,657.746,450.089,657.68,449.227Z" transform="translate(512.634 1240.051)" fill="#fff"/>
      <path id="Path_697" data-name="Path 697" d="M1311.789,369.049l-116.7,314.768a45.354,45.354,0,0,1-43.1,29.574L509.32,704.9V656.1l238.712,8.686L849.219,350.881a25.729,25.729,0,0,1,24.468-17.771L1288.25,334.3a25.661,25.661,0,0,1,23.539,34.746Z" transform="translate(-193.396 588.578)" fill="#e0e0e0"/>
      <path id="Path_698" data-name="Path 698" d="M1312.747,369.619v-.995a16.975,16.975,0,0,0,.8-2.918,24.866,24.866,0,0,0,0-11.869,25.2,25.2,0,0,0-22.943-18.832H878.423a28.184,28.184,0,0,0-17.108,3.78,25.133,25.133,0,0,0-10.676,13.991L749.718,666.152v.729h-.8l-238.712-8.62,1.061-1.061V706l-.994-.995,404.086,5.371,175.652,2.453,40.515.531h19.893a46.407,46.407,0,0,0,18.632-2.719,44.228,44.228,0,0,0,25.794-24.8c4.244-11.405,8.422-22.611,12.533-33.486,32.557-87.328,58.882-157.881,77.051-206.684,9.151-24.269,16.18-43.167,21.02-56.031s7.426-19.429,7.426-19.429-2.32,6.631-7.028,19.893l-20.821,55.567c-18.036,48.87-44.1,119.356-76.454,206.884l-12.466,33.619a45.882,45.882,0,0,1-26.523,25.661,48.8,48.8,0,0,1-19.3,2.918H1130.4l-40.448-.53L914.3,712.038,510.145,706.8h-.995V655.874h1.061l238.712,8.753-.995.729L849.115,352.047a26.523,26.523,0,0,1,11.4-14.919,29.906,29.906,0,0,1,18.036-3.979H982.4l121.146.53,172.934.8H1290.8a25.728,25.728,0,0,1,23.275,19.428,24.6,24.6,0,0,1,0,11.935,23.3,23.3,0,0,1-1.327,3.78Z" transform="translate(-194.353 588.008)" fill="#263238"/>
      <path id="Path_699" data-name="Path 699" d="M597.586,359.105a28.912,28.912,0,0,1,31.232,3.315,25.4,25.4,0,0,1,6.1,27.717,27.318,27.318,0,0,1-23.472,16.378,24.6,24.6,0,0,1-24.8-16.378c-2.984-10.278,0-25.6,10.941-31.033" transform="translate(235.878 717.414)" fill="#fff"/>
      <path id="Path_700" data-name="Path 700" d="M1375.459,796.085s-579.141-370.932-604.67-385.52c-21.749-12.4-79.968-48.206-137.325-32.359S524.65,445.643,498.922,520.638c-14.654,42.968-21.617,116.239-24.866,171.21a253.964,253.964,0,0,0,59.678,181.09,162.659,162.659,0,0,0,72.276,51.323c6.034,1.857,12.334,3.448,18.766,4.841,109.609,23.8,222.267-25.4,283.869-119.356l13.262-20.556s379.286,139.249,385.188,137.326Z" transform="translate(-395.12 820.121)" fill="#263238"/>
      <path id="Path_701" data-name="Path 701" d="M803.094,432.218s-.531,0-1.459-.862l-4.045-2.785c-3.581-2.454-8.819-6.034-15.649-10.477a310.587,310.587,0,0,0-61.535-31.232,164.046,164.046,0,0,0-46.416-9.747,132.618,132.618,0,0,0-53.047,8.687,170.545,170.545,0,0,0-51.191,31.032,232.886,232.886,0,0,0-22.744,22.346A163.83,163.83,0,0,0,528.177,465.7a271.838,271.838,0,0,0-24.932,59.678c-5.5,20.224-9.88,40.183-13.991,59.015a536.522,536.522,0,0,0-13.262,101.585,368.721,368.721,0,0,0,5.238,68.9c1.26,8.089,2.719,14.256,3.581,18.5l.928,4.841a5.234,5.234,0,0,1,0,1.657,8.568,8.568,0,0,1-.53-1.591c0-1.26-.8-2.851-1.26-4.774-1.127-4.178-2.785-10.278-4.244-18.368a344.355,344.355,0,0,1-6.632-69.16,520.716,520.716,0,0,1,12.8-102.049c4.111-18.964,8.355-38.791,13.792-59.28a279.413,279.413,0,0,1,25.264-60.474,169.271,169.271,0,0,1,19.229-27.253A232.968,232.968,0,0,1,567.3,414.248a173.8,173.8,0,0,1,52.251-31.43,135.275,135.275,0,0,1,54.573-8.62,168.359,168.359,0,0,1,46.947,10.344,290.889,290.889,0,0,1,61.468,32.425c6.631,4.642,11.869,8.421,15.317,11.074l3.846,3.05a5.833,5.833,0,0,1,1.393,1.127Z" transform="translate(-397.519 819.025)" fill="#455a64"/>
      <path id="Path_702" data-name="Path 702" d="M501.35,669.763a30.741,30.741,0,0,0,3.183,1.459l9.482,3.713,36.735,14.323,136.6,51.456C745.366,762.33,814.924,788.124,892.9,816.5s164.38,59.678,256.682,90.71l1.724.53.8-1.525c14.455-27.717,29.773-56.893,45.289-86.533l23.075-44.228.928-1.724-1.658-.995L777.526,491.989,644.909,408.174l-36.072-22.545-9.416-5.7a35.554,35.554,0,0,0-3.249-1.857s.995.8,3.05,2.188l9.217,6.1L644.113,409.5l132.153,84.875,441.485,281.879-.729-2.719c-7.294,13.991-15.118,28.977-23.075,44.1l-45.223,86.533,2.453-1.061c-92.236-31.165-178.7-62.131-256.748-90.246L688.872,737.994,551.812,687.732l-37-13.262-9.615-3.382Z" transform="translate(-238.274 841.742)" fill="#455a64"/>
      <path id="Path_703" data-name="Path 703" d="M531.047,474.99a297.56,297.56,0,0,1-25.727-61.6,100.327,100.327,0,0,1,3.448-65.513c5.371-11.869,13.858-22.28,18.1-34.613,5.769-16.975,3.382-37,13.925-51.522C557.173,239,592.317,244.3,617.713,232.432c19.893-9.283,33.619-29.242,54.373-35.939,18.169-5.835,37.995,0,55.5,7.294s34.679,17.042,53.578,19.495a363.646,363.646,0,0,0,40.781,0,53.645,53.645,0,0,1,37.6,13.262c9.548,9.614,11.537,27.452,1.193,36.271,23.805-4.045,46.416,19.893,45.886,43.83S888.12,362,866.172,372.078s-46.947,10.676-71.017,8.753c-68.1-5.3-136.53-31.165-182.88-81.295" transform="translate(-238 -194.111)" fill="#464646"/>
      <path id="Path_704" data-name="Path 704" d="M548.3,347.972l-46.416,337.18A101.188,101.188,0,0,0,593.328,799.8h0a101.319,101.319,0,0,0,109.144-87.2c3.449-25.4,6.631-46.416,6.631-49.135,0,0,86.931,3.713,104.834-80.366,8.62-40.647,19.893-125.987,28.646-202.971A160.136,160.136,0,0,0,715.27,204.612l-8.156-1.591C618.393,190.488,558.251,258.919,548.3,347.972Z" transform="translate(-240.603 -152.299)" fill="#ffbe9d"/>
      <path id="Path_705" data-name="Path 705" d="M620.517,316.047A200.387,200.387,0,0,1,516.81,263s13.859,65.911,99.463,75.128Z" transform="translate(-151.221 193.796)" fill="#eb996e"/>
      <path id="Path_706" data-name="Path 706" d="M567.523,250.729a12.267,12.267,0,0,1-14.057,9.814,11.736,11.736,0,0,1-10.211-13.262,12.267,12.267,0,0,1,13.99-9.88,11.737,11.737,0,0,1,10.278,13.328Z" transform="translate(-2.941 48.783)" fill="#263238"/>
      <path id="Path_707" data-name="Path 707" d="M588.814,249.549c-1.791,1.26-9.548-7.294-22.545-9.814s-23.739,1.989-24.8,0c-.531-.862,1.525-3.382,6.631-5.57a33.156,33.156,0,0,1,19.893-2.055,32.225,32.225,0,0,1,17.572,9.814C588.946,245.9,589.742,249.019,588.814,249.549Z" transform="translate(-12.826 16.012)" fill="#263238"/>
      <path id="Path_708" data-name="Path 708" d="M549.311,247.533a12.267,12.267,0,0,1-14.057,9.814,11.671,11.671,0,0,1-10.212-13.262,12.2,12.2,0,0,1,13.992-9.814,11.736,11.736,0,0,1,10.278,13.262Z" transform="translate(-105.544 31.092)" fill="#263238"/>
      <path id="Path_709" data-name="Path 709" d="M569.6,246.136c-1.857,1.26-9.615-7.294-22.611-9.88s-23.738,2.056-24.8,0c-.531-.862,1.525-3.382,6.631-5.57a33.156,33.156,0,0,1,19.893-2.056,32.624,32.624,0,0,1,17.572,9.747C569.666,242.489,570.462,245.539,569.6,246.136Z" transform="translate(-121.389 -3.584)" fill="#263238"/>
      <path id="Path_710" data-name="Path 710" d="M533.46,339.286a85.012,85.012,0,0,1,21.815.4c3.382.332,6.631,0,7.626-1.857a17.043,17.043,0,0,0,0-10.278c-1.459-8.62-3.051-17.638-4.708-27.12-6.631-38.592-10.344-70.022-8.819-70.287s8.024,30.834,14.455,69.425c1.459,9.482,2.918,18.5,4.31,27.187a19.889,19.889,0,0,1-.862,13.262,8.621,8.621,0,0,1-6.631,3.779,22.075,22.075,0,0,1-5.769-.4,86.179,86.179,0,0,1-21.418-4.111Z" transform="translate(-57.466 8.764)" fill="#263238"/>
      <path id="Path_711" data-name="Path 711" d="M530.534,246.813c2.122,0-.663,14.389,9.416,26.524s25.33,13.859,25,15.848c0,.928-3.846,2.056-10.211.995a35.939,35.939,0,0,1-21.086-12.466A31.164,31.164,0,0,1,527.02,255.5C527.616,249.731,529.605,246.548,530.534,246.813Z" transform="translate(-94.458 102.563)" fill="#263238"/>
      <path id="Path_712" data-name="Path 712" d="M582.5,236.454c-1.989,3.249-14.588-.995-30.171-2.188s-28.645.464-30.038-3.05c-.6-1.724,2.188-4.575,7.825-7.029A53.047,53.047,0,0,1,576,228.232C581.1,231.547,583.358,234.929,582.5,236.454Z" transform="translate(-120.825 -44.031)" fill="#263238"/>
      <path id="Path_713" data-name="Path 713" d="M586.139,244.328c-2.918,2.52-11.207-2.321-21.882-4.642s-19.893-1.989-21.75-5.437c-.6-1.724,1.393-4.376,5.968-6.631a32.359,32.359,0,0,1,35.077,8.156C586.47,239.819,587.134,243.135,586.139,244.328Z" transform="translate(-7.101 -17.226)" fill="#263238"/>
      <path id="Path_714" data-name="Path 714" d="M562.641,239.571c-1.326-.928-54.506-28.712-64.187,29.309s50.594,55.766,50.925,54.108S562.641,239.571,562.641,239.571Z" transform="translate(-260.509 19.89)" fill="#ffbe9d"/>
      <path id="Path_715" data-name="Path 715" d="M522.662,282.771a18.323,18.323,0,0,1-2.917.995,10.278,10.278,0,0,1-7.626-1.061c-5.769-3.315-9.283-13.858-7.824-24.4a34.347,34.347,0,0,1,5.238-13.991,12.069,12.069,0,0,1,8.885-6.631,5.239,5.239,0,0,1,5.5,3.78,4.762,4.762,0,0,1,0,2.984c0,.133,1.392-.729,1.326-3.183a6.632,6.632,0,0,0-1.658-4.045,7.692,7.692,0,0,0-5.371-2.387,14.389,14.389,0,0,0-12.068,7.228,34.478,34.478,0,0,0-6.167,15.582c-1.591,11.737,2.586,23.672,10.543,27.518a11.207,11.207,0,0,0,9.548,0C522.33,284.164,522.861,282.9,522.662,282.771Z" transform="translate(-247.849 35.174)" fill="#eb996e"/>
      <path id="Path_716" data-name="Path 716" d="M830.1,312.327c-9.946,21.418-61.136,29.706-98.667,18.367-34.547-10.41-47.146-32.359-69.094-51.522-13.925-12.134-13.925-12.134-36.669-14.455-18.368-1.923-33.155,16.378-47.013,28.513,7.758,46.416-12.731,91.771-32.757,134.01a23.275,23.275,0,0,1-9.35,12c-7.824,3.846-17.24-2.254-21.948-9.681a72.942,72.942,0,0,1-8.156-40.713,242.3,242.3,0,0,1,19.3-93.363,164.052,164.052,0,0,1,60.606-72.94,155.826,155.826,0,0,1,115.378-19.1,191.5,191.5,0,0,1,101.122,60.672A111.805,111.805,0,0,1,830.1,312" transform="translate(-211.277 -162.806)" fill="#464646"/>
      <path id="Path_717" data-name="Path 717" d="M537.489,287.155c.531,0,0-4.973,2.652-13.262A56.5,56.5,0,0,1,560.7,244.055a54.638,54.638,0,0,1,51.323-7.361,54.026,54.026,0,0,1,0,101.386,54.507,54.507,0,0,1-51.324-7.427,56.165,56.165,0,0,1-20.555-29.773c-2.321-8.487-2.122-13.262-2.652-13.262a14.256,14.256,0,0,0,0,3.647,42.441,42.441,0,0,0,1.193,10.278,55.571,55.571,0,0,0,20.291,32.027,58.225,58.225,0,1,0-.265-92.368,55.434,55.434,0,0,0-20.291,31.961,43.252,43.252,0,0,0-1.193,10.344A13.256,13.256,0,0,0,537.489,287.155Z" transform="translate(-36.431 2.543)" fill="#263238"/>
      <path id="Path_718" data-name="Path 718" d="M516.588,283.2c.53,0,0-4.973,2.652-13.262A56.292,56.292,0,0,1,539.8,240.1a54.506,54.506,0,0,1,51.323-7.36,53.957,53.957,0,0,1,0,101.32A54.506,54.506,0,0,1,539.8,326.7a56.292,56.292,0,0,1-20.556-29.839c-2.32-8.421-2.122-13.262-2.652-13.262a13.908,13.908,0,0,0,0,3.581,43.258,43.258,0,0,0,1.194,10.344,55.57,55.57,0,0,0,20.29,32.027,58.125,58.125,0,1,0,.066-91.9,55.762,55.762,0,0,0-20.29,32.027,43.254,43.254,0,0,0-1.193,10.344A13.243,13.243,0,0,0,516.588,283.2Z" transform="translate(-153.121 -17.503)" fill="#263238"/>
      <path id="Path_719" data-name="Path 719" d="M533.629,238.77c.6,1.127,7.957-2.321,16.511.331s12.864,9.482,13.991,8.819,0-2.453-1.658-5.371a20.489,20.489,0,0,0-24.468-7.36C534.756,236.516,533.3,238.24,533.629,238.77Z" transform="translate(-56.773 28.913)" fill="#263238"/>
      <path id="Path_720" data-name="Path 720" d="M504.74,234.485c0,1.326,18.5,2.056,41.31,1.79s41.244-1.658,41.244-2.984-18.5-2.056-41.311-1.724S504.74,233.159,504.74,234.485Z" transform="translate(-219.185 16.356)" fill="#263238"/>
      <path id="Path_721" data-name="Path 721" d="M667.243,208.311a17.037,17.037,0,0,1-.928,5.5,27.052,27.052,0,0,1-8.686,12.466,38.325,38.325,0,0,1-20.888,8.554,104.367,104.367,0,0,1-27.65-1.459,486.443,486.443,0,0,1-49.2-9.88c-6.233-1.658-11.273-3.05-14.655-4.111l-3.978-1.26-1.326-.53h1.392l4.045.995,14.72,3.647c12.466,2.984,29.839,6.631,49.2,9.548a105.3,105.3,0,0,0,27.32,1.525,38.063,38.063,0,0,0,20.423-8.024,27.322,27.322,0,0,0,8.753-11.869C666.978,210.3,667.044,208.245,667.243,208.311Z" transform="translate(-21.035 -114.158)" fill="#fff"/>
      <path id="Path_722" data-name="Path 722" d="M634.722,210.29a53.575,53.575,0,0,1-4.973,15.914A67.9,67.9,0,0,1,564.3,265.26a53.647,53.647,0,0,1-16.312-3.116,28.7,28.7,0,0,1,4.376.862,81.67,81.67,0,0,0,12,1.326A68.961,68.961,0,0,0,628.82,225.74a64.067,64.067,0,0,0,4.509-11.206,33.17,33.17,0,0,1,1.393-4.244Z" transform="translate(24.35 -103.008)" fill="#fff"/>
    </g>
  </g>
</svg>
