<svg xmlns="http://www.w3.org/2000/svg" width="895" height="241.75" viewBox="0 0 895 241.75">
  <g id="gdgD" transform="translate(-2252 -302.25)">
    <g id="Group_66" data-name="Group 66" transform="translate(2578.767 302.25)">
      <g id="Group_1" data-name="Group 1" transform="translate(9.653)">
        <path id="Path_1" data-name="Path 1" d="M896.737,480.883l39.223-22.645a19.3,19.3,0,0,0-19.3-33.426l-67.774,39.129Z" transform="translate(-848.887 -422.223)" fill="#ea4335"/>
      </g>
      <g id="Group_2" data-name="Group 2" transform="translate(0 39.128)">
        <path id="Path_2" data-name="Path 2" d="M926.292,539.085a19.3,19.3,0,0,0,9.668-36.015l-67.775-39.129a19.3,19.3,0,0,0-19.3,33.427L916.661,536.5A19.2,19.2,0,0,0,926.292,539.085Z" transform="translate(-839.234 -461.351)" fill="#4285f4"/>
      </g>
      <g id="Group_3" data-name="Group 3" transform="translate(135.155 57.851)">
        <path id="Path_3" data-name="Path 3" d="M993.709,539.085a19.2,19.2,0,0,0,9.631-2.588l67.774-39.129-47.242-17.294-39.83,23a19.3,19.3,0,0,0,9.667,36.015Z" transform="translate(-974.389 -480.074)" fill="#fbbc04"/>
      </g>
      <g id="Group_4" data-name="Group 4" transform="translate(135.155)">
        <path id="Path_4" data-name="Path 4" d="M1061.446,499.957a19.3,19.3,0,0,0,9.668-36.016l-67.774-39.129a19.3,19.3,0,1,0-19.3,33.426l67.773,39.13A19.219,19.219,0,0,0,1061.446,499.957Z" transform="translate(-974.389 -422.223)" fill="#0f9d58"/>
      </g>
    </g>
    <text id="Google_Developer_Group" data-name="Google Developer Group" transform="translate(2252 438)" fill="#fff" font-size="80" font-family="SegoeUI, Segoe UI"><tspan x="0" y="86">Google Developer Group</tspan></text>
  </g>
</svg>
