<svg xmlns="http://www.w3.org/2000/svg" width="864" height="303.72" viewBox="0 0 864 303.72">
  <g id="Group_8" data-name="Group 8" transform="translate(-524.073 -422.223)">
    <g id="Group_7" data-name="Group 7">
      <text id="Vidyalankar_Institute_of_Technology" data-name="Vidyalankar Institute of Technology" transform="translate(960 714.943)" fill="#fff" font-size="43.009" font-family="SegoeUI, Segoe UI"><tspan x="-332.67" y="0">Vidyalankar Institute of Technology</tspan></text>
    </g>
    <g id="Group_6" data-name="Group 6">
      <text id="Google_Developer_Student_Clubs" data-name="Google Developer Student Clubs" transform="translate(524.073 642.299)" fill="#fff" font-size="61.179" font-family="SegoeUI, Segoe UI" letter-spacing="-0.01em"><tspan x="0" y="0">Google Developer Student Clubs</tspan></text>
      <g id="Group_5" data-name="Group 5">
        <g id="Group_1" data-name="Group 1">
          <path id="Path_1" data-name="Path 1" d="M896.737,480.883l39.223-22.645a19.3,19.3,0,0,0-19.3-33.426l-67.774,39.129Z" fill="#ea4335"/>
        </g>
        <g id="Group_2" data-name="Group 2">
          <path id="Path_2" data-name="Path 2" d="M926.292,539.085a19.3,19.3,0,0,0,9.668-36.015l-67.775-39.129a19.3,19.3,0,0,0-19.3,33.427L916.661,536.5A19.2,19.2,0,0,0,926.292,539.085Z" fill="#4285f4"/>
        </g>
        <g id="Group_3" data-name="Group 3">
          <path id="Path_3" data-name="Path 3" d="M993.709,539.085a19.2,19.2,0,0,0,9.631-2.588l67.774-39.129-47.242-17.294-39.83,23a19.3,19.3,0,0,0,9.667,36.015Z" fill="#fbbc04"/>
        </g>
        <g id="Group_4" data-name="Group 4">
          <path id="Path_4" data-name="Path 4" d="M1061.446,499.957a19.3,19.3,0,0,0,9.668-36.016l-67.774-39.129a19.3,19.3,0,1,0-19.3,33.426l67.773,39.13A19.219,19.219,0,0,0,1061.446,499.957Z" fill="#0f9d58"/>
        </g>
      </g>
    </g>
  </g>
</svg>
