<svg width="1114" height="374" viewBox="0 0 1114 374" fill="none" xmlns="http://www.w3.org/2000/svg">
<path opacity="0.2" d="M160.716 48.3639L160.333 48.2676L39.0605 302.159L466.573 335.16L467.054 335.197L482.719 129.095L482.75 128.69L160.716 48.3639ZM283.526 211.639L40.7431 300.872L160.692 49.7526L283.526 211.639ZM284.239 212.404L464.827 334.056L42.0402 301.422L284.239 212.404ZM284.462 211.278L161.81 49.6283L480.712 129.172L284.462 211.278ZM466.192 333.816L285.314 211.966L481.697 129.805L466.192 333.816Z" fill="white"/>
<path d="M537.357 133.387C536.97 143.161 534.223 152.697 529.35 161.178C524.477 169.66 517.623 176.835 509.373 182.092C501.124 187.348 491.724 190.53 481.978 191.363C472.232 192.197 462.428 190.659 453.406 186.88C449.174 185.107 445.161 182.852 441.445 180.161C434.342 175.033 428.431 168.432 424.115 160.81V160.803C419.513 152.65 416.864 143.541 416.377 134.191C415.89 124.841 417.577 115.506 421.306 106.919C425.036 98.3315 430.706 90.7258 437.871 84.6994C445.035 78.6731 453.5 74.3901 462.6 72.1871C471.699 69.9841 481.185 69.921 490.313 72.0029C499.441 74.0847 507.962 78.2548 515.206 84.1854C522.451 90.116 528.221 97.6456 532.064 106.183C535.908 114.72 537.719 124.032 537.356 133.387L537.357 133.387Z" fill="white"/>
<path opacity="0.09" d="M537.357 133.387C536.97 143.161 534.223 152.697 529.35 161.178C524.477 169.66 517.623 176.835 509.373 182.092C501.124 187.348 491.724 190.53 481.978 191.363C472.232 192.197 462.428 190.659 453.406 186.88C449.174 185.107 445.161 182.852 441.445 180.161C434.342 175.033 428.431 168.432 424.115 160.81V160.803C419.513 152.65 416.864 143.541 416.377 134.191C415.89 124.841 417.577 115.506 421.306 106.919C425.036 98.3315 430.706 90.7258 437.871 84.6994C445.035 78.6731 453.5 74.3901 462.6 72.1871C471.699 69.9841 481.185 69.921 490.313 72.0029C499.441 74.0847 507.962 78.2548 515.206 84.1854C522.451 90.116 528.221 97.6456 532.064 106.183C535.908 114.72 537.719 124.032 537.356 133.387L537.357 133.387Z" fill="#4285F4"/>
<path d="M491.164 84.9253C491.164 84.9253 505.641 85.1026 500.649 105.053L499.29 105.119L496.53 105.254" fill="#0C0C0C"/>
<path d="M475 125.984C475.067 125.978 475.334 138.421 489.799 137.899C499.812 137.538 503.783 127.083 504.013 127.092C502.945 126.821 501.145 126.417 500.677 126.144C499.138 125.239 497.226 124.285 496.838 121.211C496.614 119.44 497.459 110.457 497.376 108.671L481.916 111.497C481.985 115.266 483.145 124.041 477.832 125.38C476.948 125.601 475.997 125.799 475 125.984Z" fill="#E98862"/>
<path opacity="0.52" d="M481.295 121.946C481.565 121.182 481.751 120.39 481.849 119.585C482.088 117.75 482.127 115.893 481.963 114.049C485.094 113.749 488.079 112.577 490.578 110.666C490.821 111.726 492.209 116.382 491.734 117.364C490.843 119.221 486.875 122.163 481.295 121.946Z" fill="#0C0C0C"/>
<path d="M484.805 119.748C490.865 119.314 498.176 115.625 498.43 107.413L498.659 100.005C498.913 91.7945 494.804 85.005 487.076 84.766C479.346 84.5251 473.361 91.0038 473.107 99.2142L473.006 102.494C472.991 103.621 473.052 104.748 473.19 105.867C473.533 108.825 474.066 113.324 476.014 116.395C477.853 119.295 480.934 120.024 484.805 119.748Z" fill="#E98862"/>
<path d="M497.871 109.901C500.221 109.973 502.203 107.519 502.276 105.17C502.349 102.821 500.484 101.466 498.135 101.394L496.875 102.93L495.852 109.839L497.871 109.901Z" fill="#E98862"/>
<path d="M473.505 108.346C473.929 108.849 474.473 109.238 475.086 109.478C475.699 109.717 476.362 109.8 477.015 109.717C478.413 109.542 479.339 110.115 480.506 110C481.485 109.903 481.654 109.451 483.325 109.352C489.776 108.97 494.616 108.563 494.93 100.469L499.035 96.8232C499.035 96.8232 500.87 119.253 488.737 122.235C481.282 124.066 474.291 123.397 473.391 116.395C472.661 110.706 473.505 108.346 473.505 108.346Z" fill="#0C0C0C"/>
<path d="M476.56 103.662C477.086 103.662 477.513 103.235 477.513 102.709C477.513 102.183 477.086 101.757 476.56 101.757C476.034 101.757 475.607 102.183 475.607 102.709C475.607 103.235 476.034 103.662 476.56 103.662Z" fill="#0C0C0C"/>
<path d="M485.072 103.484C485.598 103.484 486.024 103.058 486.024 102.532C486.024 102.006 485.598 101.579 485.072 101.579C484.546 101.579 484.119 102.006 484.119 102.532C484.119 103.058 484.546 103.484 485.072 103.484Z" fill="#0C0C0C"/>
<path d="M495.603 106.082C495.603 106.082 495.022 94.4477 491.511 93.6657C489.173 93.1448 483.422 96.3702 478.168 95.2687C475.87 94.7869 473.671 95.3169 473.428 96.403C473.331 96.8328 471.513 93.021 475.211 88.3829C478.154 84.6902 487.726 83.6514 491.984 84.9571C503.776 88.5737 498.611 101.914 498.611 101.914L498.01 105.91L495.603 106.082Z" fill="#0C0C0C"/>
<path d="M500.962 96.7009C504.432 96.7009 507.246 93.8874 507.246 90.4168C507.246 86.9463 504.432 84.1328 500.962 84.1328C497.491 84.1328 494.678 86.9463 494.678 90.4168C494.678 93.8874 497.491 96.7009 500.962 96.7009Z" fill="#0C0C0C"/>
<g opacity="0.52">
<path d="M480.622 109.626H480.607C479.85 109.604 478.583 109.484 478.598 108.917C478.611 108.448 480.039 103.419 480.202 102.846C480.216 102.797 480.249 102.756 480.294 102.731C480.339 102.706 480.391 102.7 480.441 102.714C480.49 102.728 480.531 102.761 480.556 102.805C480.581 102.85 480.587 102.903 480.573 102.952C479.939 105.179 478.993 108.609 478.983 108.927C479.054 109.062 479.834 109.216 480.618 109.238C480.669 109.238 480.718 109.258 480.755 109.293C480.791 109.329 480.812 109.378 480.813 109.429C480.813 109.48 480.793 109.529 480.758 109.566C480.722 109.602 480.673 109.623 480.622 109.624V109.626Z" fill="#0C0C0C"/>
</g>
<path d="M478.315 99.4728C477.533 99.2412 476.703 99.2245 475.912 99.4246C475.523 99.5202 475.15 99.6739 474.807 99.8804C474.467 100.083 474.153 100.327 473.874 100.608C473.826 100.652 473.797 100.713 473.793 100.777C473.79 100.842 473.812 100.906 473.855 100.954C473.899 101.003 473.959 101.032 474.024 101.035C474.089 101.039 474.153 101.017 474.201 100.973L474.216 100.961C474.476 100.726 474.765 100.525 475.075 100.363C475.38 100.201 475.708 100.086 476.048 100.023C476.718 99.8915 477.411 99.9399 478.056 100.163L478.081 100.172C478.126 100.19 478.175 100.198 478.224 100.197C478.273 100.195 478.321 100.184 478.365 100.164C478.41 100.144 478.45 100.115 478.483 100.079C478.517 100.044 478.542 100.001 478.559 99.9556C478.576 99.9097 478.584 99.861 478.582 99.8121C478.579 99.7633 478.567 99.7154 478.547 99.6712C478.526 99.627 478.496 99.5875 478.46 99.5548C478.423 99.5221 478.381 99.497 478.335 99.481L478.315 99.4728Z" fill="#0C0C0C"/>
<path d="M483.929 100.164C484.55 99.8786 485.235 99.763 485.915 99.8287C486.259 99.8589 486.597 99.9413 486.917 100.073C487.241 100.205 487.547 100.376 487.829 100.584L487.844 100.595C487.897 100.629 487.96 100.642 488.022 100.631C488.083 100.619 488.138 100.585 488.175 100.535C488.212 100.484 488.228 100.421 488.221 100.359C488.213 100.297 488.182 100.24 488.133 100.201C487.828 99.9482 487.493 99.7352 487.134 99.5666C486.772 99.3946 486.387 99.2778 485.99 99.2202C485.183 99.0986 484.359 99.1963 483.603 99.503C483.514 99.5414 483.444 99.6132 483.408 99.7028C483.371 99.7925 483.372 99.8928 483.409 99.9821C483.446 100.071 483.517 100.143 483.606 100.18C483.695 100.218 483.796 100.219 483.885 100.183L483.903 100.175L483.929 100.164Z" fill="#0C0C0C"/>
<path d="M522.52 157.056C521.981 161.124 521.455 166.712 520.986 172.489C519.151 174.442 517.188 176.272 515.112 177.966C513.792 179.038 512.43 180.057 511.025 181.023C503.43 186.208 494.755 189.598 485.657 190.938C476.559 192.277 467.275 191.531 458.507 188.755C458.388 183.388 458.225 176.149 458.063 169.517C457.878 161.867 457.69 155.018 457.59 152.767C457.174 143.835 454.806 137.875 456.596 133.002C457.132 131.559 457.992 130.26 459.111 129.204C463.281 125.122 473.64 125.215 477.795 125.376C477.868 125.379 476.584 134.968 490.254 134.853C500.302 134.77 501.055 126.279 501.055 126.279C501.055 126.279 506.007 126.794 509.295 127.365C514.673 128.307 518.17 130.279 520.891 133.225C523.43 135.972 524.927 138.888 522.52 157.056Z" fill="#4285F4"/>
<path d="M442.153 126.322L442.566 116.09C442.576 115.865 442.538 115.641 442.456 115.431C442.374 115.221 442.249 115.031 442.089 114.872C441.929 114.714 441.738 114.59 441.528 114.509C441.318 114.429 441.093 114.393 440.868 114.404C440.454 114.437 440.066 114.623 439.782 114.926C439.497 115.229 439.334 115.626 439.326 116.042L439.237 118.236L436.348 111.21C436.04 110.423 435.16 109.654 434.3 110.057C433.958 110.191 433.673 110.436 433.489 110.753C433.305 111.069 433.234 111.439 433.288 111.801C433.279 111.802 433.271 111.804 433.264 111.807C433.258 111.81 433.253 111.813 433.248 111.817L432.774 110.604C432.686 110.379 432.549 110.177 432.373 110.012C432.197 109.847 431.987 109.723 431.757 109.65C431.527 109.576 431.283 109.555 431.044 109.588C430.805 109.621 430.576 109.706 430.374 109.838C430.061 110.053 429.83 110.369 429.722 110.733C429.613 111.097 429.633 111.488 429.777 111.839L429.979 112.356C429.967 112.368 429.957 112.383 429.95 112.399C429.733 112.082 429.41 111.853 429.039 111.752C428.669 111.651 428.274 111.686 427.926 111.849C427.551 112.039 427.261 112.363 427.114 112.758C426.968 113.152 426.975 113.588 427.135 113.977L427.636 115.259C427.616 115.246 427.594 115.238 427.57 115.235C427.546 115.233 427.523 115.236 427.5 115.244C427.474 115.256 427.452 115.274 427.437 115.298C427.165 115.069 426.825 114.936 426.47 114.919C426.115 114.902 425.764 115.002 425.472 115.204C425.169 115.422 424.949 115.737 424.846 116.096C424.744 116.455 424.766 116.838 424.909 117.183L429.138 128.004C429.73 129.518 430.76 130.821 432.097 131.746C433.433 132.67 435.016 133.174 436.641 133.194V133.194C438.043 133.21 439.395 132.68 440.412 131.715C441.429 130.75 442.029 129.427 442.086 128.027L442.153 126.322Z" fill="#E98862"/>
<g opacity="0.2">
<path d="M436.111 118.771C436.075 118.785 436.034 118.784 435.998 118.769C435.962 118.753 435.933 118.724 435.919 118.688L433.18 112.002C433.172 111.983 433.167 111.963 433.166 111.943C433.165 111.923 433.169 111.902 433.176 111.884C433.184 111.865 433.195 111.847 433.209 111.833C433.223 111.818 433.24 111.807 433.259 111.799C433.278 111.792 433.298 111.788 433.318 111.788C433.339 111.788 433.359 111.793 433.377 111.801C433.396 111.81 433.413 111.822 433.426 111.837C433.44 111.852 433.451 111.869 433.457 111.888L436.196 118.575C436.203 118.593 436.207 118.613 436.207 118.632C436.207 118.652 436.203 118.671 436.195 118.689C436.188 118.708 436.176 118.724 436.162 118.738C436.148 118.752 436.132 118.763 436.114 118.77L436.111 118.771Z" fill="#0C0C0C"/>
</g>
<g opacity="0.2">
<path d="M433.196 120.06C433.16 120.075 433.119 120.074 433.083 120.058C433.047 120.043 433.018 120.014 433.004 119.977L429.948 112.515C429.934 112.479 429.934 112.438 429.949 112.402C429.965 112.366 429.994 112.337 430.03 112.322C430.066 112.309 430.106 112.31 430.142 112.325C430.178 112.341 430.206 112.368 430.223 112.404L433.278 119.866C433.293 119.903 433.293 119.944 433.278 119.98C433.262 120.017 433.233 120.046 433.196 120.061V120.06Z" fill="#0C0C0C"/>
</g>
<g opacity="0.2">
<path d="M430.048 121.474C430.011 121.489 429.97 121.488 429.934 121.472C429.898 121.457 429.87 121.427 429.855 121.391L427.417 115.439C427.402 115.402 427.403 115.361 427.418 115.325C427.433 115.288 427.462 115.259 427.499 115.244C427.536 115.229 427.577 115.229 427.613 115.245C427.65 115.26 427.679 115.289 427.694 115.326L430.133 121.276C430.148 121.313 430.148 121.354 430.132 121.391C430.117 121.427 430.088 121.456 430.051 121.471L430.048 121.474Z" fill="#0C0C0C"/>
</g>
<path d="M476.023 142.363L451.121 180.647C450.215 182.039 449.002 183.204 447.576 184.054C445.453 182.883 443.405 181.583 441.443 180.161C437.261 177.143 433.482 173.603 430.197 169.627L424.967 129.074L445.899 125.72L448.286 145.24L457.849 130.538L476.023 142.363Z" fill="#4285F4"/>
<path d="M478.944 111.715C481.228 111.866 483.497 111.252 485.394 109.97C485.459 109.926 485.536 109.901 485.616 109.899C485.695 109.897 485.773 109.918 485.841 109.959C485.909 109.999 485.964 110.059 485.999 110.13C486.035 110.2 486.049 110.28 486.041 110.359C485.888 111.708 485.222 114.189 482.391 114.505C480.564 114.709 479.239 113.306 478.572 112.372C478.526 112.308 478.499 112.231 478.495 112.152C478.491 112.073 478.509 111.994 478.548 111.925C478.587 111.856 478.645 111.799 478.715 111.762C478.785 111.725 478.865 111.708 478.944 111.715V111.715Z" fill="white"/>
<path d="M529.272 161.358C525.592 167.703 520.795 173.329 515.112 177.966C513.792 179.038 512.429 180.057 511.025 181.023L501.299 144.023L523.202 138.262L529.272 161.358Z" fill="#4285F4"/>
<path d="M511.238 180.879C511.169 180.924 511.093 180.975 511.025 181.023C510.957 181.071 510.886 181.12 510.817 181.164L503.404 152.977L503.872 152.855L511.238 180.879Z" fill="#0C0C0C"/>
<path d="M458.123 171.26C458.063 171.258 458.006 171.233 457.963 171.19C457.92 171.148 457.895 171.091 457.892 171.03L457.414 160.526C457.411 160.463 457.434 160.4 457.477 160.353C457.52 160.306 457.581 160.278 457.644 160.275C457.708 160.272 457.771 160.294 457.818 160.338C457.865 160.381 457.893 160.441 457.896 160.505L458.374 171.009C458.377 171.072 458.354 171.135 458.311 171.182C458.268 171.229 458.208 171.257 458.144 171.26H458.123Z" fill="#0C0C0C"/>
<path d="M277.98 268.459C312.073 268.459 339.711 240.821 339.711 206.729C339.711 172.637 312.073 145 277.98 145C243.888 145 216.25 172.637 216.25 206.729C216.25 240.821 243.888 268.459 277.98 268.459Z" fill="white"/>
<path opacity="0.09" d="M339.711 206.728C339.711 218.936 336.091 230.871 329.308 241.022C322.525 251.173 312.884 259.085 301.604 263.757C290.325 268.429 277.913 269.652 265.939 267.27C253.964 264.888 242.965 259.009 234.332 250.376C225.699 241.743 219.82 230.744 217.438 218.77C215.056 206.796 216.279 194.384 220.951 183.105C225.623 171.826 233.535 162.185 243.686 155.402C253.838 148.619 265.773 144.999 277.981 144.999C286.096 144.969 294.137 146.545 301.64 149.637C309.143 152.728 315.96 157.274 321.698 163.012C327.436 168.75 331.982 175.567 335.073 183.07C338.165 190.572 339.741 198.613 339.711 206.728V206.728Z" fill="#4285F4"/>
<path d="M250.656 170.319C250.656 170.319 250.035 179.638 247.938 183.019C241.903 192.752 240.154 203.701 246.198 209.423C252.243 215.145 290.795 215.223 293.715 202.066C296.173 190.988 290.897 189.797 289.614 180.659C289.033 176.525 287.434 167.855 287.434 167.855" fill="#0A0A0A"/>
<path d="M283.738 200.135C283.671 200.126 282.933 212.38 268.698 211.313C258.843 210.575 255.329 200.119 255.104 200.119C256.166 199.894 257.955 199.565 258.428 199.314C259.98 198.48 261.9 197.612 262.4 194.599C262.689 192.864 262.199 183.976 262.352 182.219L277.479 185.595C277.268 189.305 275.788 197.911 280.973 199.433C281.833 199.683 282.762 199.915 283.738 200.135Z" fill="#E98862"/>
<path opacity="0.5" d="M277.686 195.915C277.45 195.152 277.297 194.364 277.232 193.568C277.065 191.749 277.098 189.918 277.33 188.107C274.256 187.692 271.359 186.424 268.97 184.445C268.689 185.482 267.144 190.015 267.573 191.001C268.383 192.864 272.179 195.915 277.686 195.915Z" fill="#0C0C0C"/>
<path d="M275.731 192.098C269.767 192.676 262.05 190.289 260.452 182.347L259.01 175.181C257.411 167.239 260.287 159.961 267.764 158.456C275.243 156.951 282.128 162.263 283.726 170.207L284.365 173.379C284.979 176.426 286.372 191.068 275.731 192.098Z" fill="#E98862"/>
<path opacity="0.1" d="M271.94 181.693C272.921 181.576 273.647 180.897 273.561 180.177C273.475 179.457 272.61 178.968 271.628 179.085C270.647 179.202 269.921 179.881 270.007 180.601C270.093 181.321 270.958 181.81 271.94 181.693Z" fill="#0C0C0C"/>
<path opacity="0.1" d="M282.311 178.813C282.4 179.531 283.264 180.017 284.246 179.903C284.416 179.883 284.583 179.845 284.745 179.791C284.79 178.934 284.793 178.109 284.768 177.345C284.495 177.277 284.212 177.261 283.934 177.297C282.952 177.412 282.227 178.091 282.311 178.813Z" fill="#0C0C0C"/>
<path opacity="0.5" d="M277.973 181.034H277.987C278.29 180.97 278.589 180.89 278.883 180.793C279.322 180.649 279.895 180.405 279.817 180.008C279.726 179.556 277.504 174.923 277.25 174.396C277.227 174.352 277.187 174.32 277.14 174.305C277.093 174.29 277.042 174.293 276.998 174.315C276.953 174.336 276.919 174.374 276.901 174.42C276.884 174.466 276.884 174.517 276.903 174.562C277.851 176.538 279.378 179.78 279.439 180.084C279.391 180.226 278.663 180.504 277.911 180.656C277.863 180.666 277.821 180.695 277.794 180.736C277.767 180.776 277.756 180.826 277.764 180.874C277.772 180.923 277.798 180.966 277.836 180.996C277.875 181.026 277.924 181.04 277.973 181.035V181.034Z" fill="#0C0C0C"/>
<path d="M253.044 177.753L259.749 176.444C264.813 174.324 266.25 165.5 266.25 165.5C266.25 165.5 272.499 171.452 287.436 167.853C287.436 167.853 284.192 147.002 262.136 153.331C255.024 155.371 249.987 162.621 250.736 172.221C251.261 178.951 253.044 177.753 253.044 177.753Z" fill="#0A0A0A"/>
<path d="M261.403 184.673C259.131 185.131 256.799 183.07 256.344 180.798C255.888 178.525 257.476 176.901 259.749 176.444L261.226 177.731L263.359 184.28L261.403 184.673Z" fill="#E98862"/>
<path d="M278.864 170.701C279.432 170.298 280.097 170.054 280.791 169.993C281.139 169.959 281.491 169.979 281.833 170.05C282.179 170.12 282.514 170.234 282.831 170.387L282.842 170.392C282.877 170.406 282.916 170.406 282.951 170.392C282.986 170.378 283.014 170.352 283.03 170.318C283.046 170.283 283.049 170.244 283.037 170.209C283.025 170.173 283 170.143 282.967 170.125C282.631 169.948 282.273 169.813 281.903 169.725C281.531 169.634 281.147 169.6 280.765 169.624C279.991 169.667 279.242 169.916 278.597 170.347C278.572 170.363 278.55 170.383 278.533 170.408C278.516 170.432 278.505 170.46 278.499 170.489C278.493 170.518 278.493 170.548 278.498 170.577C278.504 170.606 278.516 170.633 278.533 170.658C278.549 170.682 278.571 170.703 278.596 170.719C278.621 170.735 278.648 170.746 278.678 170.751C278.707 170.756 278.737 170.755 278.766 170.749C278.795 170.742 278.822 170.729 278.846 170.712L278.851 170.709L278.864 170.701Z" fill="#0C0C0C"/>
<path d="M272.74 171.547C271.978 171.396 271.19 171.451 270.458 171.708C270.096 171.833 269.755 172.012 269.446 172.238C269.138 172.461 268.86 172.722 268.617 173.015C268.592 173.044 268.58 173.082 268.582 173.12C268.585 173.158 268.602 173.194 268.63 173.219C268.658 173.245 268.695 173.259 268.734 173.258C268.772 173.257 268.808 173.241 268.835 173.214L268.842 173.205C269.076 172.941 269.343 172.708 269.635 172.511C269.924 172.314 270.241 172.161 270.576 172.059C271.241 171.85 271.949 171.821 272.628 171.975L272.645 171.979C272.673 171.987 272.703 171.988 272.732 171.984C272.761 171.98 272.789 171.97 272.814 171.955C272.84 171.94 272.862 171.92 272.879 171.897C272.897 171.873 272.909 171.846 272.916 171.817C272.923 171.789 272.924 171.759 272.92 171.73C272.915 171.701 272.905 171.673 272.889 171.648C272.873 171.623 272.853 171.601 272.829 171.585C272.805 171.568 272.777 171.556 272.749 171.549L272.74 171.547Z" fill="#0C0C0C"/>
<path d="M259.752 176.334C264.258 174.657 265.754 171.544 266.215 169.228C266.513 167.684 266.485 166.094 266.133 164.561L265.993 164.599C266.34 166.113 266.367 167.682 266.072 169.206C265.617 171.483 264.144 174.546 259.701 176.198L259.752 176.334Z" fill="#0C0C0C"/>
<path d="M316.729 197.695L319.427 188.54C319.486 188.339 319.587 188.152 319.722 187.992C319.858 187.832 320.025 187.702 320.213 187.61C320.402 187.518 320.607 187.466 320.817 187.458C321.026 187.449 321.235 187.485 321.43 187.562C321.786 187.715 322.072 187.995 322.233 188.347C322.394 188.699 322.418 189.099 322.302 189.468L321.724 191.431L326.375 186.093C326.882 185.49 327.889 185.075 328.527 185.688C328.788 185.908 328.967 186.21 329.035 186.544C329.102 186.879 329.054 187.227 328.899 187.53C328.905 187.534 328.912 187.538 328.918 187.542C328.922 187.547 328.925 187.551 328.928 187.556L329.71 186.627C329.855 186.455 330.036 186.317 330.241 186.224C330.446 186.131 330.669 186.085 330.893 186.089C331.118 186.093 331.339 186.148 331.54 186.248C331.742 186.348 331.918 186.492 332.057 186.669C332.269 186.953 332.378 187.3 332.365 187.654C332.352 188.008 332.218 188.347 331.985 188.613L331.652 189.009C331.66 189.024 331.664 189.041 331.665 189.057C331.951 188.842 332.305 188.736 332.663 188.758C333.02 188.78 333.359 188.929 333.617 189.177C333.891 189.457 334.05 189.83 334.062 190.222C334.073 190.614 333.937 190.996 333.679 191.292L332.853 192.274C332.874 192.268 332.896 192.268 332.918 192.272C332.94 192.277 332.96 192.287 332.977 192.301C332.997 192.319 333.011 192.342 333.017 192.368C333.326 192.248 333.666 192.232 333.984 192.324C334.303 192.416 334.582 192.61 334.779 192.876C334.981 193.16 335.081 193.503 335.064 193.85C335.047 194.198 334.912 194.529 334.683 194.791L327.714 203.078C326.739 204.237 325.44 205.079 323.983 205.495C322.527 205.911 320.98 205.882 319.539 205.413V205.413C318.298 205.009 317.263 204.136 316.654 202.98C316.046 201.825 315.912 200.478 316.281 199.225L316.729 197.695Z" fill="#E98862"/>
<g opacity="0.2">
<path d="M324.32 192.838C324.348 192.861 324.383 192.872 324.419 192.869C324.455 192.866 324.488 192.849 324.512 192.823L328.929 187.741C328.953 187.713 328.965 187.676 328.963 187.639C328.96 187.603 328.943 187.568 328.915 187.544C328.887 187.52 328.85 187.508 328.814 187.51C328.777 187.513 328.742 187.53 328.718 187.558L324.302 192.639C324.29 192.653 324.281 192.669 324.275 192.687C324.269 192.704 324.267 192.722 324.268 192.741C324.269 192.759 324.274 192.777 324.282 192.793C324.291 192.809 324.302 192.824 324.316 192.836L324.32 192.838Z" fill="#0C0C0C"/>
</g>
<g opacity="0.2">
<path d="M326.508 194.848C326.535 194.871 326.571 194.882 326.607 194.879C326.643 194.876 326.677 194.859 326.7 194.832L331.629 189.161C331.641 189.147 331.65 189.131 331.656 189.114C331.662 189.096 331.664 189.078 331.663 189.06C331.661 189.041 331.657 189.024 331.648 189.007C331.64 188.991 331.629 188.976 331.615 188.964C331.587 188.941 331.55 188.93 331.514 188.932C331.477 188.935 331.443 188.951 331.418 188.978L326.493 194.649C326.481 194.663 326.472 194.679 326.466 194.697C326.46 194.714 326.458 194.732 326.459 194.75C326.461 194.769 326.466 194.787 326.474 194.803C326.482 194.819 326.493 194.834 326.507 194.846L326.508 194.848Z" fill="#0C0C0C"/>
</g>
<g opacity="0.2">
<path d="M328.863 197.038C328.89 197.061 328.926 197.072 328.962 197.069C328.998 197.066 329.031 197.05 329.055 197.023L332.987 192.499C333.009 192.471 333.019 192.435 333.016 192.4C333.012 192.364 332.995 192.331 332.968 192.308C332.941 192.285 332.906 192.272 332.871 192.274C332.835 192.275 332.801 192.29 332.776 192.316L328.845 196.84C328.833 196.854 328.824 196.87 328.818 196.887C328.812 196.905 328.81 196.923 328.811 196.941C328.812 196.959 328.817 196.977 328.825 196.994C328.833 197.01 328.845 197.025 328.859 197.037L328.863 197.038Z" fill="#0C0C0C"/>
</g>
<path d="M333.15 201.691L322.718 249.016C322.694 249.122 322.67 249.233 322.641 249.339C320.298 251.79 317.76 254.048 315.052 256.089C314.507 256.494 313.963 256.894 313.404 257.279C313.059 257.318 312.711 257.337 312.363 257.337C310.504 257.336 308.678 256.847 307.067 255.917C305.457 254.988 304.12 253.651 303.189 252.042L283.309 217.642L301.667 207.037L307.887 217.802L312.445 197.126L333.15 201.691Z" fill="#34A853"/>
<path d="M301.045 223.267C300.982 224.018 300.857 225.358 300.683 227.122C299.816 236.137 297.788 256.229 296.848 265.514C284.978 269.308 272.24 269.438 260.296 265.885H260.291C251.47 263.244 243.353 258.661 236.537 252.471C236.575 244.169 236.455 234.831 235.896 228.827C234.224 210.888 235.804 208.08 238.401 205.483C238.613 205.271 238.835 205.063 239.057 204.861C241.74 202.423 245.108 200.833 250.018 200.168C253.266 199.73 258.152 199.412 258.152 199.412C258.152 199.412 258.566 207.785 268.429 208.248C281.858 208.88 280.962 199.412 281.029 199.412C284.407 199.412 291.924 199.624 296.665 202.038C296.67 202.038 296.67 202.038 296.675 202.042C297.629 202.507 298.498 203.131 299.243 203.888C304.673 209.641 301.994 212.101 301.045 223.267Z" fill="#34A853"/>
<path d="M279.972 182.6C278.034 183.585 275.823 183.897 273.689 183.486C273.615 183.472 273.538 183.479 273.468 183.507C273.398 183.534 273.338 183.582 273.294 183.643C273.25 183.704 273.224 183.776 273.219 183.851C273.215 183.926 273.232 184.001 273.268 184.067C273.906 185.188 275.414 187.105 278.004 186.324C279.676 185.819 280.308 184.099 280.542 183.035C280.558 182.961 280.553 182.885 280.527 182.814C280.501 182.743 280.456 182.681 280.396 182.635C280.336 182.59 280.264 182.562 280.189 182.556C280.114 182.55 280.038 182.565 279.972 182.6Z" fill="white"/>
<path d="M280.092 173.982C280.61 173.982 281.029 173.563 281.029 173.046C281.029 172.529 280.61 172.109 280.092 172.109C279.575 172.109 279.156 172.529 279.156 173.046C279.156 173.563 279.575 173.982 280.092 173.982Z" fill="#0C0C0C"/>
<path d="M271.096 175.557C271.613 175.557 272.033 175.138 272.033 174.621C272.033 174.103 271.613 173.684 271.096 173.684C270.579 173.684 270.16 174.103 270.16 174.621C270.16 175.138 270.579 175.557 271.096 175.557Z" fill="#0C0C0C"/>
<path d="M298.975 243.478C298.969 243.478 298.963 243.478 298.957 243.478C298.919 243.472 298.884 243.452 298.861 243.422C298.838 243.391 298.828 243.353 298.833 243.315L300.488 226.639C300.491 226.62 300.497 226.602 300.506 226.585C300.516 226.569 300.529 226.554 300.544 226.543C300.559 226.531 300.577 226.523 300.595 226.518C300.614 226.513 300.633 226.513 300.652 226.516C300.69 226.521 300.724 226.541 300.747 226.572C300.77 226.602 300.78 226.641 300.775 226.679L299.12 243.354C299.115 243.389 299.097 243.42 299.071 243.443C299.044 243.466 299.01 243.478 298.975 243.478V243.478Z" fill="#0C0C0C"/>
<path d="M288.956 242.674L298.002 238.634C298.201 238.546 298.416 238.5 298.633 238.499C298.851 238.498 299.066 238.542 299.265 238.629C299.464 238.716 299.644 238.843 299.791 239.003C299.939 239.162 300.051 239.351 300.122 239.557C300.241 239.941 300.213 240.355 300.044 240.719C299.875 241.084 299.577 241.373 299.207 241.53L297.267 242.397L304.618 242.473C305.437 242.467 306.442 242.983 306.388 243.9C306.39 244.254 306.273 244.599 306.054 244.878C305.835 245.157 305.528 245.353 305.183 245.435C305.185 245.443 305.187 245.45 305.187 245.458C305.186 245.464 305.185 245.47 305.183 245.476L306.444 245.467C306.677 245.466 306.908 245.516 307.119 245.615C307.33 245.714 307.517 245.859 307.665 246.039C307.813 246.219 307.92 246.429 307.976 246.656C308.033 246.882 308.038 247.118 307.992 247.346C307.911 247.705 307.71 248.025 307.422 248.253C307.133 248.481 306.775 248.603 306.408 248.599L305.871 248.603C305.864 248.619 305.855 248.633 305.843 248.645C306.206 248.727 306.528 248.934 306.751 249.232C306.975 249.529 307.086 249.896 307.064 250.267C307.028 250.673 306.84 251.05 306.538 251.323C306.236 251.596 305.843 251.746 305.435 251.742L304.103 251.751C304.122 251.764 304.138 251.781 304.148 251.802C304.159 251.822 304.165 251.845 304.165 251.868C304.164 251.895 304.155 251.922 304.14 251.944C304.443 252.107 304.685 252.365 304.827 252.678C304.97 252.991 305.005 253.343 304.929 253.679C304.841 254.029 304.638 254.34 304.352 254.56C304.066 254.781 303.714 254.899 303.352 254.894L292.112 254.974C290.539 254.985 288.999 254.527 287.689 253.657C286.379 252.787 285.358 251.546 284.758 250.092V250.092C284.24 248.839 284.232 247.433 284.734 246.173C285.236 244.914 286.21 243.9 287.448 243.347L288.956 242.674Z" fill="#E98862"/>
<g opacity="0.2">
<path d="M297.908 245.396C297.908 245.434 297.923 245.471 297.951 245.498C297.978 245.525 298.014 245.54 298.053 245.54L305.043 245.603C305.082 245.604 305.118 245.589 305.146 245.562C305.173 245.535 305.189 245.498 305.189 245.46C305.189 245.422 305.174 245.385 305.148 245.357C305.121 245.33 305.084 245.314 305.046 245.314L298.054 245.251C298.016 245.251 297.979 245.266 297.952 245.293C297.925 245.32 297.91 245.357 297.91 245.396H297.908Z" fill="#0C0C0C"/>
</g>
<g opacity="0.2">
<path d="M297.793 248.479C297.793 248.517 297.809 248.554 297.836 248.581C297.863 248.608 297.9 248.624 297.938 248.624L305.739 248.694C305.777 248.694 305.814 248.679 305.841 248.652C305.868 248.624 305.883 248.588 305.883 248.549C305.882 248.511 305.867 248.475 305.84 248.448C305.813 248.421 305.777 248.406 305.739 248.405L297.938 248.334C297.899 248.334 297.862 248.35 297.835 248.377C297.808 248.404 297.793 248.441 297.793 248.479H297.793Z" fill="#0C0C0C"/>
</g>
<g opacity="0.2">
<path d="M297.652 251.815C297.652 251.853 297.668 251.89 297.695 251.917C297.722 251.944 297.759 251.96 297.797 251.96L304.02 252.016C304.058 252.016 304.095 252.001 304.122 251.974C304.149 251.946 304.164 251.91 304.164 251.871C304.164 251.833 304.149 251.796 304.122 251.769C304.095 251.742 304.058 251.727 304.02 251.727L297.797 251.671C297.759 251.671 297.722 251.686 297.695 251.713C297.668 251.74 297.652 251.777 297.652 251.815V251.815Z" fill="#0C0C0C"/>
</g>
<path d="M291.548 258.783L260.296 265.885H260.291C251.47 263.245 243.353 258.661 236.537 252.471C235.804 251.806 235.088 251.125 234.388 250.427C233.167 249.209 231.999 247.942 230.885 246.626L235.26 211.433C235.737 208.596 237.322 206.065 239.665 204.397C242.009 202.728 244.919 202.059 247.756 202.536C250.593 203.014 253.124 204.598 254.793 206.942C256.461 209.285 257.131 212.196 256.653 215.033L253.888 248.076L288.734 240.188L291.548 258.783Z" fill="#34A853"/>
<path d="M246.837 249.375C246.818 249.376 246.799 249.374 246.781 249.368C246.763 249.362 246.746 249.352 246.732 249.34C246.718 249.327 246.706 249.312 246.697 249.295C246.689 249.278 246.683 249.26 246.682 249.241C246.681 249.222 246.683 249.203 246.689 249.185C246.695 249.167 246.704 249.15 246.717 249.135C246.729 249.121 246.744 249.109 246.761 249.101C246.778 249.092 246.797 249.087 246.816 249.085L253.802 247.592C253.821 247.589 253.84 247.59 253.859 247.594C253.877 247.599 253.895 247.607 253.91 247.618C253.925 247.63 253.938 247.644 253.948 247.66C253.958 247.676 253.964 247.694 253.967 247.713C253.97 247.732 253.969 247.751 253.964 247.77C253.96 247.788 253.952 247.805 253.94 247.821C253.929 247.836 253.915 247.849 253.898 247.859C253.882 247.868 253.864 247.875 253.845 247.877L246.856 249.371C246.85 249.373 246.844 249.374 246.837 249.375V249.375Z" fill="#0C0C0C"/>
<path d="M291.55 258.783C291.558 258.82 291.551 258.859 291.532 258.891C291.512 258.923 291.481 258.946 291.444 258.956L261.084 266.112C260.891 266.058 260.703 266.006 260.515 265.947L291.232 258.715L288.495 240.406L253.856 247.879C253.834 247.882 253.811 247.881 253.789 247.874C253.767 247.868 253.747 247.856 253.731 247.841C253.716 247.823 253.706 247.803 253.699 247.782C253.692 247.76 253.69 247.738 253.692 247.715L255.634 228.832C255.637 228.814 255.644 228.796 255.655 228.78C255.665 228.764 255.679 228.75 255.694 228.739C255.71 228.729 255.728 228.721 255.746 228.717C255.765 228.713 255.784 228.713 255.803 228.716C255.84 228.722 255.874 228.743 255.897 228.774C255.919 228.804 255.929 228.843 255.923 228.881L254.01 247.571L288.558 240.083C288.577 240.078 288.596 240.077 288.615 240.08C288.635 240.084 288.653 240.091 288.669 240.102C288.685 240.111 288.7 240.124 288.711 240.138C288.723 240.153 288.731 240.17 288.736 240.189L291.55 258.783Z" fill="#0C0C0C"/>
<path d="M56.6032 339.582C87.8643 339.582 113.206 314.241 113.206 282.98C113.206 251.719 87.8643 226.377 56.6032 226.377C25.3421 226.377 0 251.719 0 282.98C0 314.241 25.3421 339.582 56.6032 339.582Z" fill="white"/>
<path opacity="0.09" d="M56.6032 339.582C87.8643 339.582 113.206 314.241 113.206 282.98C113.206 251.719 87.8643 226.377 56.6032 226.377C25.3421 226.377 0 251.719 0 282.98C0 314.241 25.3421 339.582 56.6032 339.582Z" fill="#4285F4"/>
<path d="M41.0166 250.875C41.0166 250.875 41.63 267.923 53.0085 268.706L54.9359 246.226L41.0166 250.875Z" fill="#0A0A0A"/>
<path d="M43.2087 272.188C46.9315 272.188 49.9496 269.17 49.9496 265.448C49.9496 261.725 46.9315 258.707 43.2087 258.707C39.4858 258.707 36.4678 261.725 36.4678 265.448C36.4678 269.17 39.4858 272.188 43.2087 272.188Z" fill="#0A0A0A"/>
<path d="M69.5832 276.618C69.523 276.61 68.8571 287.664 56.0152 286.701C47.1248 286.036 43.9553 276.604 43.752 276.604C44.7679 276.435 45.7701 276.192 46.7504 275.877C48.1502 275.125 49.8824 274.342 50.3334 271.624C50.5935 270.057 50.1527 262.041 50.2881 260.455L63.9346 263.501C63.7419 266.849 62.4091 274.611 67.0868 275.985C67.8645 276.212 68.7029 276.421 69.5832 276.618Z" fill="#E98862"/>
<path opacity="0.5" d="M64.1252 272.812C63.9113 272.122 63.7737 271.411 63.7147 270.692C63.5649 269.052 63.5947 267.4 63.8039 265.766C61.0302 265.392 58.4172 264.247 56.2617 262.462C56.0082 263.397 54.6148 267.487 55.0007 268.376C55.7302 270.06 59.1575 272.812 64.1252 272.812Z" fill="#0C0C0C"/>
<path d="M61.9889 269.834C56.5842 269.903 49.8274 267.175 48.99 259.915L48.2344 253.362C47.3965 246.102 50.5309 239.775 57.3672 238.988C64.203 238.2 69.9913 243.495 70.8292 250.756L71.1636 253.656C71.485 256.444 71.6324 269.711 61.9889 269.834Z" fill="#E98862"/>
<path d="M69.203 253.461C69.6711 253.461 70.0506 253.082 70.0506 252.614C70.0506 252.146 69.6711 251.766 69.203 251.766C68.7349 251.766 68.3555 252.146 68.3555 252.614C68.3555 253.082 68.7349 253.461 69.203 253.461Z" fill="#0C0C0C"/>
<path d="M60.5409 254.452C61.009 254.452 61.3885 254.073 61.3885 253.605C61.3885 253.137 61.009 252.757 60.5409 252.757C60.0728 252.757 59.6934 253.137 59.6934 253.605C59.6934 254.073 60.0728 254.452 60.5409 254.452Z" fill="#0C0C0C"/>
<path opacity="0.5" d="M64.8391 260.057H64.8526C65.1295 260.023 65.4044 259.974 65.676 259.91C66.0817 259.811 66.6166 259.638 66.5747 259.274C66.5265 258.861 64.8791 254.528 64.6912 254.035C64.683 254.014 64.6708 253.995 64.6551 253.978C64.6395 253.962 64.6207 253.948 64.5999 253.939C64.5791 253.93 64.5567 253.925 64.5339 253.924C64.5111 253.923 64.4884 253.927 64.4671 253.935C64.4458 253.943 64.4263 253.956 64.4098 253.971C64.3932 253.987 64.3799 254.006 64.3706 254.027C64.3613 254.047 64.3562 254.07 64.3555 254.093C64.3549 254.115 64.3588 254.138 64.3669 254.159C65.0699 256.004 66.1979 259.036 66.2297 259.315C65.796 259.559 65.31 259.696 64.8126 259.713C64.7667 259.716 64.7241 259.738 64.6942 259.773C64.6642 259.808 64.6493 259.853 64.6529 259.899C64.6564 259.945 64.678 259.988 64.7129 260.018C64.7478 260.047 64.7932 260.062 64.8391 260.059V260.057Z" fill="#0C0C0C"/>
<path opacity="0.5" d="M63.6176 263.079C64.7279 263.016 65.8078 262.692 66.7703 262.135C66.8082 262.112 66.8356 262.074 66.8469 262.031C66.8581 261.988 66.8523 261.942 66.8307 261.903C66.8092 261.864 66.7734 261.835 66.7308 261.822C66.6883 261.808 66.6422 261.812 66.6021 261.831C64.5235 262.981 62.5354 263.048 60.8538 262.024C60.8199 262.002 60.7848 261.982 60.7488 261.964C60.7071 261.948 60.6608 261.948 60.6194 261.965C60.5781 261.982 60.5449 262.015 60.5267 262.056C60.5086 262.096 60.5068 262.143 60.5219 262.185C60.5369 262.227 60.5676 262.262 60.6076 262.282C60.6206 262.288 60.6428 262.302 60.6731 262.321C61.5572 262.861 62.5825 263.125 63.6176 263.079V263.079Z" fill="#0C0C0C"/>
<path d="M42.6752 255.225L48.8007 254.554C53.5126 253.032 55.4703 245.206 55.4703 245.206C55.4703 245.206 59.6926 250.008 72.205 247.815C72.205 247.815 71.7202 231.685 52.6906 233.956C46.0649 234.747 41.0687 241.392 41.0172 250.08C40.9815 256.168 42.6752 255.225 42.6752 255.225Z" fill="#0A0A0A"/>
<path d="M49.6696 262.078C47.5919 262.319 45.6516 260.29 45.4121 258.212C45.1726 256.134 46.7241 254.795 48.8018 254.555L50.0329 255.824L51.4558 261.872L49.6696 262.078Z" fill="#E98862"/>
<path d="M66.2058 250.499C66.8185 250.16 67.5111 249.992 68.2112 250.012C68.5568 250.019 68.8994 250.079 69.2274 250.188C69.5532 250.296 69.8641 250.443 70.153 250.628C70.1819 250.647 70.2026 250.676 70.2108 250.709C70.2189 250.742 70.214 250.777 70.1969 250.807C70.1798 250.837 70.1519 250.859 70.1191 250.868C70.0862 250.878 70.0509 250.874 70.0205 250.859L70.0118 250.854C69.7382 250.691 69.4451 250.564 69.1397 250.475C68.8371 250.384 68.5226 250.34 68.2068 250.344C67.5785 250.347 66.9623 250.517 66.4207 250.835L66.4077 250.843C66.3853 250.858 66.3602 250.868 66.3338 250.873C66.3075 250.878 66.2804 250.877 66.2543 250.871C66.2282 250.865 66.2035 250.854 66.1817 250.839C66.16 250.823 66.1416 250.803 66.1277 250.78C66.1138 250.757 66.1046 250.732 66.1007 250.705C66.0969 250.679 66.0984 250.652 66.1052 250.626C66.1119 250.6 66.1239 250.576 66.1403 250.555C66.1566 250.533 66.1771 250.516 66.2005 250.503L66.2058 250.499Z" fill="#0C0C0C"/>
<path d="M60.7165 251.509C60.1175 251.319 59.4788 251.292 58.8658 251.43C58.557 251.497 58.2602 251.611 57.9855 251.767C57.7078 251.922 57.4508 252.112 57.2203 252.331L57.2131 252.338C57.1869 252.357 57.1545 252.366 57.122 252.363C57.0895 252.36 57.0592 252.346 57.0369 252.322C57.0146 252.298 57.0019 252.267 57.001 252.234C57.0002 252.202 57.0113 252.17 57.0324 252.145C57.2726 251.9 57.5426 251.687 57.8361 251.51C58.1314 251.33 58.452 251.195 58.7872 251.11C59.4652 250.935 60.1779 250.944 60.8509 251.138C60.877 251.144 60.9014 251.156 60.9227 251.172C60.944 251.189 60.9618 251.209 60.9751 251.233C60.9883 251.256 60.9967 251.282 60.9997 251.308C61.0028 251.335 61.0004 251.362 60.9927 251.388C60.9851 251.414 60.9723 251.437 60.9552 251.458C60.938 251.479 60.9169 251.496 60.8931 251.508C60.8692 251.52 60.8431 251.528 60.8163 251.53C60.7895 251.532 60.7626 251.528 60.7372 251.52H60.7319L60.7165 251.509Z" fill="#0C0C0C"/>
<path opacity="0.52" d="M63.7352 264.721C63.9361 264.712 64.136 264.687 64.3326 264.645C64.3764 264.634 64.4142 264.607 64.4381 264.568C64.4621 264.53 64.4703 264.484 64.4609 264.44C64.4516 264.396 64.4256 264.357 64.3883 264.332C64.3509 264.307 64.3053 264.297 64.2609 264.305C63.9538 264.395 63.6311 264.418 63.3143 264.373C62.9976 264.328 62.6941 264.216 62.4241 264.044C62.3884 264.015 62.3427 264.001 62.2969 264.006C62.251 264.01 62.2089 264.033 62.1798 264.069C62.1507 264.104 62.1369 264.15 62.1415 264.196C62.1461 264.242 62.1687 264.284 62.2044 264.313C62.6522 264.622 63.1931 264.766 63.7352 264.721V264.721Z" fill="#0C0C0C"/>
<path opacity="0.1" d="M59.3664 260.192C60.2576 260.16 60.9615 259.605 60.9386 258.951C60.9158 258.298 60.1748 257.793 59.2836 257.824C58.3924 257.856 57.6885 258.411 57.7114 259.064C57.7342 259.718 58.4753 260.223 59.3664 260.192Z" fill="#0C0C0C"/>
<path opacity="0.1" d="M68.9047 258.387C68.9298 259.04 69.6704 259.544 70.5618 259.514C70.7158 259.509 70.8689 259.487 71.0185 259.45C71.1241 258.683 71.1886 257.942 71.2238 257.254C70.9838 257.172 70.7307 257.136 70.4774 257.147C69.588 257.177 68.8845 257.73 68.9047 258.387Z" fill="#0C0C0C"/>
<path d="M88.7623 288.261C88.7238 292.121 87.3987 296.722 86.9265 302.282C86.8012 303.766 83.6158 308.06 83.1533 312.834C82.5702 318.915 83.8668 328.398 84.0403 332.498C75.0869 337.452 64.9588 339.889 54.7317 339.55C44.5046 339.21 34.5603 336.107 25.955 330.571C25.7237 320.038 25.449 307.033 25.0973 303.916C23.9553 293.624 24.2637 287.114 25.9116 284.069C28.6051 279.097 33.3993 277.579 38.4152 276.895C41.4797 276.48 46.0813 276.187 46.0813 276.187C46.0813 276.187 46.4715 284.074 55.771 284.513C68.4288 285.11 67.5856 276.187 67.6482 276.187C72.2401 276.187 80.9421 277.285 84.2764 279.559C87.8131 281.964 88.8057 284.816 88.7623 288.261Z" fill="#FBBC04"/>
<path d="M45.0301 294.265L27.8574 331.74C21.2639 327.847 15.5272 322.659 10.9932 316.49L25.3182 285.229L45.0301 294.265Z" fill="#FBBC04"/>
<path d="M102.633 315.923C99.2685 320.616 95.2082 324.769 90.5916 328.238C89.0722 329.386 87.4944 330.453 85.8648 331.438L68.2393 292.689L87.9753 283.708L102.633 315.923Z" fill="#FBBC04"/>
<path d="M174.404 117.864C206.951 117.864 233.337 91.4793 233.337 58.9321C233.337 26.3848 206.951 0 174.404 0C141.856 0 115.471 26.3848 115.471 58.9321C115.471 91.4793 141.856 117.864 174.404 117.864Z" fill="white"/>
<path opacity="0.09" d="M174.404 117.864C206.951 117.864 233.337 91.4793 233.337 58.9321C233.337 26.3848 206.951 0 174.404 0C141.856 0 115.471 26.3848 115.471 58.9321C115.471 91.4793 141.856 117.864 174.404 117.864Z" fill="#4285F4"/>
<path d="M185.8 23.642C185.8 23.642 189.532 19.5976 189.243 11.8941C189.02 5.92951 184.338 10.6673 184.338 10.6673C184.338 10.6673 184.136 6.37424 181.158 7.34271C178.181 8.31119 177.266 13.0254 177.266 13.0254" fill="#0C0C0C"/>
<path d="M165.458 10.6914C165.458 10.6914 150.595 15.0592 159.792 34.6051L161.149 34.4519L163.904 34.1416" fill="#0C0C0C"/>
<path d="M186.519 54.8801C186.451 54.8714 185.7 67.3402 171.214 66.2513C161.186 65.5001 157.611 54.8608 157.381 54.8608C158.462 54.631 159.798 54.2826 160.329 54.1627C161.487 53.8941 162.535 53.2794 163.334 52.4006C164.134 51.5217 164.647 50.4202 164.805 49.2427C165.098 47.4753 164.601 38.4333 164.754 36.6453L180.147 40.0807C179.932 43.8578 178.426 52.6131 183.703 54.1627C184.581 54.4195 185.527 54.6556 186.519 54.8801Z" fill="#E98862"/>
<path opacity="0.52" d="M180.362 50.5849C180.121 49.8078 179.966 49.0068 179.899 48.196C179.73 46.3457 179.764 44.4825 180 42.6395C176.871 42.2172 173.924 40.9258 171.493 38.9121C171.206 39.9678 169.635 44.5803 170.07 45.5835C170.893 47.48 174.759 50.5849 180.362 50.5849Z" fill="#0C0C0C"/>
<path d="M177.851 46.6152C171.78 47.1611 163.943 44.6802 162.372 36.5874L160.954 29.2852C159.382 21.1905 162.359 13.8065 169.979 12.3273C177.599 10.8476 184.568 16.3024 186.14 24.3952L186.766 27.6278C186.962 28.7414 187.083 29.8672 187.125 30.9972C187.261 33.9845 187.456 38.5248 186.021 41.8812C184.666 45.0507 181.731 46.2668 177.851 46.6152Z" fill="#E98862"/>
<path opacity="0.5" d="M178.77 38.6145C179.882 38.5935 180.973 38.3116 181.956 37.7915C181.977 37.7818 181.997 37.7679 182.012 37.7506C182.028 37.7334 182.041 37.713 182.048 37.6909C182.056 37.6688 182.059 37.6453 182.058 37.6219C182.056 37.5985 182.05 37.5756 182.04 37.5547C182.029 37.5338 182.014 37.5152 181.996 37.5C181.978 37.4849 181.958 37.4736 181.935 37.4667C181.913 37.4599 181.889 37.4576 181.866 37.4601C181.843 37.4626 181.82 37.4698 181.799 37.4812C179.679 38.5514 177.69 38.5412 176.048 37.4552C176.015 37.4322 175.981 37.411 175.946 37.3916C175.925 37.3815 175.903 37.3756 175.88 37.3741C175.857 37.3727 175.835 37.3757 175.813 37.3831C175.791 37.3904 175.771 37.402 175.754 37.417C175.737 37.4321 175.723 37.4504 175.713 37.4708C175.703 37.4913 175.697 37.5136 175.696 37.5363C175.694 37.5591 175.697 37.5819 175.705 37.6035C175.712 37.6251 175.724 37.645 175.739 37.6621C175.754 37.6793 175.772 37.6933 175.792 37.7033C175.805 37.7106 175.827 37.725 175.856 37.7448C176.719 38.3182 177.734 38.621 178.77 38.6145V38.6145Z" fill="#0C0C0C"/>
<path opacity="0.52" d="M178.823 40.2608C179.025 40.2602 179.225 40.2424 179.423 40.2078C179.446 40.2039 179.467 40.1957 179.487 40.1836C179.506 40.1714 179.523 40.1556 179.536 40.137C179.549 40.1185 179.558 40.0974 179.563 40.0752C179.568 40.053 179.569 40.03 179.565 40.0076C179.561 39.9851 179.553 39.9636 179.541 39.9443C179.529 39.925 179.513 39.9083 179.495 39.8951C179.476 39.882 179.455 39.8726 179.433 39.8675C179.41 39.8625 179.387 39.8618 179.365 39.8657C179.055 39.9434 178.731 39.9541 178.417 39.8971C178.102 39.8401 177.803 39.7167 177.539 39.5351C177.505 39.5058 177.46 39.4913 177.415 39.4946C177.369 39.4979 177.327 39.5189 177.297 39.5529C177.267 39.5869 177.252 39.6314 177.254 39.6767C177.257 39.722 177.277 39.7646 177.31 39.7953C177.745 40.1209 178.28 40.2854 178.823 40.2608V40.2608Z" fill="#0C0C0C"/>
<path d="M184.317 29.6668C184.845 29.6668 185.273 29.2388 185.273 28.7108C185.273 28.1829 184.845 27.7549 184.317 27.7549C183.789 27.7549 183.361 28.1829 183.361 28.7108C183.361 29.2388 183.789 29.6668 184.317 29.6668Z" fill="#0C0C0C"/>
<path d="M175.02 30.7535C175.548 30.7535 175.976 30.3255 175.976 29.7975C175.976 29.2695 175.548 28.8416 175.02 28.8416C174.492 28.8416 174.064 29.2695 174.064 29.7975C174.064 30.3255 174.492 30.7535 175.02 30.7535Z" fill="#0C0C0C"/>
<path d="M163.324 38.9607C161.008 39.4103 158.65 37.2974 158.2 34.9818C157.75 32.6661 159.38 31.025 161.695 30.5754L163.189 31.8952L165.314 38.5743L163.324 38.9607Z" fill="#E98862"/>
<path d="M164.958 34.8131C164.958 34.8131 163.664 23.1938 167.016 21.8552C169.248 20.9634 175.465 23.2338 180.492 21.2987C182.691 20.4517 184.955 20.6242 185.37 21.6606C185.534 22.0706 185.845 15.6917 181.437 11.6911C177.927 8.50616 168.445 9.14362 164.436 11.122C153.336 16.5999 161.308 31.1661 161.308 31.1661L162.547 35.0285L164.958 34.8131Z" fill="#0C0C0C"/>
<g opacity="0.52">
<path d="M180.194 35.7368H180.209C180.956 35.5923 182.192 35.2709 182.088 34.7124C181.999 34.2494 179.775 29.4966 179.523 28.9565C179.512 28.9335 179.497 28.9129 179.478 28.8957C179.459 28.8786 179.437 28.8654 179.414 28.8567C179.39 28.8481 179.364 28.8443 179.339 28.8454C179.314 28.8466 179.289 28.8527 179.266 28.8635C179.243 28.8743 179.222 28.8895 179.205 28.9083C179.188 28.9271 179.174 28.949 179.166 28.9729C179.157 28.9968 179.153 29.0222 179.155 29.0475C179.156 29.0729 179.162 29.0978 179.173 29.1208C180.158 31.2255 181.647 34.4691 181.708 34.7847C181.66 34.9293 180.912 35.2083 180.139 35.3562C180.088 35.3638 180.042 35.3914 180.011 35.4329C179.981 35.4744 179.967 35.5265 179.975 35.5776C179.983 35.6287 180.01 35.6747 180.052 35.7055C180.093 35.7362 180.145 35.7492 180.197 35.7416L180.194 35.7368Z" fill="#0C0C0C"/>
</g>
<path d="M180.722 24.0911C181.469 23.7329 182.299 23.5831 183.124 23.6575C183.529 23.6916 183.927 23.7861 184.303 23.9379C184.676 24.0859 185.028 24.2801 185.351 24.5161C185.411 24.5576 185.453 24.6208 185.467 24.6924C185.481 24.764 185.467 24.8383 185.428 24.8998C185.389 24.9613 185.327 25.0052 185.256 25.0221C185.185 25.0391 185.11 25.0278 185.047 24.9907L185.026 24.983C184.732 24.7957 184.417 24.646 184.086 24.5373C183.761 24.4288 183.421 24.3701 183.079 24.3634C182.403 24.3446 181.735 24.5046 181.141 24.8274L181.116 24.8414C181.068 24.8689 181.015 24.8867 180.959 24.8937C180.904 24.9007 180.848 24.8968 180.794 24.8822C180.741 24.8675 180.691 24.8424 180.647 24.8083C180.603 24.7743 180.566 24.7319 180.538 24.6836C180.511 24.6352 180.493 24.582 180.486 24.5268C180.479 24.4716 180.483 24.4156 180.497 24.3619C180.512 24.3082 180.537 24.258 180.571 24.214C180.605 24.17 180.648 24.1332 180.696 24.1056L180.722 24.0911Z" fill="#0C0C0C"/>
<path d="M175.242 25.5723C174.592 25.3902 173.904 25.383 173.25 25.5515C172.917 25.6343 172.599 25.767 172.307 25.9452C172.008 26.1246 171.733 26.3407 171.488 26.5884L171.472 26.6039C171.419 26.655 171.349 26.6835 171.275 26.6832C171.202 26.683 171.131 26.654 171.079 26.6026C171.026 26.5511 170.996 26.4812 170.994 26.4077C170.993 26.3342 171.02 26.263 171.07 26.2092C171.332 25.9065 171.632 25.6383 171.962 25.4109C172.295 25.1789 172.662 24.9981 173.049 24.8746C173.436 24.747 173.839 24.6731 174.246 24.6549C174.663 24.6319 175.081 24.6683 175.488 24.7628C175.597 24.7884 175.692 24.8563 175.751 24.9517C175.81 25.0472 175.829 25.1622 175.804 25.2716C175.778 25.381 175.71 25.4757 175.615 25.535C175.519 25.5943 175.404 25.6132 175.295 25.5877L175.27 25.5809L175.242 25.5723Z" fill="#0C0C0C"/>
<path d="M178.173 16.3933C179.826 15.7234 180.366 13.2081 179.38 10.7751C178.394 8.3422 176.255 6.91293 174.602 7.58278C172.949 8.25263 172.409 10.7679 173.395 13.2009C174.381 15.6338 176.52 17.0631 178.173 16.3933Z" fill="#0C0C0C"/>
<path d="M206.541 67.7646C206.599 71.759 205.038 76.2497 204.517 82.3303C204.411 83.5638 204.161 86.2813 203.828 89.8228C203.284 95.6866 202.513 103.796 201.838 111.105C192.191 116.168 181.331 118.462 170.46 117.733C159.59 117.003 149.134 113.278 140.25 106.971C140.038 106.812 139.826 106.658 139.614 106.509C139.05 98.2452 138.385 89.5722 137.778 84.0938C136.636 73.8646 135.08 68.7717 135.952 65.3314C136.022 65.0384 136.115 64.7516 136.231 64.4737C138.742 58.3834 146.735 55.6659 152.151 54.9335C155.457 54.4854 160.429 54.1626 160.429 54.1626C160.429 54.1626 160.848 62.6813 170.885 63.1535C184.55 63.7992 183.639 54.1626 183.707 54.1626C185.918 54.1626 197.969 55.7719 200.981 57.7378C201.486 58.0655 201.968 58.4261 202.426 58.8171C203.735 59.9083 204.783 61.2779 205.495 62.8258C206.207 64.3737 206.564 66.061 206.541 67.7646Z" fill="#383838"/>
<path d="M156.227 73.9418L140.249 106.971C140.037 106.812 139.825 106.658 139.613 106.509C133.42 101.967 128.167 96.2659 124.146 89.7217L135.951 65.3315L136.419 64.363L156.227 73.9418Z" fill="#383838"/>
<path d="M154.686 77.7435L140.153 106.899C140.057 106.827 139.966 106.759 139.869 106.697L154.382 77.5941C154.403 77.5536 154.439 77.5229 154.482 77.5085C154.525 77.4941 154.572 77.4971 154.613 77.517C154.653 77.5375 154.683 77.5728 154.696 77.6153C154.71 77.6578 154.706 77.7039 154.686 77.7435V77.7435Z" fill="white"/>
<path d="M228.367 82.6581C225.471 89.2224 221.403 95.2046 216.364 100.312L203.827 89.8229L187.902 76.4955L202.425 58.8172L202.468 58.7642L228.367 82.6581Z" fill="#383838"/>
<path d="M204.021 89.9515C204.062 89.9494 204.101 89.9326 204.13 89.9042C204.16 89.8758 204.178 89.8376 204.182 89.7968L205.009 80.0976C205.013 80.0528 204.999 80.0083 204.97 79.9739C204.941 79.9395 204.9 79.9179 204.855 79.914C204.81 79.9108 204.766 79.9251 204.732 79.9539C204.698 79.9827 204.676 80.0237 204.672 80.0682L203.844 89.7679C203.841 89.8126 203.855 89.857 203.884 89.8913C203.913 89.9256 203.954 89.9471 203.999 89.951L204.021 89.9515Z" fill="white"/>
<path d="M451.903 373.056C482.947 373.056 508.113 347.891 508.113 316.848C508.113 285.804 482.947 260.639 451.903 260.639C420.859 260.639 395.693 285.804 395.693 316.848C395.693 347.891 420.859 373.056 451.903 373.056Z" fill="white"/>
<path opacity="0.09" d="M395.694 316.846C395.694 327.963 398.99 338.83 405.166 348.074C411.343 357.317 420.121 364.521 430.392 368.776C440.663 373.03 451.964 374.143 462.868 371.974C473.771 369.806 483.787 364.453 491.648 356.592C499.509 348.731 504.862 338.716 507.031 327.812C509.2 316.909 508.087 305.608 503.832 295.337C499.578 285.066 492.374 276.288 483.13 270.112C473.887 263.935 463.019 260.639 451.902 260.639C444.513 260.612 437.192 262.047 430.36 264.862C423.528 267.677 417.321 271.816 412.096 277.041C406.872 282.266 402.732 288.473 399.917 295.304C397.102 302.136 395.667 309.457 395.694 316.846V316.846Z" fill="#4285F4"/>
<path d="M477.407 285.83C476.51 296.237 477.342 299.766 481.663 305.729C485.308 310.757 464.569 306.483 455.393 304.849L463.49 281.183C463.49 281.183 477.722 282.175 477.407 285.83Z" fill="#0A0A0A"/>
<path d="M445.749 281.5C443.042 291.589 443.346 294.71 438.047 300.008C433.656 304.399 450.77 305.292 459.953 306.888L460.418 281.881C460.418 281.881 446.7 277.957 445.749 281.5Z" fill="#0A0A0A"/>
<path d="M446.662 310.844C446.722 310.836 447.395 321.994 460.357 321.021C469.33 320.349 472.529 310.828 472.735 310.828C471.71 310.658 470.698 310.412 469.709 310.094C468.296 309.335 466.547 308.545 466.092 305.801C465.83 304.219 466.275 296.128 466.138 294.526L452.364 297.601C452.556 300.98 453.906 308.815 449.184 310.201C448.397 310.433 447.55 310.644 446.662 310.844Z" fill="#E98862"/>
<path opacity="0.5" d="M452.17 307.001C452.386 306.306 452.525 305.589 452.584 304.863C452.736 303.208 452.706 301.54 452.495 299.891C455.294 299.514 457.932 298.358 460.108 296.556C460.364 297.501 461.77 301.628 461.381 302.526C460.644 304.223 457.185 307.001 452.17 307.001Z" fill="#0C0C0C"/>
<path d="M453.951 303.525C459.382 304.051 466.408 301.878 467.864 294.647L469.177 288.121C470.633 280.89 468.014 274.262 461.205 272.892C454.396 271.522 448.126 276.361 446.671 283.592L446.09 286.483C445.531 289.256 444.262 302.589 453.951 303.525Z" fill="#E98862"/>
<path d="M475.75 290.181L469.625 289.51C457.639 287.306 454.703 277.634 454.703 277.634C454.703 277.634 449.675 284.347 445.406 282.805C445.406 282.805 446.782 266.62 465.734 269.464C473.18 270.582 477.408 276.755 477.408 285.034C477.408 291.121 475.75 290.181 475.75 290.181Z" fill="#0A0A0A"/>
<path opacity="0.1" d="M459.161 293.052C459.239 292.397 458.578 291.779 457.685 291.672C456.791 291.566 456.003 292.011 455.925 292.666C455.847 293.322 456.508 293.94 457.401 294.046C458.295 294.153 459.083 293.708 459.161 293.052Z" fill="#0C0C0C"/>
<path opacity="0.1" d="M447.962 291.428C447.882 292.082 447.095 292.527 446.2 292.422C446.046 292.403 445.894 292.368 445.746 292.319C445.705 291.538 445.703 290.787 445.725 290.092C445.973 290.03 446.231 290.015 446.485 290.048C447.376 290.153 448.037 290.771 447.962 291.428Z" fill="#0C0C0C"/>
<path opacity="0.5" d="M451.911 293.451H451.898C451.622 293.394 451.35 293.321 451.082 293.233C450.682 293.1 450.159 292.88 450.231 292.518C450.314 292.106 452.338 287.888 452.568 287.408C452.578 287.387 452.592 287.367 452.609 287.351C452.626 287.335 452.646 287.323 452.668 287.315C452.69 287.307 452.713 287.303 452.737 287.304C452.76 287.306 452.783 287.311 452.804 287.321C452.826 287.332 452.844 287.346 452.86 287.364C452.876 287.381 452.887 287.402 452.895 287.424C452.902 287.446 452.905 287.47 452.903 287.493C452.902 287.516 452.895 287.539 452.884 287.56C452.021 289.356 450.631 292.31 450.575 292.588C450.991 292.87 451.468 293.048 451.967 293.108C452.011 293.117 452.049 293.143 452.075 293.18C452.101 293.217 452.111 293.263 452.104 293.307C452.097 293.352 452.073 293.392 452.037 293.419C452.001 293.446 451.956 293.459 451.911 293.454V293.451Z" fill="#0C0C0C"/>
<path d="M466.998 296.765C469.067 297.181 471.19 295.305 471.606 293.236C472.023 291.167 470.575 289.688 468.506 289.271L467.161 290.443L465.219 296.407L466.998 296.765Z" fill="#E98862"/>
<path d="M451.099 284.042C450.843 283.861 450.564 283.715 450.27 283.608C449.972 283.496 449.66 283.426 449.343 283.4C449.026 283.369 448.706 283.387 448.394 283.452C448.079 283.516 447.774 283.62 447.485 283.76L447.476 283.764C447.445 283.775 447.41 283.774 447.38 283.762C447.349 283.749 447.324 283.725 447.31 283.695C447.296 283.665 447.293 283.631 447.303 283.599C447.312 283.567 447.333 283.54 447.362 283.523C447.668 283.361 447.993 283.239 448.33 283.158C448.669 283.076 449.019 283.045 449.367 283.067C450.073 283.106 450.755 283.334 451.343 283.726C451.385 283.757 451.414 283.803 451.423 283.855C451.433 283.906 451.421 283.959 451.392 284.003C451.362 284.046 451.317 284.076 451.265 284.087C451.214 284.097 451.161 284.087 451.116 284.059L451.112 284.056L451.099 284.042Z" fill="#0C0C0C"/>
<path d="M456.676 284.813C457.369 284.675 458.087 284.726 458.753 284.96C459.083 285.073 459.395 285.235 459.677 285.441C459.957 285.644 460.211 285.882 460.432 286.148C460.456 286.175 460.468 286.209 460.466 286.245C460.465 286.28 460.449 286.314 460.423 286.338C460.397 286.362 460.362 286.374 460.326 286.373C460.291 286.371 460.257 286.355 460.234 286.329L460.226 286.322C460.013 286.082 459.77 285.869 459.504 285.69C459.24 285.51 458.951 285.371 458.646 285.278C458.041 285.088 457.397 285.062 456.778 285.202L456.763 285.205C456.711 285.218 456.657 285.21 456.611 285.182C456.565 285.155 456.532 285.11 456.52 285.058C456.507 285.006 456.515 284.951 456.543 284.906C456.57 284.86 456.615 284.827 456.667 284.814L456.676 284.813Z" fill="#0C0C0C"/>
<path d="M425.786 366.629C423.576 365.665 421.923 364.634 418.149 361.791C415.427 359.748 412.896 357.459 410.59 354.955L429.964 318.089L430.807 316.487L448.282 325.674L433.123 354.521L433.054 354.648L433.185 355.162" fill="#EA4335"/>
<path d="M490.22 336.972C489.712 342.439 489.602 350.941 489.637 358.5C482.331 365.127 473.41 369.713 463.77 371.798C454.13 373.883 444.11 373.393 434.72 370.377C433.57 358.977 431.861 342.224 430.898 331.909C429.922 321.224 427.051 317.695 434.886 312.578C439.204 310.38 446.048 310.187 449.124 310.187C448.079 320.315 469.424 321.561 469.955 310.187C485.919 311.679 493.31 312.05 490.22 336.972Z" fill="#EA4335"/>
<path d="M450.088 294.877C451.853 295.774 453.866 296.058 455.81 295.683C455.877 295.67 455.947 295.677 456.01 295.702C456.074 295.727 456.129 295.77 456.169 295.826C456.209 295.882 456.233 295.948 456.237 296.016C456.241 296.085 456.225 296.153 456.192 296.213C455.614 297.234 454.238 298.979 451.88 298.268C450.358 297.809 449.782 296.245 449.567 295.274C449.552 295.206 449.557 295.136 449.58 295.071C449.604 295.007 449.646 294.95 449.701 294.908C449.755 294.866 449.821 294.841 449.89 294.836C449.958 294.83 450.027 294.844 450.088 294.877V294.877Z" fill="white"/>
<path d="M449.977 287.029C450.448 287.029 450.83 286.648 450.83 286.177C450.83 285.706 450.448 285.325 449.977 285.325C449.507 285.325 449.125 285.706 449.125 286.177C449.125 286.648 449.507 287.029 449.977 287.029Z" fill="#0C0C0C"/>
<path d="M458.171 288.464C458.641 288.464 459.023 288.082 459.023 287.611C459.023 287.14 458.641 286.759 458.171 286.759C457.7 286.759 457.318 287.14 457.318 287.611C457.318 288.082 457.7 288.464 458.171 288.464Z" fill="#0C0C0C"/>
<path d="M432.785 350.309H432.801C432.836 350.305 432.867 350.286 432.888 350.258C432.909 350.23 432.919 350.195 432.914 350.161L431.407 334.977C431.405 334.959 431.399 334.943 431.39 334.928C431.382 334.913 431.37 334.899 431.356 334.889C431.342 334.878 431.327 334.871 431.31 334.867C431.293 334.862 431.275 334.862 431.258 334.864C431.241 334.867 431.224 334.872 431.21 334.881C431.195 334.89 431.182 334.901 431.171 334.915C431.161 334.929 431.153 334.945 431.149 334.962C431.144 334.978 431.143 334.996 431.146 335.013L432.653 350.197C432.657 350.229 432.673 350.258 432.698 350.278C432.722 350.299 432.753 350.31 432.785 350.309V350.309Z" fill="#0C0C0C"/>
<path d="M430.814 338.746H415.43V357.614H430.814V338.746Z" fill="white"/>
<path d="M424.514 348.18C424.514 346.934 424.884 345.716 425.576 344.68C426.269 343.644 427.253 342.837 428.404 342.36C429.555 341.883 430.822 341.759 432.044 342.002C433.266 342.245 434.389 342.846 435.27 343.727C436.151 344.608 436.751 345.731 436.994 346.953C437.237 348.175 437.112 349.442 436.635 350.593C436.158 351.744 435.35 352.728 434.314 353.42C433.278 354.112 432.06 354.482 430.814 354.482C429.143 354.48 427.541 353.815 426.36 352.634C425.179 351.452 424.515 349.85 424.514 348.18V348.18ZM427.094 348.18C427.094 348.915 427.312 349.635 427.721 350.246C428.13 350.858 428.71 351.335 429.39 351.616C430.07 351.898 430.818 351.972 431.539 351.828C432.261 351.685 432.924 351.33 433.444 350.81C433.964 350.29 434.318 349.627 434.462 348.905C434.606 348.184 434.532 347.436 434.25 346.756C433.969 346.077 433.492 345.496 432.88 345.087C432.269 344.678 431.549 344.46 430.814 344.46C429.827 344.461 428.882 344.854 428.185 345.551C427.487 346.248 427.095 347.194 427.094 348.18V348.18Z" fill="white"/>
<path d="M430.693 350.515C430.745 350.195 430.907 349.905 431.152 349.693C431.397 349.482 431.708 349.363 432.031 349.358C432.022 349.345 432.016 349.331 432.012 349.315L431.554 349.216C431.235 349.153 430.947 348.981 430.74 348.73C430.532 348.479 430.418 348.165 430.416 347.839C430.419 347.635 430.467 347.434 430.557 347.251C430.647 347.067 430.777 346.906 430.937 346.779C431.097 346.652 431.283 346.562 431.481 346.516C431.68 346.469 431.887 346.468 432.087 346.511L433.167 346.744C433.167 346.74 433.167 346.736 433.167 346.732C433.17 346.723 433.173 346.715 433.177 346.707C432.895 346.574 432.667 346.351 432.529 346.072C432.391 345.793 432.351 345.475 432.417 345.171C432.535 344.372 433.494 344.109 434.197 344.261L436.996 344.762L436.051 344.135C435.753 343.929 435.544 343.617 435.467 343.263C435.39 342.908 435.451 342.538 435.636 342.226C435.738 342.069 435.87 341.934 436.025 341.829C436.181 341.724 436.356 341.652 436.54 341.618C436.724 341.583 436.913 341.586 437.095 341.627C437.278 341.668 437.451 341.745 437.603 341.855L448.887 354.768L446.381 353.631C445.604 354.775 444.502 355.66 443.218 356.174C441.934 356.687 440.526 356.806 439.174 356.513L433.055 355.18C432.735 355.117 432.447 354.945 432.24 354.694C432.032 354.443 431.918 354.128 431.916 353.803C431.921 353.509 432.019 353.224 432.196 352.99C432.374 352.756 432.622 352.585 432.903 352.502C432.894 352.481 432.891 352.458 432.894 352.436C432.897 352.415 432.906 352.395 432.919 352.379C432.932 352.362 432.949 352.348 432.968 352.34L431.839 352.096C431.483 352.027 431.167 351.825 430.954 351.531C430.741 351.238 430.648 350.874 430.693 350.515V350.515Z" fill="#E98862"/>
<path opacity="0.2" d="M435.212 347.199C435.241 347.192 435.267 347.176 435.286 347.152C435.305 347.129 435.315 347.1 435.314 347.07C435.313 347.039 435.302 347.01 435.283 346.988C435.263 346.965 435.236 346.949 435.207 346.944L433.316 346.624C433.299 346.621 433.282 346.621 433.265 346.624C433.248 346.627 433.231 346.634 433.217 346.644C433.202 346.654 433.19 346.666 433.181 346.681C433.171 346.696 433.165 346.712 433.162 346.729C433.159 346.747 433.16 346.764 433.164 346.781C433.168 346.798 433.175 346.814 433.186 346.828C433.196 346.842 433.209 346.854 433.224 346.863C433.239 346.872 433.256 346.877 433.273 346.88L435.163 347.2C435.179 347.202 435.196 347.202 435.212 347.199Z" fill="#0C0C0C"/>
<path opacity="0.2" d="M434.754 349.872C434.783 349.866 434.81 349.85 434.829 349.826C434.847 349.803 434.857 349.773 434.857 349.743C434.856 349.713 434.846 349.684 434.826 349.661C434.807 349.639 434.78 349.623 434.75 349.618L432.161 349.159C432.144 349.155 432.126 349.154 432.109 349.157C432.091 349.16 432.075 349.167 432.06 349.177C432.045 349.186 432.033 349.199 432.023 349.214C432.014 349.228 432.007 349.245 432.004 349.262C432.001 349.28 432.001 349.297 432.005 349.314C432.009 349.332 432.017 349.348 432.027 349.362C432.038 349.376 432.051 349.388 432.066 349.397C432.081 349.406 432.098 349.411 432.115 349.413L434.705 349.873C434.721 349.876 434.738 349.876 434.754 349.872V349.872Z" fill="#0C0C0C"/>
<path opacity="0.2" d="M434.28 352.771C434.309 352.765 434.336 352.748 434.355 352.724C434.373 352.701 434.383 352.671 434.382 352.641C434.381 352.61 434.37 352.581 434.35 352.558C434.33 352.536 434.302 352.521 434.272 352.516L433.044 352.328C433.011 352.325 432.978 352.335 432.952 352.355C432.926 352.375 432.909 352.405 432.904 352.438C432.899 352.47 432.907 352.504 432.925 352.531C432.944 352.558 432.973 352.577 433.005 352.584L434.233 352.772C434.249 352.775 434.264 352.774 434.28 352.771V352.771Z" fill="#0C0C0C"/>
<path d="M498.06 348.919C491.137 358.874 481.188 366.332 469.691 370.184L469.686 370.18C467.133 369.68 442.771 360.062 439.549 359.43L443.075 342.981C452.129 344.782 468.641 351.727 477.746 353.536L471.323 324.411C471.09 323.124 471.115 321.804 471.396 320.527C471.677 319.251 472.209 318.042 472.961 316.973C473.713 315.903 474.669 314.993 475.775 314.296C476.881 313.599 478.115 313.128 479.404 312.911C480.693 312.695 482.013 312.736 483.286 313.033C484.559 313.33 485.761 313.877 486.821 314.641C487.882 315.406 488.779 316.374 489.463 317.489C490.146 318.603 490.602 319.842 490.803 321.134L498.06 348.919Z" fill="#EA4335"/>
<path d="M484.645 355.68C484.678 355.679 484.71 355.666 484.734 355.644C484.757 355.621 484.772 355.59 484.774 355.558C484.777 355.525 484.767 355.492 484.747 355.467C484.727 355.441 484.698 355.423 484.665 355.418L477.819 353.095C477.802 353.092 477.785 353.093 477.768 353.097C477.751 353.101 477.735 353.109 477.721 353.119C477.707 353.129 477.695 353.142 477.686 353.157C477.678 353.172 477.672 353.189 477.669 353.206C477.664 353.241 477.673 353.276 477.694 353.304C477.715 353.332 477.746 353.35 477.78 353.355L484.626 355.678C484.632 355.679 484.639 355.68 484.645 355.68V355.68Z" fill="#0C0C0C"/>
<path d="M477.926 353.206C477.93 353.248 477.917 353.289 477.891 353.32C477.876 353.335 477.857 353.345 477.838 353.352C477.818 353.358 477.797 353.359 477.776 353.356L443.293 343.178L439.838 359.367L469.532 370.232C469.44 370.263 469.343 370.293 469.251 370.324C469.185 370.346 469.119 370.368 469.049 370.385L439.644 359.589C439.611 359.58 439.583 359.559 439.565 359.529C439.547 359.5 439.541 359.465 439.548 359.431L443.074 342.982C443.078 342.965 443.086 342.95 443.096 342.936C443.107 342.922 443.12 342.911 443.135 342.903C443.15 342.893 443.166 342.886 443.184 342.883C443.201 342.88 443.219 342.881 443.236 342.886L477.636 353.076L473.742 337.02C473.737 336.985 473.746 336.951 473.767 336.923C473.787 336.895 473.818 336.876 473.852 336.871C473.869 336.868 473.886 336.868 473.903 336.871C473.92 336.875 473.936 336.881 473.951 336.891C473.965 336.901 473.977 336.913 473.987 336.928C473.996 336.943 474.002 336.959 474.005 336.976L477.926 353.206Z" fill="#0C0C0C"/>
<path d="M28.2674 332.224C28.2353 332.224 28.2035 332.218 28.1739 332.206C28.1447 332.193 28.1183 332.176 28.096 332.153C28.0737 332.131 28.0561 332.104 28.0442 332.075C28.0322 332.045 28.0262 332.014 28.0264 331.982C28.0266 331.951 28.033 331.919 28.0453 331.89L37.4864 309.45C37.5112 309.391 37.5585 309.344 37.6177 309.32C37.6769 309.296 37.7433 309.297 37.8022 309.321C37.8611 309.346 37.9077 309.394 37.9318 309.453C37.9559 309.512 37.9555 309.578 37.9306 309.637L28.4895 332.077C28.4712 332.12 28.4403 332.158 28.4008 332.184C28.3613 332.21 28.3149 332.224 28.2674 332.224Z" fill="#0C0C0C"/>
<path d="M83.8223 332.48H83.8117C83.7801 332.481 83.7485 332.476 83.7188 332.466C83.689 332.455 83.6617 332.438 83.6383 332.417C83.615 332.396 83.596 332.37 83.5826 332.341C83.5692 332.312 83.5616 332.281 83.5602 332.25L82.5078 309.298C82.507 309.235 82.5302 309.174 82.5728 309.127C82.6154 309.08 82.6741 309.052 82.7372 309.046C82.7688 309.045 82.8005 309.05 82.8303 309.06C82.8601 309.071 82.8875 309.088 82.9109 309.109C82.9343 309.13 82.9532 309.156 82.9667 309.185C82.9801 309.214 82.9878 309.245 82.9892 309.276L84.0415 332.228C84.0446 332.29 84.0235 332.351 83.9827 332.398C83.9418 332.445 83.8843 332.474 83.8223 332.48Z" fill="#0C0C0C"/>
<path d="M625.983 159.52C619.333 159.52 613.284 157.968 607.837 154.865C602.453 151.698 598.209 147.391 595.105 141.943C592.002 136.496 590.45 130.511 590.45 123.987C590.45 117.463 592.002 111.477 595.105 106.03C598.209 100.583 602.453 96.3071 607.837 93.2035C613.284 90.0365 619.333 88.453 625.983 88.453C632.634 88.453 638.651 90.0365 644.035 93.2035C649.483 96.3071 653.758 100.583 656.862 106.03C659.965 111.477 661.517 117.463 661.517 123.987C661.517 130.511 659.965 136.496 656.862 141.943C653.758 147.391 649.483 151.698 644.035 154.865C638.651 157.968 632.634 159.52 625.983 159.52ZM625.983 147.359C630.164 147.359 633.996 146.377 637.48 144.414C640.963 142.45 643.687 139.695 645.65 136.148C647.677 132.601 648.691 128.547 648.691 123.987C648.691 119.426 647.677 115.372 645.65 111.825C643.687 108.278 640.963 105.523 637.48 103.56C633.996 101.596 630.164 100.614 625.983 100.614C621.803 100.614 617.971 101.596 614.487 103.56C611.067 105.523 608.343 108.278 606.317 111.825C604.353 115.372 603.371 119.426 603.371 123.987C603.371 128.547 604.353 132.601 606.317 136.148C608.343 139.695 611.067 142.45 614.487 144.414C617.971 146.377 621.803 147.359 625.983 147.359ZM671.953 109.545H683.639V116.006H684.4C685.603 113.726 687.471 111.857 690.005 110.4C692.539 108.88 695.326 108.12 698.366 108.12C700.583 108.12 702.61 108.468 704.447 109.165V121.611C702.736 120.978 701.28 120.535 700.076 120.281C698.936 119.965 697.701 119.806 696.371 119.806C692.697 119.806 689.783 121.136 687.63 123.797C685.476 126.457 684.4 129.814 684.4 133.868V158H671.953V109.545ZM719.53 104.225C717.313 104.225 715.413 103.433 713.829 101.849C712.246 100.266 711.454 98.3657 711.454 96.1488C711.454 93.9319 712.246 92.0634 713.829 90.5432C715.413 88.9597 717.313 88.168 719.53 88.168C721.747 88.168 723.615 88.9597 725.136 90.5432C726.719 92.0634 727.511 93.9319 727.511 96.1488C727.511 98.3657 726.719 100.266 725.136 101.849C723.615 103.433 721.747 104.225 719.53 104.225ZM713.259 109.545H725.706V158H713.259V109.545ZM761 159.52C756.186 159.52 751.848 158.412 747.984 156.195C744.12 153.978 741.08 150.938 738.863 147.074C736.709 143.147 735.633 138.745 735.633 133.868C735.633 129.244 736.709 124.968 738.863 121.041C741.017 117.051 743.993 113.884 747.794 111.54C751.594 109.197 755.838 108.025 760.525 108.025C765.529 108.025 769.836 109.102 773.446 111.255C777.057 113.409 779.78 116.354 781.617 120.091C783.517 123.828 784.468 127.977 784.468 132.537C784.468 133.994 784.373 135.388 784.183 136.718H747.794C748.427 140.582 749.947 143.527 752.354 145.554C754.825 147.517 757.77 148.499 761.19 148.499C764.041 148.499 766.479 147.897 768.506 146.694C770.596 145.427 772.243 143.749 773.446 141.658L783.517 146.599C778.577 155.213 771.071 159.52 761 159.52ZM772.496 127.882C772.37 126.362 771.8 124.873 770.786 123.417C769.836 121.896 768.474 120.661 766.701 119.711C764.991 118.698 762.964 118.191 760.62 118.191C757.643 118.191 755.078 119.078 752.924 120.851C750.834 122.561 749.314 124.905 748.364 127.882H772.496ZM794.055 109.545H805.742V115.626H806.502C807.958 113.282 810.017 111.445 812.677 110.115C815.337 108.722 818.219 108.025 821.323 108.025C827.15 108.025 831.584 109.799 834.624 113.346C837.665 116.893 839.185 121.738 839.185 127.882V158H826.739V129.402C826.739 126.298 825.947 123.892 824.363 122.181C822.78 120.471 820.563 119.616 817.713 119.616C814.356 119.616 811.632 120.915 809.542 123.512C807.515 126.108 806.502 129.37 806.502 133.298V158H794.055V109.545ZM869.611 158.76C867.204 158.76 864.987 158.412 862.96 157.715C860.933 156.955 859.287 155.941 858.02 154.675C855.043 151.824 853.554 147.771 853.554 142.513V120.186H845.098V109.545H853.554V95.8638H866.001V109.545H877.877V120.186H866.001V140.233C866.001 142.703 866.539 144.477 867.616 145.554C868.502 146.567 870.023 147.074 872.176 147.074C873.38 147.074 874.361 146.916 875.121 146.599C875.945 146.282 876.99 145.744 878.257 144.984V157.145C875.533 158.222 872.651 158.76 869.611 158.76ZM902.123 159.52C896.993 159.52 892.781 158.032 889.487 155.055C886.194 152.014 884.547 148.056 884.547 143.179C884.547 139.948 885.402 137.098 887.112 134.628C888.822 132.157 891.166 130.257 894.143 128.927C897.12 127.597 900.413 126.932 904.024 126.932C909.027 126.932 913.303 127.66 916.85 129.117V127.027C916.85 124.367 915.837 122.213 913.81 120.566C911.846 118.919 909.186 118.096 905.829 118.096C903.549 118.096 901.332 118.634 899.178 119.711C897.088 120.725 895.346 122.086 893.953 123.797L885.972 117.526C888.315 114.486 891.261 112.142 894.808 110.495C898.355 108.848 902.218 108.025 906.399 108.025C913.81 108.025 919.447 109.735 923.311 113.156C927.174 116.576 929.106 121.58 929.106 128.167V158H916.85V153.06H916.09C914.633 154.96 912.701 156.512 910.294 157.715C907.951 158.918 905.227 159.52 902.123 159.52ZM905.069 149.829C908.679 149.829 911.529 148.689 913.62 146.409C915.773 144.065 916.85 141.342 916.85 138.238C913.62 136.718 910.231 135.958 906.684 135.958C900.223 135.958 896.993 138.365 896.993 143.179C896.993 145.142 897.69 146.757 899.083 148.024C900.477 149.227 902.472 149.829 905.069 149.829ZM960.724 158.76C958.317 158.76 956.1 158.412 954.073 157.715C952.046 156.955 950.399 155.941 949.132 154.675C946.155 151.824 944.667 147.771 944.667 142.513V120.186H936.211V109.545H944.667V95.8638H957.113V109.545H968.989V120.186H957.113V140.233C957.113 142.703 957.652 144.477 958.728 145.554C959.615 146.567 961.135 147.074 963.289 147.074C964.492 147.074 965.474 146.916 966.234 146.599C967.058 146.282 968.103 145.744 969.369 144.984V157.145C966.646 158.222 963.764 158.76 960.724 158.76ZM986.837 104.225C984.62 104.225 982.72 103.433 981.137 101.849C979.553 100.266 978.761 98.3657 978.761 96.1488C978.761 93.9319 979.553 92.0634 981.137 90.5432C982.72 88.9597 984.62 88.168 986.837 88.168C989.054 88.168 990.922 88.9597 992.443 90.5432C994.026 92.0634 994.818 93.9319 994.818 96.1488C994.818 98.3657 994.026 100.266 992.443 101.849C990.922 103.433 989.054 104.225 986.837 104.225ZM980.566 109.545H993.013V158H980.566V109.545ZM1028.78 159.52C1023.78 159.52 1019.31 158.412 1015.39 156.195C1011.46 153.915 1008.39 150.843 1006.17 146.979C1004.02 143.052 1002.94 138.65 1002.94 133.773C1002.94 128.959 1004.02 124.588 1006.17 120.661C1008.39 116.734 1011.46 113.662 1015.39 111.445C1019.31 109.165 1023.78 108.025 1028.78 108.025C1033.72 108.025 1038.16 109.165 1042.08 111.445C1046.01 113.662 1049.05 116.734 1051.2 120.661C1053.42 124.588 1054.53 128.959 1054.53 133.773C1054.53 138.65 1053.42 143.052 1051.2 146.979C1049.05 150.843 1046.01 153.915 1042.08 156.195C1038.16 158.412 1033.72 159.52 1028.78 159.52ZM1028.78 148.024C1031.19 148.024 1033.41 147.454 1035.43 146.314C1037.46 145.174 1039.08 143.527 1040.28 141.373C1041.48 139.22 1042.08 136.686 1042.08 133.773C1042.08 130.922 1041.48 128.42 1040.28 126.267C1039.08 124.113 1037.46 122.466 1035.43 121.326C1033.41 120.186 1031.19 119.616 1028.78 119.616C1026.38 119.616 1024.16 120.186 1022.13 121.326C1020.1 122.466 1018.46 124.113 1017.19 126.267C1015.99 128.42 1015.39 130.922 1015.39 133.773C1015.39 136.623 1015.99 139.156 1017.19 141.373C1018.46 143.527 1020.1 145.174 1022.13 146.314C1024.16 147.454 1026.38 148.024 1028.78 148.024ZM1063.13 109.545H1074.81V115.626H1075.57C1077.03 113.282 1079.09 111.445 1081.75 110.115C1084.41 108.722 1087.29 108.025 1090.39 108.025C1096.22 108.025 1100.65 109.799 1103.69 113.346C1106.73 116.893 1108.25 121.738 1108.25 127.882V158H1095.81V129.402C1095.81 126.298 1095.02 123.892 1093.43 122.181C1091.85 120.471 1089.63 119.616 1086.78 119.616C1083.43 119.616 1080.7 120.915 1078.61 123.512C1076.58 126.108 1075.57 129.37 1075.57 133.298V158H1063.13V109.545ZM668.586 287.694C670.677 285.604 674.699 281.582 680.653 275.628C686.67 269.61 690.534 265.683 692.244 263.846C694.524 261.376 696.076 259.318 696.899 257.671C697.786 256.024 698.229 254.156 698.229 252.065C698.229 249.848 697.406 247.98 695.759 246.46C694.112 244.94 691.927 244.18 689.203 244.18C686.543 244.18 684.39 244.94 682.743 246.46C681.096 247.98 679.924 249.88 679.227 252.16L668.016 247.505C668.713 245.035 669.98 242.659 671.817 240.379C673.717 238.036 676.155 236.135 679.132 234.679C682.109 233.222 685.53 232.493 689.393 232.493C693.701 232.493 697.469 233.348 700.7 235.059C703.93 236.705 706.432 238.986 708.205 241.899C709.979 244.75 710.866 247.948 710.866 251.495C710.866 258.526 707.445 265.398 700.605 272.112C697.818 274.836 692.655 279.966 685.118 287.504L685.403 288.074H711.721V299H668.586V287.694ZM748.457 300.52C743.01 300.52 738.228 299.063 734.111 296.15C729.994 293.173 726.795 289.119 724.515 283.988C722.298 278.795 721.19 272.967 721.19 266.507C721.19 260.046 722.298 254.251 724.515 249.12C726.795 243.926 729.994 239.872 734.111 236.959C738.228 233.982 743.01 232.493 748.457 232.493C753.905 232.493 758.687 233.982 762.804 236.959C766.921 239.872 770.088 243.926 772.305 249.12C774.585 254.251 775.725 260.046 775.725 266.507C775.725 272.967 774.585 278.795 772.305 283.988C770.088 289.119 766.921 293.173 762.804 296.15C758.687 299.063 753.905 300.52 748.457 300.52ZM748.457 288.834C751.498 288.834 754.126 287.884 756.343 285.984C758.623 284.02 760.334 281.36 761.474 278.003C762.677 274.583 763.279 270.751 763.279 266.507C763.279 259.919 761.949 254.567 759.289 250.45C756.628 246.27 753.018 244.18 748.457 244.18C743.96 244.18 740.382 246.27 737.721 250.45C735.061 254.631 733.731 259.983 733.731 266.507C733.731 270.751 734.301 274.583 735.441 278.003C736.645 281.36 738.355 284.02 740.572 285.984C742.852 287.884 745.481 288.834 748.457 288.834ZM784.565 287.694C786.655 285.604 790.677 281.582 796.631 275.628C802.648 269.61 806.512 265.683 808.222 263.846C810.502 261.376 812.054 259.318 812.878 257.671C813.764 256.024 814.208 254.156 814.208 252.065C814.208 249.848 813.384 247.98 811.738 246.46C810.091 244.94 807.905 244.18 805.182 244.18C802.522 244.18 800.368 244.94 798.721 246.46C797.074 247.98 795.903 249.88 795.206 252.16L783.995 247.505C784.691 245.035 785.958 242.659 787.795 240.379C789.695 238.036 792.134 236.135 795.111 234.679C798.088 233.222 801.508 232.493 805.372 232.493C809.679 232.493 813.448 233.348 816.678 235.059C819.908 236.705 822.41 238.986 824.184 241.899C825.957 244.75 826.844 247.948 826.844 251.495C826.844 258.526 823.424 265.398 816.583 272.112C813.796 274.836 808.634 279.966 801.096 287.504L801.381 288.074H827.699V299H784.565V287.694ZM837.358 287.694C839.448 285.604 843.47 281.582 849.424 275.628C855.442 269.61 859.305 265.683 861.016 263.846C863.296 261.376 864.848 259.318 865.671 257.671C866.558 256.024 867.001 254.156 867.001 252.065C867.001 249.848 866.178 247.98 864.531 246.46C862.884 244.94 860.699 244.18 857.975 244.18C855.315 244.18 853.161 244.94 851.515 246.46C849.868 247.98 848.696 249.88 847.999 252.16L836.788 247.505C837.485 245.035 838.752 242.659 840.588 240.379C842.489 238.036 844.927 236.135 847.904 234.679C850.881 233.222 854.302 232.493 858.165 232.493C862.472 232.493 866.241 233.348 869.471 235.059C872.702 236.705 875.204 238.986 876.977 241.899C878.751 244.75 879.637 247.948 879.637 251.495C879.637 258.526 876.217 265.398 869.376 272.112C866.589 274.836 861.427 279.966 853.89 287.504L854.175 288.074H880.492V299H837.358V287.694ZM891.197 264.036H923.405V275.058H891.197V264.036ZM934.316 287.694C936.406 285.604 940.428 281.582 946.382 275.628C952.4 269.61 956.263 265.683 957.974 263.846C960.254 261.376 961.806 259.318 962.629 257.671C963.516 256.024 963.959 254.156 963.959 252.065C963.959 249.848 963.136 247.98 961.489 246.46C959.842 244.94 957.657 244.18 954.933 244.18C952.273 244.18 950.119 244.94 948.473 246.46C946.826 247.98 945.654 249.88 944.957 252.16L933.746 247.505C934.443 245.035 935.71 242.659 937.546 240.379C939.447 238.036 941.885 236.135 944.862 234.679C947.839 233.222 951.26 232.493 955.123 232.493C959.43 232.493 963.199 233.348 966.429 235.059C969.66 236.705 972.162 238.986 973.935 241.899C975.709 244.75 976.595 247.948 976.595 251.495C976.595 258.526 973.175 265.398 966.334 272.112C963.547 274.836 958.385 279.966 950.848 287.504L951.133 288.074H977.45V299H934.316V287.694ZM1009.25 300.52C1003.74 300.52 998.859 299.063 994.615 296.15C990.435 293.236 987.553 288.992 985.969 283.418L997.751 278.763C998.511 281.867 999.872 284.274 1001.84 285.984C1003.8 287.631 1006.27 288.454 1009.25 288.454C1011.97 288.454 1014.31 287.631 1016.28 285.984C1018.3 284.337 1019.32 282.247 1019.32 279.713C1019.32 276.989 1018.24 274.836 1016.09 273.252C1014 271.606 1011.15 270.782 1007.54 270.782H1001.93V259.476H1007.06C1009.85 259.476 1012.19 258.779 1014.09 257.386C1016.06 255.992 1017.04 253.965 1017.04 251.305C1017.04 249.152 1016.25 247.378 1014.66 245.985C1013.08 244.591 1011.05 243.894 1008.58 243.894C1005.98 243.894 1003.89 244.591 1002.31 245.985C1000.73 247.378 999.619 249.12 998.986 251.21L987.68 246.555C989.01 242.754 991.448 239.461 994.995 236.674C998.606 233.887 1003.17 232.493 1008.68 232.493C1012.73 232.493 1016.34 233.253 1019.51 234.774C1022.74 236.294 1025.24 238.384 1027.01 241.044C1028.79 243.641 1029.67 246.586 1029.67 249.88C1029.67 253.364 1028.85 256.341 1027.2 258.811C1025.62 261.281 1023.69 263.086 1021.41 264.227V264.987C1024.57 266.253 1027.14 268.249 1029.1 270.972C1031.07 273.696 1032.05 276.989 1032.05 280.853C1032.05 284.59 1031.1 287.947 1029.2 290.924C1027.3 293.901 1024.61 296.245 1021.12 297.955C1017.7 299.665 1013.74 300.52 1009.25 300.52Z" fill="white"/>
<rect x="586" y="175" width="132" height="11" fill="#4285F4"/>
<rect x="718" y="175" width="132" height="11" fill="#EA4335"/>
<rect x="850" y="175" width="132" height="11" fill="#FBBC04"/>
<rect x="982" y="175" width="132" height="11" fill="#0F9D58"/>
<rect x="664" y="316" width="93" height="11" fill="#4285F4"/>
<rect x="757" y="316" width="93" height="11" fill="#EA4335"/>
<rect x="850" y="316" width="93" height="11" fill="#FBBC04"/>
<rect x="943" y="316" width="93" height="11" fill="#0F9D58"/>
</svg>
