<svg xmlns="http://www.w3.org/2000/svg" width="97.267" height="31.625" viewBox="0 0 97.267 31.625">
  <g id="firebase" transform="translate(-11.921 -15.419)">
    <g id="Group_29" data-name="Group 29" transform="translate(11.921 15.419)">
      <path id="Path_67" data-name="Path 67" d="M0,25.526l.191-.268L9.248,8.074l.019-.182L5.275.393A.741.741,0,0,0,3.889.627Z" fill="#ffc24a"/>
      <path id="Path_68" data-name="Path 68" d="M.113,25.322l.145-.282,8.961-17L5.237.506A.673.673,0,0,0,3.956.739Z" fill="#ffa712"/>
      <g id="Group_27" data-name="Group 27">
        <path id="Path_69" data-name="Path 69" d="M.113,25.322l.145-.282,8.961-17L5.237.506A.673.673,0,0,0,3.956.739Z" fill="#ff9c37"/>
      </g>
      <path id="Path_70" data-name="Path 70" d="M12.177,13.564,15.15,10.52,12.177,4.844a.766.766,0,0,0-1.35,0L9.238,7.874v.258Z" fill="#f4bd62"/>
      <path id="Path_71" data-name="Path 71" d="M12.124,13.437l2.89-2.96-2.89-5.5a.666.666,0,0,0-1.213-.054L9.315,8l-.048.157Z" fill="#ffa50e"/>
      <g id="Group_28" data-name="Group 28">
        <path id="Path_72" data-name="Path 72" d="M12.124,13.437l2.89-2.96-2.89-5.5a.666.666,0,0,0-1.213-.054L9.315,8l-.048.157Z" fill="#ff9c37"/>
      </g>
      <path id="Path_73" data-name="Path 73" d="M9.247,7.857,0,25.526l.087-.087L.4,25.311,11.991,13.765l.147-.4Z" fill="#f6820c"/>
      <path id="Path_74" data-name="Path 74" d="M12.549,31.349,23.037,25.5,20.042,7.054a.717.717,0,0,0-1.215-.391L0,25.526l10.428,5.822a2.177,2.177,0,0,0,2.121,0" fill="#fde068"/>
      <path id="Path_75" data-name="Path 75" d="M22.943,25.451,19.97,7.145a.63.63,0,0,0-1.092-.4L.117,25.491l10.313,5.764a2.16,2.16,0,0,0,2.1,0Z" fill="#fcca3f"/>
      <path id="Path_76" data-name="Path 76" d="M12.549,31.177a2.176,2.176,0,0,1-2.121,0L.084,25.438,0,25.526l10.428,5.822a2.176,2.176,0,0,0,2.121,0L23.037,25.5l-.026-.158Z" fill="#eeab37"/>
    </g>
    <path id="Path_77" data-name="Path 77" d="M42.9,38.237H41.115V24.345h8.1v1.707H42.9v4.56h5.705v1.67H42.9Zm9.453-11.894a1.26,1.26,0,1,1,.37-.892,1.216,1.216,0,0,1-.37.892Zm0,11.894H50.568V28.73h1.785Zm3.853,0H54.42V28.73h1.707v1.552H56.2A2.429,2.429,0,0,1,57.32,29a3.173,3.173,0,0,1,1.64-.5,3.381,3.381,0,0,1,1.34.233l-.68,1.67a2.492,2.492,0,0,0-.95-.136,2.33,2.33,0,0,0-1.717.766,2.758,2.758,0,0,0-.747,2.008v5.2Zm8.788.3a4.582,4.582,0,0,1-3.5-1.436,5.092,5.092,0,0,1-1.35-3.628,5.27,5.27,0,0,1,1.3-3.57,4.255,4.255,0,0,1,3.347-1.494,4.4,4.4,0,0,1,3.386,1.378,5.219,5.219,0,0,1,1.27,3.687l-.02.33h-7.5a3.231,3.231,0,0,0,.96,2.27,2.91,2.91,0,0,0,2.067.834,2.561,2.561,0,0,0,2.6-1.63l1.6.66a4.2,4.2,0,0,1-1.533,1.853,4.455,4.455,0,0,1-2.62.747Zm2.56-6.2a2.541,2.541,0,0,0-.747-1.552,2.667,2.667,0,0,0-2.047-.737,2.564,2.564,0,0,0-1.717.62,3.173,3.173,0,0,0-1,1.67h5.5Zm8.363,6.2a4.032,4.032,0,0,1-1.95-.466,3.4,3.4,0,0,1-1.3-1.164H72.6v1.32H70.893V24.345h1.785V28.73L72.6,30.05h.078a3.26,3.26,0,0,1,1.3-1.164,4.074,4.074,0,0,1,1.95-.466,4.165,4.165,0,0,1,3.182,1.455,5.171,5.171,0,0,1,1.34,3.6,5.1,5.1,0,0,1-1.34,3.6,4.219,4.219,0,0,1-3.182,1.455Zm-.3-1.63a2.841,2.841,0,0,0,2.134-.94,3.93,3.93,0,0,0,0-4.986,2.839,2.839,0,0,0-2.134-.94,2.81,2.81,0,0,0-2.144.93,3.506,3.506,0,0,0-.883,2.5,3.487,3.487,0,0,0,.883,2.5,2.845,2.845,0,0,0,2.144.932Zm9.513,1.63a3.817,3.817,0,0,1-2.532-.873,3.084,3.084,0,0,1,.183-4.735,4.882,4.882,0,0,1,2.97-.883,5.111,5.111,0,0,1,2.58.582v-.272a2.122,2.122,0,0,0-.718-1.678,2.581,2.581,0,0,0-1.766-.63,2.723,2.723,0,0,0-1.407.37,1.9,1.9,0,0,0-.863,1.009l-1.63-.7a3.683,3.683,0,0,1,1.3-1.58,4.168,4.168,0,0,1,2.56-.728,4.4,4.4,0,0,1,3.027,1.067,3.809,3.809,0,0,1,1.2,3.007v5.743h-1.7v-1.32h-.078a3.5,3.5,0,0,1-3.124,1.63Zm.3-1.63a2.906,2.906,0,0,0,2.008-.825,2.561,2.561,0,0,0,.9-1.95,3.517,3.517,0,0,0-2.27-.62,2.953,2.953,0,0,0-1.96.563,1.69,1.69,0,0,0-.66,1.32,1.269,1.269,0,0,0,.6,1.106,2.4,2.4,0,0,0,1.378.408Zm9.8,1.63a4.286,4.286,0,0,1-2.63-.776,4.59,4.59,0,0,1-1.523-1.94l1.6-.66a2.618,2.618,0,0,0,2.58,1.785,2.348,2.348,0,0,0,1.368-.37,1.131,1.131,0,0,0,.534-.97q0-.93-1.3-1.26l-1.92-.466A4.574,4.574,0,0,1,92.212,33a2.091,2.091,0,0,1-.812-1.745,2.4,2.4,0,0,1,1.116-2.047,4.792,4.792,0,0,1,4.9-.214,3.235,3.235,0,0,1,1.417,1.64l-1.552.64a2.108,2.108,0,0,0-2.173-1.26,2.453,2.453,0,0,0-1.34.33,1.014,1.014,0,0,0-.543.892q0,.814,1.26,1.106l1.882.446a3.566,3.566,0,0,1,1.98,1.067,2.567,2.567,0,0,1,.64,1.707,2.645,2.645,0,0,1-1.048,2.134,4.133,4.133,0,0,1-2.7.854Zm9.507,0a4.581,4.581,0,0,1-3.5-1.436,5.1,5.1,0,0,1-1.35-3.628,5.27,5.27,0,0,1,1.3-3.57,4.255,4.255,0,0,1,3.347-1.494,4.4,4.4,0,0,1,3.386,1.378,5.219,5.219,0,0,1,1.27,3.687v.33h-7.5a3.222,3.222,0,0,0,.96,2.27,2.91,2.91,0,0,0,2.066.834,2.561,2.561,0,0,0,2.6-1.63l1.6.66a4.2,4.2,0,0,1-1.533,1.853,4.455,4.455,0,0,1-2.62.747Zm2.56-6.2a2.541,2.541,0,0,0-.747-1.552,2.667,2.667,0,0,0-2.047-.737,2.56,2.56,0,0,0-1.717.621,3.177,3.177,0,0,0-1,1.67h5.5Z" fill="#fff"/>
  </g>
</svg>
