<svg xmlns="http://www.w3.org/2000/svg" xmlns:xlink="http://www.w3.org/1999/xlink" width="111.13" height="40.322" viewBox="0 0 111.13 40.322">
  <defs>
    <clipPath id="clip-path">
      <path id="Path_79" data-name="Path 79" d="M37.244,19.41,26.39,30.268,37.244,41.126h-12.4L13.983,30.268,24.841,19.41ZM24.841.8,4.682,20.963l6.2,6.2L37.244.8h-12.4Z"/>
    </clipPath>
    <linearGradient id="linear-gradient" x1="0.197" y1="1.193" x2="0.699" y2="0.448" gradientUnits="objectBoundingBox">
      <stop offset="0" stop-color="#1a237e" stop-opacity="0.4"/>
      <stop offset="1" stop-color="#1a237e" stop-opacity="0"/>
    </linearGradient>
    <radialGradient id="radial-gradient" cx="0.028" cy="0.068" r="1.223" gradientTransform="matrix(1.238, 0, 0, -1, -2.189, -5.539)" gradientUnits="objectBoundingBox">
      <stop offset="0" stop-color="#fff" stop-opacity="0.102"/>
      <stop offset="1" stop-color="#fff" stop-opacity="0"/>
    </radialGradient>
  </defs>
  <g id="flutter" transform="translate(-4.121 -8.966)">
    <g id="Group_35" data-name="Group 35" transform="translate(-0.561 8.162)">
      <g id="Group_30" data-name="Group 30" clip-path="url(#clip-path)">
        <path id="Path_78" data-name="Path 78" d="M20.186,36.471,37.244,19.41h-12.4L13.987,30.268Z" fill="#39cefd"/>
      </g>
      <g id="Group_31" data-name="Group 31" clip-path="url(#clip-path)">
        <path id="Path_80" data-name="Path 80" d="M4.682,20.963,24.841.8h12.4L10.885,27.166Z" fill="#39cefd"/>
      </g>
      <g id="Group_32" data-name="Group 32" clip-path="url(#clip-path)">
        <path id="Path_82" data-name="Path 82" d="M24.841,41.122h12.4L26.39,30.268l-6.2,6.2Z" fill="#03569b"/>
      </g>
      <g id="Group_33" data-name="Group 33" clip-path="url(#clip-path)">
        <path id="Path_84" data-name="Path 84" d="M26.39,30.268l-6.2,6.2,9.2-3.187Z" fill="url(#linear-gradient)"/>
      </g>
      <g id="Group_34" data-name="Group 34" clip-path="url(#clip-path)">
        <path id="Path_86" data-name="Path 86" d="M13.986,30.266l6.2-6.2,6.2,6.2-6.2,6.2Z" fill="#16b9fd"/>
      </g>
      <path id="Path_88" data-name="Path 88" d="M37.244,19.41,26.39,30.268,37.244,41.126h-12.4L13.983,30.268,24.841,19.41ZM24.841.8,4.682,20.963l6.2,6.2L37.244.8h-12.4Z" fill="url(#radial-gradient)"/>
    </g>
    <g id="Group_36" data-name="Group 36">
      <path id="Path_89" data-name="Path 89" d="M40.62,19.774H51.46v2.12H42.82v6.414h7.8V30.4h-7.8v8.115h-2.2Zm13.463,0h2.225V38.518H54.083ZM64.448,38.937a4.759,4.759,0,0,1-3.7-1.414A5.8,5.8,0,0,1,59.5,33.57v-8.4h2.225V33.23a3.921,3.921,0,0,0,.864,2.8,3.079,3.079,0,0,0,2.33.9,3.441,3.441,0,0,0,2-.6,3.842,3.842,0,0,0,1.36-1.57,4.419,4.419,0,0,0,.5-2.042v-7.54H71v13.35H68.88V36.58h-.105a4.4,4.4,0,0,1-1.754,1.675,5.137,5.137,0,0,1-2.566.68Z" fill="#fff"/>
      <path id="Path_90" data-name="Path 90" d="M79.564,38.728a4.328,4.328,0,0,1-1.518-.262,3.48,3.48,0,0,1-1.152-.707,3.21,3.21,0,0,1-.785-1.152,4.3,4.3,0,0,1-.262-1.6V27.183h-2.33V25.167h2.33V21.4h2.225v3.77h3.246v2.016H78.072v7.278a2.574,2.574,0,0,0,.42,1.623,1.8,1.8,0,0,0,1.44.576,2.712,2.712,0,0,0,1.466-.445v2.173a3.417,3.417,0,0,1-.812.262,5.285,5.285,0,0,1-1.02.08Z" fill="#fff"/>
      <path id="Path_91" data-name="Path 91" d="M79.564,38.728a4.328,4.328,0,0,1-1.518-.262,3.48,3.48,0,0,1-1.152-.707,3.21,3.21,0,0,1-.785-1.152,4.3,4.3,0,0,1-.262-1.6V27.183h-2.33V25.167h2.33V21.4h2.225v3.77h3.246v2.016H78.072v7.278a2.574,2.574,0,0,0,.42,1.623,1.8,1.8,0,0,0,1.44.576,2.712,2.712,0,0,0,1.466-.445v2.173a3.417,3.417,0,0,1-.812.262,5.285,5.285,0,0,1-1.02.08Z" transform="translate(9.436)" fill="#fff"/>
      <path id="Path_92" data-name="Path 92" d="M98.8,38.937a6.548,6.548,0,0,1-3.43-.916,6.474,6.474,0,0,1-2.382-2.513,7.816,7.816,0,0,1-.838-3.64,8.067,8.067,0,0,1,.785-3.56,6.566,6.566,0,0,1,2.278-2.592,6.024,6.024,0,0,1,3.4-.97,6.288,6.288,0,0,1,3.4.9,5.657,5.657,0,0,1,2.2,2.408A7.694,7.694,0,0,1,105,31.588a2.551,2.551,0,0,1-.08.68H94.374a5.306,5.306,0,0,0,.733,2.566,4.289,4.289,0,0,0,1.65,1.57,4.583,4.583,0,0,0,2.12.524,4.344,4.344,0,0,0,3.953-2.408l1.885.916A6.692,6.692,0,0,1,102.359,38a6.448,6.448,0,0,1-3.56.942Zm3.848-8.508a4.332,4.332,0,0,0-.47-1.675,3.565,3.565,0,0,0-1.335-1.414,4.1,4.1,0,0,0-2.25-.576,3.785,3.785,0,0,0-2.67,1.02,4.825,4.825,0,0,0-1.414,2.644h8.142Zm4.934-5.262h2.12v2.147h.105a3.517,3.517,0,0,1,1.518-1.806,4.392,4.392,0,0,1,3.926-.471v2.408a4.148,4.148,0,0,0-1.885-.42,3.1,3.1,0,0,0-1.78.55,3.963,3.963,0,0,0-1.3,1.492,4.316,4.316,0,0,0-.47,2v7.46h-2.225V25.177Z" fill="#fff"/>
    </g>
  </g>
</svg>
