<svg xmlns="http://www.w3.org/2000/svg" width="107.302" height="35.173" viewBox="0 0 107.302 35.173">
  <g id="google" transform="translate(-5.994 -14.022)">
    <path id="Path_93" data-name="Path 93" d="M32.377,26.446H19.857v3.715h8.88c-.44,5.2-4.773,7.432-8.865,7.432a9.76,9.76,0,0,1-9.8-9.891,9.78,9.78,0,0,1,9.814-9.954,9.637,9.637,0,0,1,6.694,2.685l2.6-2.694a13.23,13.23,0,0,0-9.43-3.717A13.874,13.874,0,0,0,5.994,27.636a13.829,13.829,0,0,0,13.95,13.682c7.307,0,12.656-5.006,12.656-12.408a11.119,11.119,0,0,0-.227-2.464Z" fill="#4885ed"/>
    <path id="Path_94" data-name="Path 94" d="M42.634,23.755a8.773,8.773,0,1,0,8.8,8.8,8.669,8.669,0,0,0-8.8-8.8Zm.05,3.446a5.044,5.044,0,0,1,4.92,5.334,4.979,4.979,0,1,1-9.932-.026,5.061,5.061,0,0,1,5.02-5.308Z" fill="#db3236"/>
    <path id="Path_95" data-name="Path 95" d="M42.634,23.755a8.773,8.773,0,1,0,8.8,8.8,8.669,8.669,0,0,0-8.8-8.8Zm.05,3.446a5.044,5.044,0,0,1,4.92,5.334,4.979,4.979,0,1,1-9.932-.026,5.061,5.061,0,0,1,5.02-5.308Z" transform="translate(19.181)" fill="#f4c20d"/>
    <path id="Path_96" data-name="Path 96" d="M80.628,23.765a8.783,8.783,0,0,0-.082,17.548,5.756,5.756,0,0,0,4.8-2.132v1.73c0,3.027-1.838,4.84-4.612,4.84a4.89,4.89,0,0,1-4.5-3.123l-3.372,1.4a8.443,8.443,0,0,0,7.9,5.167c4.7,0,8.262-2.953,8.262-9.147V24.292H85.36v1.486a6.2,6.2,0,0,0-4.73-2.013Zm.34,3.44c2.312,0,4.686,1.974,4.686,5.345,0,3.427-2.37,5.315-4.737,5.315a4.984,4.984,0,0,1-4.853-5.283,5.056,5.056,0,0,1,4.9-5.378Z" fill="#4885ed"/>
    <path id="Path_97" data-name="Path 97" d="M105.4,23.744c-4.448,0-8.183,3.54-8.183,8.76a8.482,8.482,0,0,0,8.6,8.8,8.886,8.886,0,0,0,7.35-3.85l-3.033-2.018a4.913,4.913,0,0,1-4.3,2.415,4.512,4.512,0,0,1-4.3-2.66l11.763-4.88-.6-1.43a7.943,7.943,0,0,0-7.295-5.14Zm.153,3.374a3.5,3.5,0,0,1,3.246,1.874l-7.856,3.283a4.871,4.871,0,0,1,4.6-5.157Z" fill="#db3236"/>
    <path id="Path_98" data-name="Path 98" d="M91.6,40.787h3.864V14.93H91.6Z" fill="#3cba54"/>
  </g>
</svg>
