<svg xmlns="http://www.w3.org/2000/svg" width="223.376" height="54.322" viewBox="0 0 223.376 54.322">
  <g id="Group_65" data-name="Group 65" transform="translate(-1242.048 -56)">
    <g id="Group_64" data-name="Group 64">
      <g id="javascript" transform="translate(1232.049 55.322)">
        <path id="Path_99" data-name="Path 99" d="M17.167,38.37a4.2,4.2,0,0,0-1.848-3.863A10.056,10.056,0,0,0,10,33.359v-6.7a16.755,16.755,0,0,0,3.08-.252,6.759,6.759,0,0,0,2.3-.868,3.752,3.752,0,0,0,1.372-1.568,4.65,4.65,0,0,0,.42-2.3v-8.9A10.311,10.311,0,0,1,17.7,9.246a4.822,4.822,0,0,1,1.9-2.408,10.041,10.041,0,0,1,3.78-1.4A33.623,33.623,0,0,1,29.43,5v6.3a13.85,13.85,0,0,0-2.044.2,4.008,4.008,0,0,0-1.54.616,2.8,2.8,0,0,0-.952,1.176,4.865,4.865,0,0,0-.336,1.96v8.37c-.112,3.5-2.3,5.562-6.55,6.215v.336a9.26,9.26,0,0,1,4.927,2.016,5.122,5.122,0,0,1,1.624,4.17v8.37a4.865,4.865,0,0,0,.336,1.96,2.71,2.71,0,0,0,.952,1.176,3.915,3.915,0,0,0,1.54.616,13.244,13.244,0,0,0,2.044.2V55a33.7,33.7,0,0,1-6.047-.448,10,10,0,0,1-3.78-1.4,4.808,4.808,0,0,1-1.9-2.408,10.575,10.575,0,0,1-.532-3.555v-8.82m209.04,8.82a10.558,10.558,0,0,1-.532,3.555,4.775,4.775,0,0,1-1.932,2.408,9.775,9.775,0,0,1-3.75,1.4,33.444,33.444,0,0,1-6.049.448V48.673a13.261,13.261,0,0,0,2.016-.2,3.675,3.675,0,0,0,1.512-.616,2.645,2.645,0,0,0,.98-1.176,4.53,4.53,0,0,0,.364-1.96v-8.37a5.1,5.1,0,0,1,1.624-4.17,9.2,9.2,0,0,1,4.9-2.016v-.336c-4.237-.653-6.4-2.725-6.523-6.215v-8.37a4.518,4.518,0,0,0-.364-1.96,2.65,2.65,0,0,0-.98-1.176,3.64,3.64,0,0,0-1.512-.616,12.77,12.77,0,0,0-2.016-.2V5a33.7,33.7,0,0,1,6.047.448,9.7,9.7,0,0,1,3.75,1.4,4.766,4.766,0,0,1,1.932,2.408,10.307,10.307,0,0,1,.532,3.527v8.9a5.063,5.063,0,0,0,.42,2.3A3.827,3.827,0,0,0,228,25.549a6.8,6.8,0,0,0,2.268.868,17.307,17.307,0,0,0,3.108.252v6.7a10.2,10.2,0,0,0-5.347,1.148,4.21,4.21,0,0,0-1.82,3.863V47.2" fill="#558"/>
        <text id="JavaScript-2" data-name="JavaScript" transform="translate(33.951 0.678)" fill="#434242" font-size="40" font-family="SegoeUI, Segoe UI"><tspan x="0" y="43">JavaScript</tspan></text>
      </g>
    </g>
  </g>
</svg>
