<svg xmlns="http://www.w3.org/2000/svg" xmlns:xlink="http://www.w3.org/1999/xlink" width="117.314" height="52.789" viewBox="0 0 117.314 52.789">
  <defs>
    <clipPath id="clip-path">
      <path id="Path_104" data-name="Path 104" d="M12.787,6.486H130.1V59.275H12.787Z"/>
    </clipPath>
  </defs>
  <g id="kaggle" transform="translate(-12.787 -6.486)" clip-path="url(#clip-path)">
    <path id="Path_103" data-name="Path 103" d="M42.927,41.8q-.037.145-.289.145H39.416a.644.644,0,0,1-.507-.254l-5.32-6.768-1.484,1.411v5.249a.32.32,0,0,1-.362.362h-2.5a.32.32,0,0,1-.362-.362V17.658a.323.323,0,0,1,.362-.365h2.5a.321.321,0,0,1,.362.365v14.73l6.37-6.442a.731.731,0,0,1,.507-.253h3.33a.283.283,0,0,1,.289.181c.049.145.041.253-.041.326l-6.728,6.514,7.021,8.723a.33.33,0,0,1,.073.362m13.048.145h-2.5c-.265,0-.4-.12-.4-.365V41.07a6.638,6.638,0,0,1-4.09,1.194,5.912,5.912,0,0,1-3.946-1.411,4.714,4.714,0,0,1-1.629-3.692q0-3.547,4.415-4.814a31.9,31.9,0,0,1,5.248-.869A2.859,2.859,0,0,0,50,28.258a7.3,7.3,0,0,0-4.126,1.448q-.326.181-.471-.072l-1.3-1.846q-.181-.217.108-.507a10.077,10.077,0,0,1,5.791-1.918,6.953,6.953,0,0,1,3.946,1.086,5.686,5.686,0,0,1,2.388,5.1V41.576a.323.323,0,0,1-.365.365m-2.9-7.559a18.25,18.25,0,0,0-4.85.941q-1.774.76-1.593,2.172a1.827,1.827,0,0,0,.8,1.285,3.122,3.122,0,0,0,1.592.561A4.94,4.94,0,0,0,53.08,38ZM71.129,48.222a7.41,7.41,0,0,1-5.592,2.045,8.053,8.053,0,0,1-3.981-1.049q-.4-.254-.941-.67t-1.266-1.031a.373.373,0,0,1-.041-.543l1.7-1.7a.388.388,0,0,1,.289-.109.365.365,0,0,1,.253.109A5.761,5.761,0,0,0,65.5,47.3q4.384,0,4.379-4.56V40.853a6.859,6.859,0,0,1-4.524,1.411,6.5,6.5,0,0,1-5.5-2.642A9.449,9.449,0,0,1,58.117,33.8a9.4,9.4,0,0,1,1.665-5.642,6.362,6.362,0,0,1,5.538-2.787,7.284,7.284,0,0,1,4.56,1.412v-.724a.32.32,0,0,1,.362-.362h2.5a.323.323,0,0,1,.365.362V42.233a8.3,8.3,0,0,1-1.973,5.989m-1.249-17.39q-.9-2.316-4.2-2.316-4.234,0-4.234,5.284a5.656,5.656,0,0,0,1.411,4.27,3.67,3.67,0,0,0,2.714,1.05q3.4,0,4.3-2.316ZM88.153,48.226a7.41,7.41,0,0,1-5.592,2.045,8.052,8.052,0,0,1-3.981-1.049q-.4-.254-.941-.67t-1.266-1.031a.373.373,0,0,1-.041-.543l1.7-1.7a.388.388,0,0,1,.289-.109.365.365,0,0,1,.253.109A5.76,5.76,0,0,0,82.524,47.3q4.384,0,4.384-4.56V40.857a6.853,6.853,0,0,1-4.524,1.411,6.5,6.5,0,0,1-5.5-2.642A9.446,9.446,0,0,1,75.145,33.8a9.4,9.4,0,0,1,1.664-5.642,6.362,6.362,0,0,1,5.538-2.787,7.287,7.287,0,0,1,4.56,1.412v-.724a.32.32,0,0,1,.362-.362h2.5a.323.323,0,0,1,.365.362V42.237a8.3,8.3,0,0,1-1.972,5.989m-1.249-17.39q-.905-2.316-4.2-2.316-4.235,0-4.235,5.284a5.656,5.656,0,0,0,1.411,4.27,3.672,3.672,0,0,0,2.714,1.05q3.4,0,4.3-2.316V30.84ZM95.67,41.942h-2.5a.323.323,0,0,1-.365-.365V17.658a.324.324,0,0,1,.365-.365h2.5a.324.324,0,0,1,.365.365V41.581a.324.324,0,0,1-.365.365m18.2-7.347a.32.32,0,0,1-.362.362H101.748a4.648,4.648,0,0,0,1.52,2.963A5.537,5.537,0,0,0,107,39.191a6.079,6.079,0,0,0,3.583-1.122c.218-.145.4-.145.543,0l1.7,1.737c.193.194.193.365,0,.507a9.828,9.828,0,0,1-6.048,1.954,8.348,8.348,0,0,1-6.153-2.461,8.451,8.451,0,0,1-2.388-6.189,8.367,8.367,0,0,1,2.352-6.008,7.5,7.5,0,0,1,5.642-2.244,7.352,7.352,0,0,1,5.538,2.352A7.857,7.857,0,0,1,113.9,33.8Zm-4.741-5.32a4.247,4.247,0,0,0-2.963-1.122,4.189,4.189,0,0,0-2.859,1.085,4.832,4.832,0,0,0-1.556,2.823h8.722a3.644,3.644,0,0,0-1.34-2.787" fill="#20beff"/>
  </g>
</svg>
