<svg id="microsoft" xmlns="http://www.w3.org/2000/svg" width="105" height="22.429" viewBox="0 0 105 22.429">
  <path id="Path_105" data-name="Path 105" d="M37.069,12.919l-.626,1.773h-.052a12.591,12.591,0,0,0-.609-1.739L32.427,4.521H29.141v13.44h2.173V9.667L31.3,7.824c-.017-.365-.052-.643-.07-.852h.052a8.122,8.122,0,0,0,.313,1.148l4.034,9.806h1.53l4-9.893a10.533,10.533,0,0,0,.261-1.061h.052l-.1,2.417v8.52h2.312V4.486H40.512Zm8.8-4.642h2.26v9.632h-2.26Zm1.148-4.069a1.354,1.354,0,0,0-.956.383,1.282,1.282,0,0,0,0,1.86,1.34,1.34,0,0,0,.956.365,1.387,1.387,0,0,0,.956-.365,1.222,1.222,0,0,0,.4-.922,1.289,1.289,0,0,0-.4-.939,1.268,1.268,0,0,0-.956-.383m9.128,3.982a6.3,6.3,0,0,0-1.269-.139,5.455,5.455,0,0,0-2.747.678,4.541,4.541,0,0,0-1.808,1.86,5.913,5.913,0,0,0-.626,2.782,5.16,5.16,0,0,0,.609,2.486A4.168,4.168,0,0,0,52,17.578a5.016,5.016,0,0,0,2.486.609,5.465,5.465,0,0,0,2.73-.643l.017-.017V15.44l-.087.07a3.885,3.885,0,0,1-1.1.574,3.351,3.351,0,0,1-1.078.209,2.667,2.667,0,0,1-2.121-.835,3.207,3.207,0,0,1-.782-2.278,3.287,3.287,0,0,1,.8-2.347A2.791,2.791,0,0,1,55,9.963a3.7,3.7,0,0,1,2.156.73l.087.07V8.554l-.017-.017a5.242,5.242,0,0,0-1.078-.348M63.6,8.12a2.385,2.385,0,0,0-1.53.539,3.244,3.244,0,0,0-.869,1.3h-.017V8.276h-2.26v9.632h2.26V12.988a3.318,3.318,0,0,1,.556-2.034,1.743,1.743,0,0,1,1.461-.782,5.576,5.576,0,0,1,.678.087,1.784,1.784,0,0,1,.539.226l.087.07V8.294l-.052-.017A1.718,1.718,0,0,0,63.6,8.12m6.155-.052a4.984,4.984,0,0,0-3.738,1.391,5.179,5.179,0,0,0-1.339,3.79A4.956,4.956,0,0,0,66,16.848a5.429,5.429,0,0,0,7.2-.087,5.161,5.161,0,0,0,1.339-3.738,5.031,5.031,0,0,0-1.269-3.634,4.576,4.576,0,0,0-3.512-1.321m1.808,7.407a2.279,2.279,0,0,1-1.9.8,2.374,2.374,0,0,1-1.947-.835,3.435,3.435,0,0,1-.7-2.312,3.65,3.65,0,0,1,.7-2.365,2.391,2.391,0,0,1,1.93-.835,2.312,2.312,0,0,1,1.878.8,3.566,3.566,0,0,1,.7,2.347,4.023,4.023,0,0,1-.661,2.4m8.015-3.2a5.415,5.415,0,0,1-1.374-.713.987.987,0,0,1-.261-.73.808.808,0,0,1,.365-.7,1.675,1.675,0,0,1,.991-.261,4.5,4.5,0,0,1,1.165.174,3,3,0,0,1,1.008.469l.087.07V8.467L81.51,8.45a6.273,6.273,0,0,0-1.026-.3,6.97,6.97,0,0,0-1.113-.1,4.028,4.028,0,0,0-2.66.835,2.57,2.57,0,0,0-1.026,2.121,2.76,2.76,0,0,0,.226,1.182,2.635,2.635,0,0,0,.7.9A6.059,6.059,0,0,0,78,13.875c.522.226.922.4,1.165.539a2.36,2.36,0,0,1,.522.417.989.989,0,0,1,.139.539c0,.643-.487.956-1.478.956a3.9,3.9,0,0,1-1.252-.226,4.837,4.837,0,0,1-1.269-.643l-.087-.07V17.6l.052.017A6.744,6.744,0,0,0,77.007,18a7.763,7.763,0,0,0,1.3.156,4.234,4.234,0,0,0,2.8-.835,2.662,2.662,0,0,0,1.061-2.191,2.438,2.438,0,0,0-.556-1.652,7.05,7.05,0,0,0-2.034-1.2m8.554-4.208A4.984,4.984,0,0,0,84.4,9.459a5.252,5.252,0,0,0-1.339,3.79,4.956,4.956,0,0,0,1.321,3.6,5.429,5.429,0,0,0,7.2-.087,5.161,5.161,0,0,0,1.339-3.738,5.031,5.031,0,0,0-1.269-3.634,4.576,4.576,0,0,0-3.512-1.321m1.791,7.407a2.279,2.279,0,0,1-1.9.8,2.352,2.352,0,0,1-1.947-.835,3.435,3.435,0,0,1-.7-2.312,3.65,3.65,0,0,1,.7-2.365,2.391,2.391,0,0,1,1.93-.835,2.335,2.335,0,0,1,1.878.8,3.566,3.566,0,0,1,.7,2.347,3.793,3.793,0,0,1-.661,2.4M105,10.137V8.276h-2.278V5.425l-.07.017-2.156.643-.052.017V8.276H97.037V7.059a1.907,1.907,0,0,1,.383-1.269,1.35,1.35,0,0,1,1.061-.417,2.537,2.537,0,0,1,1.008.226l.087.052V3.686l-.052-.017a4.348,4.348,0,0,0-3.078.243,3.016,3.016,0,0,0-1.234,1.234,3.558,3.558,0,0,0-.452,1.791V8.276H93.177v1.843h1.582v7.789h2.278V10.137h3.408v4.955c0,2.034.956,3.06,2.869,3.06a5.958,5.958,0,0,0,.956-.1,3.129,3.129,0,0,0,.713-.226L105,17.8v-1.86l-.087.07a1.469,1.469,0,0,1-.469.209,1.592,1.592,0,0,1-.452.07,1.2,1.2,0,0,1-.991-.365,1.883,1.883,0,0,1-.313-1.234V10.137Z" fill="#fff"/>
  <path id="Path_106" data-name="Path 106" d="M0,0H10.658V10.658H0Z" fill="#f25022"/>
  <path id="Path_107" data-name="Path 107" d="M11.771,0H22.429V10.658H11.771Z" fill="#7fba00"/>
  <path id="Path_108" data-name="Path 108" d="M0,11.771H10.658V22.429H0Z" fill="#00a4ef"/>
  <path id="Path_109" data-name="Path 109" d="M11.771,11.771H22.429V22.429H11.771Z" fill="#ffb900"/>
</svg>
